<?xml version="1.0" encoding="UTF-8"?>
<svg id="Capa_1" data-name="Capa 1" xmlns="http://www.w3.org/2000/svg" viewBox="0 0 235.72 447.13">
  <defs>
    <style>
      .cls-1 {
        fill: #fff;
      }

      .cls-2 {
        fill: none;
      }

      .cls-3 {
        fill: #231f20;
      }
    </style>
  </defs>
  <path class="cls-1" d="m232.33,170.28c-.04-.09-.04-.19,0-.27,1.64-2.84,1.43-6-.62-9.4-.05-.09-.07-.21-.05-.26.01-.04.99-4.13-1.1-10.42-1.41-4.25-3.9-7.18-4.97-8.44-.56-.66-.61-.76-.59-.94.4-1.9-.66-4.81-1.6-7.37-.4-1.08-.77-2.11-.98-2.93-.62-2.45-.09-3.24.1-3.42l.14-.18c1.36-2.11.12-4.86-1.6-6.53l-.29-.28c-1.33-1.26-1.73-1.64-2.47-5.9-.72-4.08-2.77-7.01-6.26-8.97-2.01-1.12-4.44-1.87-6.78-2.59-.06-.02-.1-.05-.14-.1-4.06-5.23-14.87-10.05-19.78-11.27-.95-.24-1.42-.27-1.65-.26-.16,0-.5-.01-1.6-.29-5.08-1.27-20.64-6.47-32.05-10.29-5.64-1.89-10.51-3.52-11.55-3.8l-.16-.04-1.37.04c-19.49.63-31.44.61-35.52-.06-6.58-1.08-20.71,2.64-28.38,5.74-5,2.02-10.86,5.27-11.88,7.31-.05.09-.14.15-.24.16-2.92.11-4.42,3.44-4.48,3.58-.05.12-.19.2-.33.16h0c-.14-.04-.22-.17-.21-.3.63-5.43-2.05-16.52-4.61-21.44-1.46-2.81-4.4-4.78-8.74-5.87-4.15-1.03-9.49-1.2-15.46-.48-10,1.21-16.34,7.26-17.4,16.6-1.05,9.23-.43,14.97.27,18.16.36,1.62,1.1,4.99,4.18,6.95.11.07.16.21.12.33-.02.05-1.6,4.58-1.18,7.17.39,2.37,2.7,5.69,4.04,7.45.03.03.04.08.05.12,2.22,11.82,7.12,19.62,8.57,21.73,3.36,4.89,11.29,9.69,16.3,10.94.96.24,1.78.34,2.46.3,4.52-.25,8.27-1.62,13.81-5.06,2.77-1.72,8.49-5,12.36-6.39.13-.05.2-.03.3.07,1.61,1.68-.89,12.32-2.74,17.79-2.71,7.66.22,10.82.56,11.15.08.08.11.2.08.3-.04.11-.12.19-.24.21-1.22.2-3.51,1.17-4.39,3.54-1.16,3.12-1,12.32-1,12.41,0,.15-.12.28-.32.29-.98.07-2.27.75-2.68,2.43-.59,2.37,1.38,4.73,1.46,4.82.05.06.08.15.07.22-.01.08-.05.15-.12.2-.15.1-3.73,2.6-3.6,6.04.1,2.66,1.27,4.36,2.22,5.73,1.28,1.86,1.97,3.09-.02,4.81-.79.69-1.79,3.31-1.05,5.55.03.08.02.16-.02.23-.04.07-.11.12-.18.14-3.44.78-4,10.77-4.01,10.87,0,.04-.01.08-.03.11-.07.14-7.33,14.49-5.32,20.05.04.11,0,.23-.07.31-4.61,4.26-6.83,8.52-8.21,15.72-1.08,5.63-1.18,12.76-.24,16.96.02.1,0,.19-.08.26-2.67,2.66-6.09,7.74-7.66,14.03-1.57,6.31-.14,11,.63,13.52.33,1.09.48,1.59.39,1.94-.1.4-.76,1.15-2.13,2.68-2.43,2.73-6.5,7.29-7.4,10.88-1.29,5.16.57,9.87.59,9.92.05.12.01.25-.08.33-.12.1-2.88,2.37-3.58,4.41-.67,1.97,1.66,4.41,1.68,4.44.08.08.1.2.06.3-.29.75-2.82,7.46-3.55,11.14-.41,2.06-.22,3.25,0,4.63.19,1.23.39,2.5.25,4.56-.17,2.34-.93,4.89-1.74,7.59-.71,2.38-1.44,4.84-1.74,7.15-.31,2.4-.17,2.95-.02,3.28l.08.17.13.14c.11.11.22.19.55.41.42.28,1,.67,1.68,1.47.61.72,1.87,1.29,3.97,1.82,1.5.38,3.27.68,4.98.97,2.33.4,4.8.84,6.44,1.39,1.09.36,2.69,1.26,4.54,2.3,2.98,1.68,6.69,3.77,10.05,4.6,4.18,1.04,6.88-.1,8.23-3.5,1.11-2.78,2.14-9.73,2.75-13.89.32-2.18.52-3.52.66-3.85.03-.02.06-.04.1-.07.03-.02.07-.04.11-.04l.42-.08.27-.34c.65-.83,1.88-3.07,1.85-5.62-.03-2.23,2.12-3.91,4.19-5.54,1.58-1.24,3.08-2.41,3.58-3.75.54-1.44.59-2.75.63-4.02.06-1.5.11-3.04.98-4.78.36-.72.85-1.61,1.41-2.63,1.86-3.36,4.4-7.97,4.74-11.14.68-6.19,2.03-10.18,4.01-11.88,2.45-2.09,4.51-5.6,6.67-11.38,2.25-6.02,3.28-10.45,2.84-12.17-.03-.1,0-.21.09-.28,3.71-3.29,2.98-11.1,2.97-11.18-.01-.12.06-.24.17-.29.05-.02,4.74-2.1,5.74-3.87.97-1.73-.51-5.5-.52-5.54-.04-.11-.01-.24.08-.32.26-.24,2.59-2.41,4.26-4.73.97-1.34.48-2.6.02-3.83-.35-.92-.68-1.78-.38-2.61,1.19-3.33,3.2-6.91,4.48-7.12.55-.09,1.08.21,1.38.78.57,1.1.46,3.08-.29,5.06-1.15,3.05-.07,13.8,1.17,17.85.67,2.19.12,3.09-.45,4.04-.66,1.09-1.13,2.11-.68,4.48.26,1.36-.26,2.62-.91,4.21-1.03,2.54-2.32,5.7-1.93,11.52,0,.07-.02.14-.06.19-1.6,2.08-3.2,6.09-4.5,11.31-1.42,5.68-.15,11.06.99,13.11.06.11.04.24-.04.33-1.03,1.12-.73,2.19-.07,4.55.27.99.61,2.22.93,3.74,1.1,5.36-.58,9.98-3.29,16.43-2.01,4.8-.58,8.08.69,10.99.51,1.17.99,2.27,1.18,3.35.38,2.15-.64,4.48-1.63,6.74-.77,1.76-1.56,3.58-1.76,5.36-.25,2.24.96,2.74,1.94,3.14.56.23.9.39,1,.75.03.1.1.36-.23.83-1.18,1.63-3.39,11.84-2.06,15.98.4,1.25,1.26,2.02,2.63,2.37,2.23.56,5.66-.07,9.29-.74,3.59-.66,7.66-1.4,11.46-1.2,1.74.09,3.44.35,5.08.75,4.51,1.12,7.7,3.22,9.7,4.69l.99.73.65-1.05c2.65-4.3,2.16-8.79,1.76-12.4-.21-1.89-.39-3.53-.03-4.7,1.04-3.4,1.26-11.23,1.26-11.31,0-.04.01-.08.03-.13.25-.52,2.53-5.21,5.08-11,1.99-4.53,2.84-10.1,3.36-13.44.18-1.19.33-2.13.47-2.71.14-.57.35-1.28.57-2.03.65-2.23,1.45-5,1.57-7.32,0-.07.04-.14.09-.19,3.37-3.15,4.45-7.36,5.11-11.44.71-4.38.37-7.99.06-11.18-.09-.99-.19-2.01-.25-2.98,0-.03,0-.06,0-.08.66-2.67,1.76-4.66,3.04-6.97,1.38-2.5,2.95-5.34,4.38-9.81,2-6.22,1.7-11.63,1.44-16.4-.22-3.98-.42-7.74.86-11.06,1.3-3.36,1.06-6.28.83-9.11-.26-3.15-.5-6.12,1.28-9.5,3.15-6.02,2.53-12.31,1.79-16.52-.31-1.75-.31-2.91-.31-4.03,0-1.24,0-2.65-.44-5.02,0-.04,0-.08,0-.13.31-1.15,1.09-1.93,1.91-2.75,1.38-1.38,2.95-2.93,2.72-6.84-.2-3.41-1.08-10.4-1.09-10.46,0-.07.01-.15.06-.21,3.64-4.7,1.31-8.8,1.29-8.84-.06-.11-.05-.24.03-.33.08-.09.17-.18.27-.29.84-.88,2.25-2.35,2.13-5.52-.12-3.1-2.65-4.87-2.67-4.89-.07-.05-.11-.12-.12-.2,0-.08.02-.16.07-.22.02-.02,2.35-2.56,3.24-5.39.86-2.73-1.02-6.44-1.04-6.48-.05-.09-.04-.21.02-.29.2-.3,4.86-7.38,6.09-12.8.87-3.85,1.16-12.08,1.17-12.17,0-.08.04-.16.11-.21.07-.05.15-.07.22-.06.16.04,3.97,1.12,5.36,12.47.3,3.25-.14,5.64-1.46,7.76-2.38,3.83,2.55,8.75,7.77,13.96.93.93,1.88,1.88,2.8,2.83,3.1,3.21,6.86,5.49,10.57,6.42,5.1,1.27,9.65.02,13.53-3.72,12.85-12.4,7.01-25.18,6.75-25.72Z"/>
  <g>
    <path class="cls-1" d="m84.38,42.18c.96,1.12,1.18,1.52,1.18,1.52,0,0-1.81.6-2.77,1.86-.73.96-2.53,7.61-2.05,12.24.27,2.59,1.82,3.55,2.83,4.47,2.82,2.56-3.52,1.08-4.36,4.09-.78,2.77-2.31,10.36-1.81,13.8,7.63-2.54,18.4-5.08,24.1-4.14,6.93,1.14,36.06.02,36.84.02.78,0,42.77,14.56,45.34,14.42,1.87-.1,9.95,2.8,16.07,6.81.98-5.83,1.21-10.17-.42-11.22-3.27-2.1-4.43.4-3.72-3.32.58-3.04,1.69-1.03,4.2-1.3,2.51-.27,5.05-6.38,5.82-10.86,2.1-12.32-1.23-11.08-.96-14.14.16-1.76,2.25-1.33,3.48-3.32,1.82-2.94,2.05-7.73,2.46-10.83.54-4.01-3.53-6.91-7.11-8.88-5.99-3.29-19.99-9.48-19.99-9.48l-59.41-12.76s-24.72-2.42-28.7,4.35c-1.74,2.96-.09,3.16-3.16,3.58-3.53.48-4.21,2.05-5.17,4.84-.85,2.49-5.35,15.15-2.68,18.25Z"/>
    <path class="cls-3" d="m77.05,81.54c-.14-.04-.28-.09-.4-.17-.36-.22-.6-.59-.66-1-.57-3.92,1.16-11.91,1.85-14.38.6-2.15,2.8-2.77,4.24-3.12-1.03-.89-2.47-2.23-2.75-4.91-.5-4.83,1.26-11.85,2.34-13.25.49-.64,1.13-1.14,1.72-1.51-.02-.03-.05-.06-.07-.09-2.11-2.46-1.38-8.6,2.31-19.32l.11-.32c1.07-3.12,2.08-5.21,6.32-5.79.54-.07.84-.13,1.02-.17,0-.02.01-.05.02-.08.14-.52.36-1.39,1.1-2.64,4.32-7.33,27.44-5.3,30.06-5.04.05,0,.11.01.16.03l59.41,12.76c.09.02.19.05.28.09.57.25,14.13,6.25,20.1,9.53,2.12,1.17,8.58,4.72,7.84,10.31-.07.53-.14,1.1-.2,1.71-.35,3.11-.78,6.98-2.46,9.68-.79,1.27-1.83,1.81-2.59,2.2-.24.13-.61.31-.67.41h0s-.01.03-.02.09c-.05.56.08.81.39,1.41,1.09,2.1,1.94,4.66.55,12.84-.64,3.75-3.2,11.62-7.06,12.04-.96.1-1.75-.05-2.39-.21l-.46-.12c-.03.12-.07.27-.11.48-.05.28-.09.5-.12.67.26.03.56.08.91.16.78.19,1.53.53,2.3,1.02,2.07,1.32,2.36,4.87,1.06,12.65-.08.47-.39.87-.83,1.07-.44.19-.95.15-1.35-.11-4.62-3.03-10.61-5.53-13.91-6.36-.95-.24-1.27-.23-1.31-.22-.32.02-.78-.03-1.94-.32-5.13-1.28-20.72-6.49-32.1-10.3-5.63-1.88-10.51-3.52-11.52-3.79-.21,0-.62.02-1.2.04-19.57.63-31.59.61-35.74-.08-5.15-.85-15.47,1.44-23.42,4.08-.26.09-.53.1-.79.03ZM123.88,12.56c-9.22-.89-24.71-.68-27.26,3.66-.53.91-.68,1.47-.79,1.92-.46,1.77-1.39,2.07-3.4,2.35-2.69.37-3.11,1.23-4.02,3.9l-.11.32c-4.52,13.16-3.32,15.99-2.84,16.55.98,1.15,1.28,1.64,1.35,1.77.2.37.23.81.07,1.2-.15.39-.47.69-.87.83-.39.13-1.53.64-2.09,1.38-.48.74-2.22,6.83-1.77,11.23.17,1.68,1.02,2.4,1.91,3.17.16.14.32.27.46.4.39.36,1.44,1.31,1.12,2.54-.31,1.22-1.58,1.53-2.7,1.8-.98.24-2.19.53-2.37,1.18-.71,2.54-1.79,8.04-1.85,11.49,7.52-2.35,17.43-4.54,23-3.62,2.72.45,11.04.82,35.19.04.83-.03,1.33-.04,1.43-.04.18,0,.33.03.47.07.85.21,4.84,1.54,11.82,3.88,11.34,3.79,26.87,8.99,31.89,10.24.88.22,1.12.24,1.15.24.46-.03,1.16.07,2.1.31,3.09.77,8.38,2.91,12.93,5.59.93-6.62.08-7.56-.12-7.69-.85-.54-1.67-.73-2.33-.79-.24-.02-.48-.04-.72-.1-1.95-.49-1.56-2.53-1.3-3.89.18-.93.48-1.96,1.34-2.51.84-.54,1.73-.32,2.21-.2l.49.13c.48.12.91.19,1.4.14,1.15-.12,3.7-4.61,4.57-9.69,1.35-7.92.37-9.81-.28-11.05-.39-.74-.82-1.59-.7-2.97.16-1.7,1.4-2.34,2.22-2.76.59-.3,1.1-.57,1.48-1.17,1.34-2.16,1.73-5.67,2.05-8.5.07-.63.14-1.23.21-1.77.33-2.47-1.76-4.91-6.39-7.45-5.56-3.06-18.3-8.73-19.75-9.37l-59.19-12.72Z"/>
  </g>
  <path class="cls-3" d="m199.32,86.05c-3.27-2.1-4.43.4-3.72-3.32.58-3.04,1.69-1.03,4.2-1.3,2.51-.27,5.05-6.38,5.82-10.86,2.1-12.32-1.23-11.08-.96-14.14.16-1.76,2.25-1.33,3.48-3.32,1.82-2.94,2.05-7.73,2.46-10.83.54-4.01-3.53-6.91-7.11-8.88-5.99-3.29-19.99-9.48-19.99-9.48l-26.68-5.73-14.71,59.04c10.52,3.47,39.44,13.35,41.56,13.23,1.87-.1,9.95,2.8,16.07,6.81.98-5.83,1.21-10.17-.42-11.22Z"/>
  <path class="cls-3" d="m103.34,56.41c-.18-.05-.36-.13-.51-.24l-3.64-2.74c-1.83-1.38-2.71-3.89-2.26-6.41l2.52-13.92c.46-2.52,2.17-4.57,4.36-5.22l4.36-1.29c.47-.14.98-.02,1.35.3.37.33.54.82.45,1.31l-4.9,27.09c-.09.48-.42.89-.88,1.07-.28.11-.58.13-.86.06Zm3.43-26.45l-2.16.64c-1.16.34-2.11,1.55-2.37,3l-2.52,13.92c-.26,1.45.21,2.92,1.17,3.64l1.8,1.35,4.08-22.55Z"/>
  <g>
    <path class="cls-3" d="m180.26,74.34l4.97-.79c1.91-.3,3.54-1.82,4.12-3.84l4.09-14.15c.59-2.03.02-4.17-1.44-5.45l-3.79-3.31-7.95,27.54Z"/>
    <path class="cls-3" d="m179.91,75.71c-.27-.07-.53-.22-.72-.44-.32-.36-.43-.87-.3-1.33l7.95-27.54c.13-.47.5-.83.96-.97.47-.14.97-.03,1.33.29l3.79,3.31c1.87,1.64,2.61,4.35,1.87,6.91l-4.08,14.15c-.74,2.56-2.8,4.46-5.26,4.85l-4.97.78c-.19.03-.38.02-.56-.02Zm9.04-26.38l-6.71,23.26,2.77-.44c1.37-.22,2.54-1.33,2.98-2.84l4.08-14.15c.43-1.51.04-3.07-1.01-3.99l-2.11-1.84Z"/>
  </g>
  <path class="cls-3" d="m48.72,399.43c-3.58-.89-7.41-3.04-10.48-4.77-1.77-1-3.3-1.86-4.24-2.17-1.52-.5-3.92-.94-6.19-1.32-1.74-.3-3.54-.6-5.1-.99-2.49-.62-3.99-1.35-4.85-2.36-.52-.61-.94-.89-1.33-1.16-1.67-1.12-1.93-2.12-1.48-5.63.32-2.45,1.07-4.98,1.8-7.42.78-2.61,1.51-5.08,1.67-7.23.13-1.87-.05-3.04-.23-4.17-.22-1.41-.45-2.87.02-5.22.65-3.25,2.59-8.62,3.34-10.64-.86-1.11-2.2-3.3-1.47-5.46.61-1.8,2.34-3.59,3.36-4.53-.53-1.77-1.4-5.69-.33-9.99,1-4,5.08-8.57,7.78-11.6.65-.73,1.37-1.54,1.68-1.95-.06-.26-.19-.69-.3-1.04-.76-2.48-2.34-7.65-.65-14.42,1.33-5.35,4.14-10.63,7.57-14.27-.83-4.5-.69-11.29.38-16.89,1.37-7.17,3.67-11.76,8.09-16.06-1.27-6.2,4.36-17.88,5.53-20.21.14-2.17.82-9.3,4-11.54-.36-2.63.74-5.19,1.84-6.14.9-.79.94-.82-.27-2.56-1.02-1.47-2.41-3.49-2.52-6.64-.11-3.02,1.92-5.39,3.24-6.61-.7-1.19-1.5-3.12-.99-5.15.49-1.96,1.79-2.97,2.94-3.42,0-2.7.09-9.11,1.12-11.89.81-2.19,2.44-3.37,3.76-3.99-.95-1.95-1.78-5.55.22-11.18,1.72-4.87,3.22-12.24,3.18-15.13-3.62,1.53-8.22,4.19-10.6,5.67-5.74,3.57-9.84,5.06-14.62,5.32-.84.05-1.84-.07-2.96-.35-5.31-1.32-13.71-6.42-17.29-11.62-1.48-2.16-6.47-10.09-8.78-22.05-1.72-2.29-3.76-5.44-4.17-7.94-.36-2.24.43-5.38.92-7-2.92-2.37-3.68-5.81-4.02-7.36-1.05-4.77-1.16-11.24-.3-18.73,1.14-10.04,8.2-16.81,18.89-18.1,6.17-.75,11.73-.57,16.08.51,4.83,1.2,8.14,3.47,9.84,6.73,2.12,4.08,4.32,12.24,4.8,18.28.7-.52,1.53-.94,2.5-1.11,2.14-2.78,8.59-5.92,12.32-7.43,7.56-3.06,22.09-7.03,29.3-5.84,2.72.45,11.04.82,35.19.04.83-.03,1.33-.04,1.43-.04.18,0,.33.03.47.07.85.21,4.85,1.54,11.83,3.88,11.34,3.79,26.86,8.99,31.88,10.24.88.22,1.12.24,1.15.24.46-.03,1.16.07,2.1.31,4.72,1.18,15.74,5.87,20.43,11.52,2.3.71,4.65,1.47,6.69,2.61,3.92,2.18,6.31,5.6,7.11,10.16.65,3.71.88,3.92,1.97,4.96l.31.29c2.31,2.23,3.82,5.97,1.68,8.92-.02.03-.05.06-.07.09-.04.17-.09.72.21,1.93.19.74.55,1.73.93,2.77.92,2.53,1.96,5.36,1.76,7.64.04.05.08.09.13.15,1.13,1.33,3.77,4.44,5.28,9,1.8,5.44,1.48,9.34,1.25,10.78,2.01,3.59,2.25,6.96.72,10.07,1.13,3.03,4.67,15.36-7.39,26.99-4.27,4.12-9.49,5.55-15.12,4.15h0c-4.02-1-8.06-3.45-11.38-6.89-.91-.95-1.85-1.88-2.78-2.81-5.71-5.7-11.1-11.08-8.01-16.06,1.12-1.8,1.48-3.8,1.21-6.66-.59-4.81-1.59-7.56-2.45-9.11-.17,2.82-.5,6.83-1.05,9.25-1.11,4.86-4.65,10.72-5.9,12.7.6,1.41,1.62,4.4.8,7.01-.63,1.98-1.85,3.8-2.69,4.91.96,1.02,2.17,2.78,2.26,5.21.13,3.39-1.27,5.3-2.22,6.35.61,1.68,1.32,5.27-1.5,9.25.22,1.75.86,7.07,1.03,10.01.27,4.67-1.75,6.68-3.22,8.14-.62.62-1.13,1.12-1.38,1.71.4,2.3.4,3.71.41,4.96,0,1.15,0,2.14.29,3.74.78,4.46,1.43,11.13-1.96,17.61-1.54,2.95-1.33,5.56-1.09,8.58.23,2.88.5,6.13-.94,9.86-1.15,2.98-.96,6.4-.75,10.36.27,4.92.57,10.49-1.52,17.01-1.48,4.63-3.09,7.54-4.51,10.11-1.18,2.14-2.2,4-2.82,6.35.05.85.14,1.75.23,2.69.32,3.29.67,7.02-.07,11.61-.65,4.01-1.79,8.55-5.22,12.02-.22,2.38-.98,5-1.6,7.14-.22.77-.41,1.43-.55,1.97-.13.5-.27,1.46-.44,2.57-.52,3.41-1.4,9.12-3.48,13.86-2.32,5.28-4.43,9.67-4.97,10.79-.05,1.54-.34,8.22-1.33,11.45-.26.84-.09,2.38.09,4.02.45,4.09,1.06,9.68-2.98,14.88-.48.62-1.37.73-1.99.25-1.95-1.5-5.22-4.02-10.24-5.27-1.53-.38-3.13-.62-4.76-.71-3.6-.2-7.56.53-11.06,1.17-3.98.73-7.41,1.36-10,.71-1.96-.49-3.25-1.66-3.84-3.5-1.31-4.09.37-13.39,1.85-16.69-1.12-.51-2.91-1.63-2.57-4.73.22-2.05,1.07-3.99,1.89-5.86.93-2.12,1.8-4.12,1.51-5.76-.16-.89-.58-1.85-1.06-2.97-1.26-2.89-2.99-6.85-.69-12.32,3.01-7.18,4.12-10.92,3.19-15.43-.3-1.47-.63-2.67-.9-3.63-.6-2.15-1.05-3.79-.14-5.35-1.32-3.09-1.99-8.51-.74-13.51.75-3.01,2.3-8.37,4.48-11.5-.31-5.89,1.07-9.27,2.08-11.76.56-1.39.97-2.39.81-3.26-.6-3.2.26-4.63.9-5.68.48-.8.73-1.2.28-2.66-1.36-4.46-2.43-15.5-1.13-18.95.55-1.47.59-2.58.5-3.2-.85,1.05-2.2,3.73-2.89,5.65-.09.24.17.9.37,1.44.51,1.33,1.27,3.35-.23,5.43-1.29,1.78-2.91,3.45-3.81,4.34.48,1.49,1.13,4.25.1,6.08-.98,1.75-4.01,3.4-5.63,4.18.08,2.28-.06,7.82-3.03,11.05.17,2.36-.85,6.5-3.02,12.33-2.3,6.15-4.44,9.76-7.16,12.08-1.13.96-2.64,3.61-3.42,10.77-.38,3.5-3.02,8.28-4.95,11.77-.56,1.01-1.04,1.88-1.38,2.57-.7,1.4-.75,2.64-.8,4.08-.05,1.33-.11,2.84-.74,4.54-.66,1.78-2.42,3.16-4.12,4.5-1.75,1.37-3.56,2.79-3.54,4.17.04,3.25-1.7,6.45-2.92,7.42-.03.02-.06.04-.08.06-.11.67-.27,1.74-.42,2.79-.66,4.51-1.67,11.31-2.85,14.28-1.17,2.93-3.9,6.1-10.23,4.52Zm-15.36-10.08c.58.14,1.08.29,1.55.44,1.2.4,2.83,1.32,4.73,2.39,2.92,1.64,6.56,3.69,9.77,4.49,3.63.91,5.76.04,6.9-2.82,1.06-2.65,2.07-9.53,2.68-13.64q.63-4.28,1.25-4.7c.16-.11.35-.18.54-.22.58-.74,1.63-2.72,1.61-4.9-.04-2.79,2.44-4.73,4.62-6.44,1.39-1.09,2.83-2.22,3.21-3.25.47-1.27.52-2.44.56-3.67.06-1.54.12-3.29,1.1-5.24.37-.74.86-1.64,1.43-2.67,1.81-3.28,4.29-7.77,4.61-10.71.72-6.58,2.16-10.7,4.4-12.62,2.3-1.96,4.26-5.33,6.34-10.92,2.52-6.73,3.1-10.35,2.8-11.48-.13-.52.03-1.06.43-1.42,2.73-2.41,2.8-8.19,2.59-10.22-.06-.61.28-1.19.84-1.44,1.77-.78,4.64-2.39,5.2-3.39.49-.87-.06-3.24-.59-4.56-.22-.55-.07-1.18.36-1.58.02-.02,2.44-2.23,4.11-4.56.55-.77.4-1.4-.12-2.76-.39-1.02-.83-2.17-.39-3.4.27-.76,2.73-7.43,5.37-7.85,1.04-.17,2.04.36,2.57,1.37.73,1.39.64,3.69-.23,5.99-.96,2.55-.08,12.96,1.19,17.12.82,2.68.05,3.94-.57,4.96-.5.83-.94,1.55-.54,3.68.32,1.69-.28,3.15-.97,4.85-.99,2.43-2.22,5.46-1.84,11.02.02.35-.08.69-.29.96-1.48,1.93-3.05,5.9-4.29,10.89-1.27,5.08-.25,10.25.88,12.29.29.53.21,1.2-.2,1.65-.53.58-.51.97.18,3.48.28,1.01.62,2.26.95,3.82,1.17,5.68-.57,10.46-3.35,17.1-1.82,4.35-.55,7.27.68,10.09.54,1.23,1.04,2.39,1.26,3.61.44,2.48-.65,4.98-1.7,7.39-.73,1.68-1.49,3.42-1.67,5.03-.15,1.4.34,1.6,1.24,1.97.59.24,1.4.58,1.66,1.49.17.59.03,1.2-.41,1.8-.91,1.26-3.14,11.1-1.9,14.97.28.88.83,1.36,1.82,1.61,1.99.5,5.3-.11,8.81-.75,3.65-.67,7.79-1.43,11.73-1.21,1.81.1,3.59.36,5.29.79,4.63,1.15,7.96,3.3,10.1,4.88,2.44-3.97,1.98-8.21,1.6-11.68-.22-2.02-.41-3.76.01-5.16.99-3.22,1.21-10.93,1.22-11,0-.2.05-.4.14-.58.02-.05,2.4-4.91,5.06-10.96,1.93-4.39,2.77-9.87,3.27-13.14.19-1.23.34-2.2.49-2.83.15-.59.36-1.31.58-2.07.63-2.17,1.42-4.87,1.53-7.07.02-.37.18-.71.45-.96,3.12-2.92,4.14-6.92,4.77-10.8.69-4.23.35-7.77.05-10.89-.1-1.06-.2-2.05-.25-3.03,0-.14,0-.28.04-.42.7-2.81,1.83-4.86,3.14-7.24,1.36-2.46,2.89-5.25,4.3-9.61,1.93-6.02,1.64-11.31,1.39-15.99-.22-4.11-.44-7.98.93-11.53,1.21-3.12.99-5.79.76-8.61-.26-3.17-.52-6.45,1.4-10.12,2.99-5.71,2.39-11.75,1.68-15.8-.32-1.84-.33-3.05-.33-4.22,0-1.25,0-2.55-.42-4.81-.04-.21-.03-.42.02-.62.39-1.45,1.31-2.37,2.21-3.26,1.33-1.32,2.59-2.57,2.39-5.97-.2-3.38-1.07-10.32-1.08-10.39-.05-.37.06-.75.29-1.05,3.17-4.1,1.22-7.53,1.2-7.57-.31-.53-.24-1.2.17-1.66.09-.1.19-.2.3-.31.76-.8,1.92-2,1.82-4.7-.09-2.51-2.16-3.98-2.18-4-.34-.23-.56-.6-.61-1.01-.05-.41.09-.82.36-1.12.02-.02,2.18-2.41,2.99-4.95.6-1.9-.49-4.7-.97-5.62-.24-.46-.21-1.01.08-1.44.05-.07,4.73-7.12,5.93-12.42.84-3.7,1.14-11.87,1.14-11.95.01-.42.22-.82.55-1.08s.77-.35,1.18-.26c.81.2,4.79,1.77,6.22,13.47.33,3.52-.17,6.12-1.62,8.46-1.9,3.07,2.72,7.68,7.6,12.56.94.94,1.89,1.89,2.82,2.85,2.96,3.06,6.52,5.23,10.03,6.11,4.69,1.17,8.89.01,12.46-3.44,12.28-11.85,6.75-23.91,6.51-24.42-.2-.42-.18-.92.05-1.32,2.13-3.7.07-7.13-.61-8.25-.2-.33-.28-.76-.18-1.12,0-.03.9-3.84-1.08-9.79-1.34-4.04-3.73-6.86-4.75-8.06-.6-.71-.93-1.1-.86-1.78,0-.04.01-.09.02-.13.33-1.58-.71-4.45-1.55-6.75-.41-1.11-.79-2.16-1.01-3.04-.69-2.7-.16-3.94.39-4.5.97-1.5.03-3.68-1.44-5.1l-.29-.28c-1.55-1.47-2.03-2.1-2.81-6.53-.65-3.72-2.52-6.4-5.7-8.17-1.9-1.06-4.27-1.79-6.57-2.5-.28-.09-.52-.26-.7-.49-3.84-4.96-14.51-9.71-19.16-10.86-.95-.24-1.28-.23-1.31-.23-.32.02-.78-.03-1.94-.32-5.12-1.28-20.71-6.49-32.09-10.3-5.64-1.88-10.53-3.52-11.53-3.8-.21,0-.62.02-1.2.04-19.57.63-31.59.61-35.74-.08-6.38-1.05-20.23,2.62-27.77,5.67-5.93,2.4-10.63,5.44-11.3,6.77-.23.46-.7.76-1.22.78-2.2.08-3.48,2.88-3.49,2.91-.29.64-1,.98-1.67.79-.68-.19-1.12-.83-1.04-1.53.59-5.11-2.03-16.04-4.49-20.79-1.31-2.51-4-4.29-8-5.29-4.01-1-9.22-1.16-15.05-.45-9.43,1.14-15.41,6.83-16.41,15.6-1.03,9.07-.43,14.68.25,17.78.33,1.48,1,4.53,3.68,6.24.56.35.8,1.05.58,1.67-.42,1.19-1.44,4.7-1.13,6.61.25,1.56,1.65,4.09,3.83,6.95.13.18.22.38.27.6,2.17,11.6,6.97,19.23,8.39,21.3,3.13,4.55,10.83,9.28,15.64,10.48.84.21,1.57.3,2.12.27,4.31-.23,7.91-1.56,13.27-4.89,2.81-1.74,8.61-5.07,12.58-6.49.53-.19,1.12-.05,1.5.35,2.75,2.88-2.43,18.8-2.49,18.96-2.52,7.11.17,9.85.28,9.96.39.38.53.95.37,1.46-.17.51-.6.9-1.13.98-.1.02-2.63.45-3.51,2.81-.9,2.43-.98,9.48-.93,12,.01.78-.6,1.42-1.37,1.44-.2.01-1.31.16-1.66,1.57-.37,1.5.76,3.26,1.23,3.82.26.31.38.71.33,1.11-.05.4-.27.76-.61.98-.03.02-3.21,2.25-3.11,5.06.08,2.32,1.11,3.81,2.02,5.13,1.12,1.62,2.65,3.83-.21,6.31-.41.36-1.33,2.48-.72,4.34.12.38.08.79-.11,1.14s-.53.6-.92.68c-1.58.36-2.89,5.37-3.12,9.82-.01.2-.06.39-.15.57-1.98,3.89-6.8,14.91-5.26,19.15.19.54.05,1.14-.37,1.52-4.41,4.08-6.54,8.17-7.86,15.1-1.05,5.49-1.15,12.43-.25,16.5.11.48-.04.97-.38,1.32-2.56,2.55-5.84,7.43-7.36,13.5-1.5,6.01-.13,10.5.61,12.91.37,1.21.57,1.88.41,2.55-.16.65-.7,1.28-2.38,3.17-2.36,2.65-6.32,7.08-7.15,10.4-1.19,4.78.53,9.18.54,9.22.23.58.06,1.24-.42,1.63-.73.59-2.73,2.46-3.22,3.9-.34,1,.84,2.67,1.42,3.28.38.4.5.98.3,1.49-.03.07-2.76,7.23-3.5,10.97-.37,1.86-.21,2.9,0,4.23.19,1.23.41,2.63.26,4.82-.18,2.46-.96,5.07-1.78,7.83-.7,2.34-1.42,4.75-1.71,6.98-.27,2.05-.17,2.54-.12,2.66.03.03.22.16.36.26.45.3,1.13.76,1.91,1.67.3.35,1.13.89,3.38,1.45,1.46.36,3.21.66,4.9.95,1.73.3,3.51.6,5.06.99Z"/>
  <g>
    <path class="cls-3" d="m140.01,415.11c-2.62-2.02-7.6-5.83-15.79-6.27-10-.54-21.65,5.52-23.63-.63,0,0-3.67,9.23-2.61,11.25,1.06,2.02,4.55,6.79,9.37,13.25,4.82,6.47,13.83,10.38,20.74,12.34,6.52,1.85,10.42-.5,12.3-2.57,1.88-2.07,2.63-5.75,3.61-12.14.86-5.61-3.68-11.83-4-15.23Z"/>
    <path class="cls-3" d="m128.38,446.59h0c-.22-.06-.45-.12-.68-.18-5.64-1.6-15.94-5.41-21.49-12.86-5.21-6.98-8.43-11.42-9.49-13.44-1.18-2.26,1.09-8.76,2.55-12.43.22-.56.77-.91,1.37-.89.6.02,1.12.41,1.3.98.28.88.83,1.36,1.82,1.61h0c1.99.5,5.3-.11,8.81-.75,3.65-.67,7.79-1.43,11.73-1.21,1.81.1,3.59.36,5.29.79,5.6,1.39,9.3,4.25,11.29,5.78.31.24.51.6.55.99.1,1.04.78,2.64,1.5,4.33,1.38,3.26,3.1,7.31,2.5,11.25-.98,6.38-1.74,10.43-3.97,12.88-1.43,1.57-5.57,5.03-13.06,3.16Zm-27.39-35.41c-1.25,3.58-2.02,6.87-1.75,7.64,1.06,2.02,5.14,7.55,9.24,13.04,5.25,7.03,15.73,10.61,19.99,11.82.2.06.39.11.59.16,5.79,1.44,8.93-.83,10.28-2.32,1.55-1.7,2.26-4.89,3.26-11.4.48-3.14-1-6.63-2.3-9.71-.72-1.7-1.36-3.21-1.62-4.53-1.99-1.52-5.14-3.77-9.79-4.93-1.53-.38-3.13-.62-4.76-.71-3.6-.2-7.56.53-11.06,1.17-3.98.73-7.41,1.36-10,.71h0c-.81-.2-1.5-.52-2.08-.95Z"/>
  </g>
  <g>
    <path class="cls-3" d="m21.06,383.9c-1.89-.08-4.2,1.51-4.57.77-3.92,3.04-10.06,6.17-12.54,11.53-1.27,2.75-4.88,11.75-.29,15.58,4.61,3.85,17.42,9.55,27.79,7.85,10.37-1.71,22.15-10.78,23.52-13.37,1.85-3.52,2.66-11.89,2.66-11.89-8.66,9.73-24.46-9.99-36.57-10.48Z"/>
    <path class="cls-3" d="m18.53,420.19c-6.92-1.72-12.91-4.91-15.77-7.31-5.39-4.5-1.43-14.35-.09-17.26,2.06-4.48,6.29-7.39,10.01-9.95,1.06-.73,2.07-1.43,2.95-2.11.33-.26.77-.36,1.18-.26.11.02.21.06.31.11.22-.06.51-.16.75-.24.93-.32,2.09-.72,3.26-.67.99.04,2.04.2,3.13.47,4.34,1.08,8.9,3.85,13.31,6.53,4.21,2.55,8.18,4.96,11.71,5.84,3.19.79,5.44.21,7.31-1.88.41-.46,1.07-.6,1.63-.36.56.25.9.83.84,1.44-.03.35-.86,8.69-2.82,12.41-1.68,3.2-13.91,12.36-24.54,14.11-3.89.64-8.32.35-13.15-.85Zm-1.81-33.9c-.76.56-1.58,1.12-2.43,1.71-3.42,2.36-7.31,5.04-9.04,8.81-.8,1.74-4.61,10.6-.67,13.9,2.54,2.12,8.2,5.12,14.64,6.73,4.39,1.1,8.55,1.37,12.01.8,9.97-1.64,21.42-10.58,22.49-12.63.94-1.79,1.65-5.26,2.08-8.03-2.06,1.01-4.47,1.18-7.21.5-3.95-.98-8.1-3.5-12.49-6.17-4.23-2.57-8.61-5.22-12.52-6.2-.9-.22-1.76-.35-2.55-.39-.64-.03-1.52.28-2.22.52-.79.27-1.44.5-2.07.45Z"/>
  </g>
  <g>
    <path class="cls-1" d="m104.91,65.25l-5.36,10.66s6.37,24.61,33.85,29.31c27.49,4.71,42.23-11.51,42.23-11.51l.33-12.19-71.05-16.28Z"/>
    <path class="cls-3" d="m129.51,105.86s0,0,0,0c-25.02-6.24-31.28-29.36-31.34-29.59-.09-.33-.05-.69.11-.99l5.36-10.66c.29-.58.95-.89,1.58-.75l71.05,16.28c.65.15,1.12.75,1.1,1.42l-.33,12.19c0,.34-.14.66-.37.92-.62.69-15.59,16.73-43.52,11.95-1.23-.21-2.46-.47-3.65-.76Zm-28.45-29.81c1.03,3.26,7.76,21.73,29.13,27.06h0c1.12.28,2.27.52,3.44.72,24.14,4.13,38.22-8.39,40.59-10.7l.28-10.47-68.83-15.77-4.61,9.17Z"/>
  </g>
  <g>
    <path class="cls-1" d="m187.34,59.72c-6.41,25.73-28.51,39.27-51.84,33.45-23.34-5.82-36.5-28.14-30.09-53.87,6.41-25.73,27.27-42.68,51.28-36.69,23.34,5.82,37.06,31.39,30.65,57.11Z"/>
    <path class="cls-3" d="m135.16,94.55c-24.54-6.11-37.62-29.49-31.12-55.59,6.93-27.79,29.22-43.65,53-37.73,24.06,6,38.27,32.39,31.68,58.83-6.5,26.1-29.03,40.6-53.56,34.48ZM156.35,3.99c-22.19-5.53-43.04,9.47-49.57,35.66-6.11,24.5,6.11,46.43,29.05,52.15,22.94,5.72,44.02-7.92,50.12-32.42,6.21-24.93-7.07-49.77-29.61-55.39Z"/>
  </g>
  <g>
    <path class="cls-1" d="m17.8,73.86c-3.27-2.94-10.19-14.64-11.4-16.87-2.11-3.9-3.84-8.12-1.95-9.93,3.1-2.97,8.44,5.54,10.97,9.75,0,0-6.69-10.51-7.48-11.73-.79-1.22-.93-4.47,1.09-6.12,3.27-2.67,7.32,4.18,12.83,13.12,0,0-10.93-14.81-5.56-18.37,3.98-2.63,7.55,5.03,13.68,15.32,0,0-7.04-15.34-1.99-16.94,3.51-1.11,5,2.13,8.49,11.4,2.82,7.48,4.88,13.26,4.88,13.26,0,0,4.19-8.58,7.61-5.32,3.43,3.27-.84,11.76-1.62,15.27-.71,3.22-3.76,7.35-10.7,10.39-6.48,2.84-12.36,2.61-18.86-3.24Z"/>
    <path class="cls-3" d="m25.49,79.84c-2.94-.73-5.76-2.34-8.63-4.92-3.65-3.28-10.86-15.7-11.7-17.25-2.2-4.06-4.37-9.06-1.69-11.63.8-.77,1.81-1.11,2.89-.98-.76-2.03-.51-5.33,1.78-7.19,1.56-1.27,3.5-1.15,5.34.22-.33-2.58.36-4.44,2.05-5.56,1.07-.71,2.2-.92,3.35-.64,2.08.52,3.92,2.6,6.05,5.87-.26-1.9-.22-3.65.34-4.91.47-1.05,1.26-1.78,2.3-2.11.97-.31,1.85-.36,2.68-.15,3.05.76,4.69,4.78,7.57,12.4,1.61,4.27,2.98,8.01,3.86,10.42,1.5-2.19,3.85-4.7,6.49-4.04.65.16,1.26.51,1.8,1.03,3.28,3.13,1.22,9.19-.28,13.61-.41,1.21-.76,2.25-.93,2.99-.47,2.11-2.52,7.44-11.52,11.39-4.27,1.87-8.12,2.35-11.75,1.44ZM6.16,47.9c-.32-.08-.5-.03-.73.19-.44.42-1.11,2.07,2.22,8.23,1.16,2.15,8,13.7,11.1,16.49,2.52,2.26,4.95,3.66,7.42,4.28,3.04.76,6.19.35,9.92-1.29,5.42-2.37,9.11-5.89,9.89-9.4.2-.9.58-2.01,1.01-3.29,1.19-3.49,2.98-8.77,1.01-10.65-.19-.18-.36-.29-.53-.33-1.19-.3-3.5,2.52-4.83,5.24-.25.51-.78.82-1.35.79-.57-.03-1.06-.4-1.26-.94-.02-.06-2.09-5.85-4.88-13.23-2.33-6.17-3.97-10.25-5.6-10.65-.31-.08-.68-.04-1.14.1-.19.06-.39.17-.56.55-1.15,2.58,1.49,10.23,3.42,14.44.31.69.04,1.5-.63,1.85-.67.35-1.49.12-1.88-.53-.85-1.42-1.65-2.8-2.41-4.1-3.27-5.63-6.1-10.49-8.17-11.01-.26-.07-.6-.09-1.1.25-1.58,1.04-.91,4.69,1.79,9.75,1.15,1.75,2.38,3.74,3.67,5.84l.52.85c.4.65.22,1.49-.41,1.92-.63.43-1.48.28-1.94-.33-.09-.13-2.31-3.14-4.29-6.83-.99-1.5-3.84-5.82-5.65-6.27-.27-.07-.51-.05-.86.23-1.4,1.14-1.24,3.57-.8,4.25.46.71,2.88,4.51,4.84,7.58,1.03,1.49,1.97,3.03,2.67,4.19.4.67.19,1.53-.47,1.94-.66.41-1.53.21-1.94-.45l-2.65-4.16c-3.01-4.37-4.68-5.33-5.41-5.51Z"/>
  </g>
  <g>
    <path class="cls-1" d="m184.3,183.92c-4.42,2.02-5.54,4.38-4.49,7.17.77,2.05,4.78,1.19,4.78,1.19,0,0-4.28,1.82-2.82,5.28,1.21,2.87,5.14,1.13,5.14,1.13,0,0-3.52,2.78-1.9,5.51,1.68,2.82,5.51.76,5.51.76,0,0-2.64,2.13.32,5.44,1.17,1.31,5.51.01,9.03-.67,4.8-.94,10.41-2.26,12.81-5.56,2.23-3.07,5.55-5.22,5.43-10.17-.03-1.28-.77-9.15-6.2-13.45-3.64-2.89-10.42-3.9-12.38-3.61-3.61.53-10.26.34-12.62,1.25-2.97,1.14-4.03,3.05-3.29,4.49s.67,1.26.67,1.26Z"/>
    <path class="cls-3" d="m191.33,212.22c-.65-.16-1.17-.46-1.55-.88-1.24-1.39-1.83-2.82-1.76-4.25-.5.03-1.02,0-1.54-.14-1.14-.28-2.07-.99-2.7-2.03-.9-1.51-.75-3.04-.16-4.35-.14-.02-.29-.05-.43-.09-1.28-.32-2.23-1.14-2.75-2.37-.75-1.79-.42-3.31.35-4.49-1.45-.44-2.06-1.34-2.32-2.03-1.26-3.35.05-6.13,3.89-8.28-.46-.89-.51-1.92-.14-2.9.57-1.49,2.05-2.75,4.18-3.57,1.63-.62,4.59-.77,7.73-.93,1.87-.09,3.81-.19,5.19-.39,1.33-.2,3.86.08,6.3.69,2.07.52,5,1.49,7.17,3.22,6.44,5.1,6.74,14.43,6.74,14.53.1,4.3-2.09,6.81-4.03,9.01-.6.69-1.17,1.33-1.68,2.03-2.69,3.71-8.48,5.1-13.68,6.12-.64.12-1.3.27-1.97.41-2.65.58-5.15,1.12-6.85.7Zm.57-2.79s.06.02.12.03c1.05.26,3.55-.28,5.56-.72.69-.15,1.37-.3,2.03-.43,5.02-.98,9.94-2.26,11.93-5,.58-.8,1.22-1.53,1.84-2.23,1.83-2.08,3.4-3.88,3.32-7.07,0-.08-.34-8.15-5.67-12.37-1.39-1.1-3.55-2.05-6.09-2.69-2.57-.64-4.55-.73-5.2-.64-1.51.22-3.52.32-5.46.42-2.65.13-5.65.28-6.86.75-1.97.75-2.45,1.67-2.55,1.93-.11.29-.05.48,0,.59.37.71.52.99.57,1.09.07.1.13.2.17.32.18.49.08,1.06-.27,1.45-.16.18-.37.32-.6.4-4.79,2.23-4.01,4.32-3.63,5.32.07.19.4.29.6.34.9.22,2.18.04,2.56-.04.72-.15,1.43.26,1.65.96.22.7-.12,1.45-.8,1.73-.3.13-2.94,1.35-2.07,3.42.17.41.42.62.82.72.89.22,2.15-.21,2.44-.34.65-.29,1.42-.05,1.79.56.37.61.23,1.4-.33,1.85-.02.02-2.51,2.08-1.56,3.67.24.4.54.63.95.73.98.24,2.29-.29,2.68-.5.64-.35,1.45-.15,1.85.46.41.61.28,1.43-.29,1.89,0,0-.51.45-.55,1.17-.05.81.53,1.65,1.03,2.21,0,0,0,0,0,0Z"/>
  </g>
  <path class="cls-3" d="m60.81,140.11l-2.19-1.8c3.42-4.18,4.54-17.36,2.87-24.16-1.02-4.16-2.13-6.61-3.2-8.98-1.4-3.1-2.73-6.02-3.5-12.01l2.81-.37c.72,5.57,1.9,8.18,3.27,11.21,1.07,2.37,2.29,5.06,3.37,9.47,1.87,7.61.63,21.68-3.43,26.63Z"/>
  <g>
    <path class="cls-3" d="m45.41,70.72c-2.89,3.73-4.7,4.6-8.74,6.38-6.48,2.84-12.36,2.61-18.86-3.24-.35-.32-.75-.74-1.17-1.24-1.33,2.67-1.35,4.7-1.35,4.7,0,0,4.57,8.88,16.19,7.03,11.62-1.85,16.16-7.4,16.19-10.23.03-2.83-2.25-3.4-2.25-3.4Z"/>
    <path class="cls-3" d="m24.08,85.51h0c-7.01-1.75-9.94-7.31-10.06-7.54-.11-.21-.16-.43-.16-.66,0-.1.04-2.39,1.5-5.31.21-.43.62-.72,1.1-.78.47-.06.94.12,1.25.49.41.47.76.85,1.04,1.1,2.52,2.26,4.95,3.66,7.42,4.28,3.04.76,6.19.35,9.92-1.29,4.03-1.77,5.56-2.55,8.19-5.94.34-.44.92-.64,1.46-.51,1.17.29,3.36,1.67,3.33,4.79-.04,3.43-4.79,9.61-17.38,11.62-2.69.43-5.25.35-7.61-.24Zm-7.35-8.53c.67,1.07,3.19,4.56,8.04,5.77h0c1.99.5,4.17.56,6.48.19,11.39-1.81,14.97-7.12,14.99-8.84,0-.76-.23-1.25-.49-1.55-2.66,3.17-4.66,4.14-8.51,5.84-4.27,1.87-8.12,2.35-11.75,1.44-2.84-.71-5.58-2.24-8.36-4.68-.25.81-.36,1.45-.4,1.83Z"/>
  </g>
  <path class="cls-3" d="m185.25,45.18c-3.51-12.47-15.21-23.43-30.97-27.36-15.76-3.93-31.23.26-40.19,9.63-1.82,3.74-3.3,7.77-4.37,12.06-1.4,5.6-1.97,11.16-1.81,16.5,4.05,11.78,15.39,21.95,30.45,25.7,15.06,3.75,29.85.1,38.95-8.4,2.64-4.64,4.74-9.82,6.14-15.42,1.07-4.28,1.65-8.54,1.8-12.7Z"/>
  <path class="cls-2" d="m153.7,20.12c-14.62-3.64-28.98.24-37.28,8.93-1.69,3.47-3.06,7.21-4.05,11.19-1.29,5.2-1.83,10.36-1.68,15.3,3.75,10.93,14.28,20.36,28.25,23.84,13.97,3.48,27.69.09,36.14-7.8,2.45-4.3,4.4-9.11,5.7-14.3.99-3.97,1.53-7.93,1.67-11.78-3.26-11.57-14.11-21.74-28.73-25.39Z"/>
  <path class="cls-3" d="m89.67,48.54c-1.9-1.07-4.26-1.7-4.26-1.7,0,0-1.11,1.91-1.42,3.53-.31,1.62-.64,6.91-.33,7.78.66,1.84,4.33,4.72,6.42,5.93-1.54-3.39-3.81-4.89-3.32-9.31.5-4.42.56-5.63,2.9-6.23Z"/>
  <path class="cls-3" d="m14.72,105.9s.15.11.41.31c.13.1.28.22.46.35.17.12.36.25.56.4.2.15.46.3.72.46.26.17.54.32.83.49.59.33,1.24.66,1.9.97,1.32.62,2.71,1.14,3.76,1.5,1.05.36,1.78.54,1.78.54,0,0-.75,0-1.87-.11-1.12-.1-2.62-.28-4.11-.58-.75-.15-1.49-.32-2.19-.52-.35-.1-.69-.19-1-.3-.32-.11-.62-.19-.9-.31-.29-.11-.55-.22-.78-.31-.21-.09-.39-.17-.55-.24-.3-.13-.47-.21-.47-.21l1.45-2.44Z"/>
  <path class="cls-3" d="m17.84,120.95s.16.18.45.48c.14.15.32.35.51.54.19.2.41.42.65.66.5.49,1.1,1.05,1.76,1.64.66.59,1.38,1.21,2.11,1.82,1.46,1.22,2.97,2.39,4.11,3.25,1.14.86,1.93,1.42,1.93,1.42,0,0-.87-.4-2.16-1.04-1.29-.64-3-1.52-4.68-2.46-.84-.47-1.68-.96-2.46-1.43-.78-.47-1.5-.94-2.11-1.34-.31-.21-.59-.41-.85-.59-.26-.18-.45-.33-.62-.45-.34-.25-.53-.39-.53-.39l1.89-2.12Z"/>
  <path class="cls-3" d="m181.89,188.96l11.22-2.4s-1.62,1.72-6.01,2.82c-3.3.83-5.23,1.04-5.21-.42Z"/>
  <path class="cls-3" d="m183.73,196.25l11.14-4.3s-1.7,2.58-6.02,3.95c-3.24,1.03-5.05,1.8-5.12.35Z"/>
  <path class="cls-3" d="m186.94,202.57s2.5-.52,5.08-1.68c2.58-1.16,5.85-3.12,5.85-3.12,0,0-1.46,3.07-5.71,4.65-3.19,1.18-5.08,1.6-5.22.15Z"/>
  <path class="cls-3" d="m191.99,207.94s2.5-.52,5.08-1.68c2.58-1.16,4.66-2.9,4.66-2.9,0,0-2.27,3.24-3.63,4.21-1.26.9-6.02,2.25-6.11.37Z"/>
  <path class="cls-3" d="m188.39,53.17l.34-13.23s-1.39-8.52-7.03-15.9c-5.64-7.38-10.84-12.82-22.23-17.31,3.19,2.45,4.12,4.87,1.64,5.74-2.8.98-6.51-.44-11.29-1.06-10.42-1.36-24.87,1.23-34.13,11.5,6.83-6,22.95-11.94,36.81-8.48,13.86,3.45,23.25,10,29.58,22.51-.14,1.77,1.57,8.71,1.57,8.71,0,0,.74,7.97.69,7.98-1.22.08-3.34,8.59-3.34,8.59l-3.35,7.53-1.61,3.63-11.61,7.47-4.82,1.66s-10.52,3.91-23.09.78c-4.2-1.05-8.36-2.6-12.33-4.84,0,.02-.01.03-.02.05.24.19,1.35,1,.96,2.37-1.24,4.28-10.65-5.65-13.26-8.93,2.98,6.48,8.34,11.53,13.01,14.61,12.84,8.47,26.53,7.22,26.53,7.22l15.47-4.44,7.13-5.38,6.58-7.31,4.78-10.21,3-13.25Z"/>
  <path class="cls-3" d="m118.87,18.13s.13-.2.37-.54c.12-.17.27-.37.46-.6.18-.23.39-.48.64-.74.48-.54,1.08-1.12,1.75-1.7.34-.28.69-.59,1.07-.87.37-.28.76-.57,1.15-.84.79-.53,1.6-1.03,2.4-1.44.79-.42,1.56-.76,2.23-1.01.67-.25,1.25-.42,1.65-.51.41-.09.64-.13.64-.13,0,0-.8.49-2.01,1.23-.59.38-1.28.81-2.01,1.29-.37.23-.73.5-1.12.74-.38.26-.77.51-1.15.78-.78.51-1.52,1.06-2.24,1.56-.71.51-1.37.99-1.93,1.4-.57.42-1.04.77-1.37,1.01-.33.25-.53.38-.53.38Z"/>
  <path class="cls-3" d="m145.43,4.9s.12-.06.34-.14c.21-.08.52-.18.91-.26.76-.17,1.78-.25,2.8-.2,1.02.05,2.02.23,2.76.46.74.21,1.21.47,1.21.47,0,0-.52.12-1.28.17-.76.07-1.76.07-2.74.02-.99-.05-1.97-.15-2.72-.28-.37-.05-.69-.12-.91-.17-.22-.05-.35-.09-.35-.09Z"/>
  <path class="cls-1" d="m182.19,44.86c.09,2.25,0,4.52-.26,6.77-.12,1.13-.29,2.25-.5,3.37-.1.56-.21,1.11-.33,1.68-.12.55-.25,1.1-.39,1.65-.28,1.1-.6,2.2-.94,3.28-.34,1.09-.74,2.15-1.17,3.21-.43,1.06-.88,2.1-1.37,3.13-.5,1.03-1.03,2.04-1.6,3.03-.04.07-.09.13-.15.19h-.01c-2.34,2.18-5.05,3.92-7.94,5.23-2.89,1.32-5.94,2.23-9.05,2.78-3.11.55-6.27.72-9.41.59-3.14-.14-6.26-.57-9.31-1.3-1.52-.36-3.02-.79-4.51-1.29-1.48-.5-2.95-1.06-4.38-1.69-2.86-1.26-5.6-2.8-8.15-4.62-2.53-1.83-4.85-3.95-6.87-6.33-2.01-2.38-3.69-5.04-4.89-7.89,1.38,2.77,3.17,5.31,5.24,7.58,2.08,2.26,4.46,4.23,7.01,5.93,2.54,1.71,5.26,3.15,8.09,4.31,1.41.58,2.86,1.09,4.32,1.54,1.45.44,2.94.83,4.44,1.14,2.99.62,6.02,1.02,9.07,1.1,3.04.08,6.09-.14,9.07-.68,2.98-.54,5.9-1.42,8.63-2.69,2.74-1.27,5.28-2.92,7.52-4.92l-.16.2c.56-.96,1.08-1.93,1.58-2.92.51-.98.98-1.99,1.43-3,.45-1.01.85-2.05,1.25-3.09.39-1.04.75-2.09,1.08-3.15l.48-1.61c.15-.53.3-1.07.44-1.61.28-1.08.52-2.17.75-3.26.23-1.1.41-2.2.58-3.31.16-1.11.31-2.22.42-3.35Z"/>
  <path class="cls-3" d="m175.88,84.17l.06-2.35-9.91,9.13c-3.52,2.33-15.79,9.62-30.84,5.86,5.28,2.21,12.36,2.46,15.38,2.46-4.16,1.04-8.49,1.32-12.76.72,4.28,1.38,8.77,1.87,13.24,1.54-4.49,1.21-9.17,1.31-13.78.65,4.78,1.57,9.78,2.27,14.77,1.74v1.43s8.69-2.17,8.69-2.17l9.23-4.14,5.4-5.04.53-9.82Z"/>
  <path class="cls-1" d="m129.2,83.34c-.11.43-.66.67-1.23.53-.57-.14-.94-.61-.84-1.04.11-.43.66-.67,1.23-.53.57.14.94.61.84,1.04Z"/>
  <path class="cls-1" d="m175.71,81.57c.84-1.08,1.65-2.18,2.41-3.3.76-1.13,1.48-2.27,2.15-3.45.06-.1.16-.17.26-.19h.03s2.24-.44,2.24-.44c.76-.14,1.47-.27,2.08-.55,1.26-.55,2.3-1.57,2.93-2.78.16-.3.29-.62.41-.94l.15-.5.15-.55.6-2.2c.39-1.47.8-2.93,1.22-4.39l1.24-4.39.64-2.19.08-.27.03-.11.04-.14c.05-.19.1-.37.12-.51.06-.3.09-.66.11-.99.03-1.34-.37-2.69-1.18-3.74-.2-.27-.43-.5-.67-.73l-.85-.76-1.69-1.53-.02-.02c-.15-.14-.23-.33-.22-.52.03-1.45,0-2.91-.09-4.37-.1-1.45-.22-2.91-.43-4.36-.11-.72-.21-1.45-.34-2.17-.13-.72-.27-1.44-.42-2.16-.15-.72-.32-1.43-.5-2.15-.18-.71-.37-1.43-.57-2.14.29.68.58,1.36.85,2.05.26.69.5,1.39.74,2.1.44,1.41.84,2.85,1.15,4.31.31,1.46.57,2.93.73,4.41.17,1.48.28,2.97.32,4.47l-.25-.54,1.74,1.47.87.74c.32.28.63.58.89.92.54.67.97,1.43,1.22,2.24.26.81.39,1.66.38,2.51-.01.43-.04.83-.13,1.28-.04.23-.08.42-.13.6l-.08.3-.08.27-.62,2.19-1.29,4.37c-.42,1.46-.86,2.92-1.31,4.37l-.67,2.18-.17.55-.2.59c-.15.39-.33.77-.54,1.13-.84,1.44-2.16,2.6-3.72,3.19-.8.31-1.62.37-2.36.46l-2.26.28.3-.2c-.78,1.14-1.61,2.24-2.49,3.29-.88,1.05-1.82,2.06-2.8,3.01Z"/>
  <path class="cls-1" d="m189.66,46.53s-.03.26-.09.71c-.06.45-.15,1.11-.27,1.89-.24,1.56-.62,3.63-1.12,5.67-.49,2.04-1.11,4.05-1.62,5.53-.26.74-.48,1.35-.65,1.78-.16.43-.26.67-.26.67,0,0,.29-1,.65-2.52.36-1.52.76-3.56,1.04-5.61.28-2.05.45-4.11.53-5.66.04-.78.06-1.41.07-1.87.01-.46.02-.72.02-.72l1.7.13Z"/>
  <path class="cls-1" d="m180.22,74.9s.2-.34.49-.85c.29-.51.68-1.19,1.05-1.89.73-1.39,1.35-2.84,1.35-2.84,0,0-.35,1.54-.83,3.06-.24.76-.5,1.51-.7,2.07-.2.56-.33.93-.33.93l-1.03-.48Z"/>
  <path class="cls-1" d="m184.76,58.98s-.06.25-.16.72c-.12.46-.24,1.16-.48,2.02-.24.86-.53,1.92-.93,3.1-.18.6-.42,1.22-.66,1.88-.13.33-.25.66-.39,1.01-.15.34-.3.68-.45,1.04-.6,1.42-1.36,2.92-2.23,4.46-.9,1.52-1.89,3.12-3.09,4.64-1.18,1.54-2.5,3.06-3.99,4.45-1.48,1.4-3.08,2.73-4.81,3.88-1.73,1.15-3.54,2.17-5.41,3-1.87.83-3.78,1.46-5.66,1.95-1.89.46-3.74.78-5.51.93-.88.09-1.75.12-2.58.16-.83-.01-1.64.02-2.41-.03-1.54-.06-2.95-.21-4.19-.39-.62-.1-1.2-.19-1.73-.28-.53-.11-1.01-.21-1.45-.3-.88-.17-1.55-.4-2.02-.51-.46-.12-.71-.19-.71-.19,0,0,.25.05.72.13.47.08,1.16.23,2.04.35.44.06.93.13,1.46.21.53.06,1.11.11,1.73.17,1.23.1,2.63.17,4.15.16.76.02,1.55-.05,2.37-.08.81-.07,1.66-.12,2.52-.24,1.72-.21,3.52-.59,5.34-1.06,1.82-.51,3.65-1.18,5.46-1.99,1.8-.82,3.55-1.82,5.22-2.94,1.68-1.1,3.24-2.38,4.69-3.74.73-.67,1.4-1.39,2.08-2.08.64-.73,1.3-1.43,1.87-2.19,1.19-1.47,2.22-2.99,3.15-4.46.44-.75.89-1.46,1.27-2.19.4-.72.77-1.41,1.09-2.1.17-.34.33-.68.49-1,.15-.33.29-.66.43-.98.29-.63.55-1.24.77-1.82.47-1.15.82-2.17,1.11-3.01.29-.84.49-1.52.64-1.97.14-.46.22-.7.22-.7Z"/>
  <path class="cls-1" d="m192.07,29.68s.44.12,1.2.35c.75.24,1.83.63,3.07,1.19.62.28,1.29.59,1.98.96.7.35,1.42.75,2.15,1.19.73.43,1.49.89,2.22,1.4.74.5,1.49,1.01,2.22,1.57.73.55,1.44,1.13,2.12,1.75.17.15.34.33.5.5.08.08.17.19.26.3l.07.08.03.04.02.02.04.05.08.14c.1.16.27.49.34.69.1.22.17.44.24.66.27.87.38,1.72.46,2.51.08.8.06,1.55.05,2.24-.06,1.38-.25,2.51-.42,3.28-.07.39-.17.69-.22.9-.06.2-.09.31-.09.31,0,0,0-.45-.01-1.24,0-.39-.03-.87-.05-1.41-.02-.54-.09-1.15-.15-1.81-.07-.66-.19-1.36-.33-2.09-.15-.73-.36-1.49-.63-2.21-.07-.18-.14-.36-.23-.52-.1-.2-.13-.25-.26-.45l-.09-.13s.02.03.02.03h0s-.01-.02-.01-.02l-.02-.02-.04-.04c-.05-.06-.1-.11-.18-.18-.15-.13-.29-.26-.46-.4-.64-.55-1.35-1.09-2.05-1.62-1.41-1.08-2.87-2.09-4.23-3.05-.69-.47-1.36-.92-1.99-1.36-.64-.42-1.24-.83-1.8-1.2-.56-.36-1.08-.7-1.54-.99-.46-.29-.87-.55-1.2-.76-.68-.41-1.06-.67-1.06-.67Z"/>
  <path class="cls-1" d="m196.77,55.49s.29.1.77.3c.48.2,1.16.48,1.96.87.4.19.83.4,1.28.66.23.12.45.27.69.42.24.14.47.3.7.49.24.18.47.36.69.59.23.22.46.44.64.71.2.26.4.52.55.82l.24.44c.07.15.12.3.18.45.12.31.23.61.29.92.07.31.16.62.19.92.09.61.14,1.2.14,1.77.02.57-.01,1.11-.05,1.63-.03.52-.1.99-.16,1.44-.11.89-.29,1.61-.41,2.12-.12.51-.22.79-.22.79,0,0-.06-.3-.12-.81-.03-.26-.07-.57-.1-.93-.04-.36-.08-.76-.12-1.19-.04-.44-.08-.91-.14-1.4-.05-.49-.09-1.01-.17-1.53-.04-.26-.06-.53-.11-.79-.05-.26-.1-.53-.15-.79-.04-.27-.14-.51-.2-.77-.05-.26-.16-.5-.25-.74-.05-.12-.08-.25-.14-.36l-.18-.34c-.06-.11-.11-.23-.18-.33l-.21-.31c-.13-.21-.3-.4-.47-.59-.15-.2-.35-.37-.53-.55-.17-.18-.37-.35-.56-.51-.19-.17-.38-.33-.57-.48-.39-.32-.75-.62-1.09-.89-.68-.56-1.24-1.05-1.62-1.41-.38-.36-.58-.58-.58-.58Z"/>
  <path class="cls-3" d="m184.08,190.96s.6-.14,1.5-.35c.88-.21,2.08-.52,3.25-.88,1.18-.35,2.35-.76,3.21-1.09.87-.33,1.43-.59,1.43-.59,0,0-.47.41-1.22.98-.75.57-1.77,1.3-2.83,1.99-1.06.69-2.13,1.35-2.97,1.82-.82.46-1.37.77-1.37.77l-1.02-2.65Z"/>
  <path class="cls-3" d="m183.56,182.8s.36.05.9.13c.53.07,1.25.16,1.98.23,1.45.14,2.93.21,2.93.21,0,0-1.34.63-2.72,1.19-.69.28-1.39.55-1.93.75-.53.19-.89.31-.89.31l-.27-2.82Z"/>
  <path class="cls-3" d="m186.28,197.42s.55-.18,1.37-.45c.82-.28,1.91-.69,3-1.11,2.18-.85,4.35-1.78,4.35-1.78,0,0-1.79,1.53-3.64,3.01-.92.74-1.86,1.47-2.59,2-.73.52-1.22.87-1.22.87l-1.26-2.54Z"/>
  <path class="cls-3" d="m189.95,203.65s.12-.03.34-.08c.1-.03.22-.06.35-.09.13-.04.26-.06.43-.12.67-.21,1.58-.56,2.49-.96,1.82-.79,3.59-1.74,3.59-1.74,0,0-1.33,1.51-2.8,2.92-.73.71-1.51,1.4-2.15,1.89-.15.12-.33.24-.47.34-.14.09-.25.18-.35.24-.18.12-.29.19-.29.19l-1.14-2.6Z"/>
  <path class="cls-3" d="m232.35,169.81c2.58-4.48.04-8.59-.64-9.73,0,0,1.05-4.1-1.1-10.59-1.87-5.64-5.58-8.94-5.55-9.23.6-2.83-1.89-7.72-2.58-10.43-.69-2.71.08-3.2.08-3.2,1.57-2.16.48-5.13-1.52-7.06-1.52-1.47-1.9-1.56-2.69-6.03-.49-2.8-1.86-6.63-6.41-9.16-2.01-1.12-4.4-1.86-6.84-2.62-4.87-6.28-19.1-11.78-21.66-11.64-.82.04-5.66-1.41-11.89-3.41h0s-17.01,14.93-17.01,14.93c0,0,1.02,3.72-8,4.21,18.15,3.96,11.99,10.6,24.58,12.62,6.06.97,9.63-.68,10.67-.76-1.04.96-4.02,3.17-9.95,3.99-7.67,1.06-12.79-3.53-18.53-3.88-4.89-.3-14.03,11.95-11.12,18.98,2.91,7.03-36.41,12.8-36.41,12.8,0,0,14.21,8.09,30.71,14.31,7.09,2.67,7.19,9.99,11.25,11.58,4.06,1.59,13.3.66,17.59-.16-6.87,3.71-18.27,4.59-18.27,4.59,0,0-.63,5.44,2.61,10.07,6.7,1.3,21.79-.72,21.79-.72,0,0-16.91,8.96-55.62,3.12,19.94,5.86,27.08,7.8,32.91,7.28,4.09-.37,3.54,4.95,2.78,8.54-.09.4,9.71,1.25,18.86.89-6.11,1.52-19.66,2.36-19.66,2.36l-6.25,1.32-1.08,7.23s13.22.4,19.83-.58c-5.56,2.42-19.05,4.88-43.09,2.88,9.77,3.6,18.2,4.67,26.2,4.76-.61,1.12-.96,2.21-1.12,3.24-.72,4.62-4.59,8.07-9.27,7.93-6.7-.2-14.58-1.49-27.26-4.65-20.22-5.04-25.16-8.65-25.16-8.65,0,0,8.29,7.21,24.47,11.45,16.18,4.24,29.86,8.04,40.44,8.45-3.67,3.26-19.36,1.19-28.65-1.59,6.45,2.61,10.39,4.99,10.39,4.99,0,0,4.76,4.99.4,6.43-4.36,1.45-10.14-1.67-10.14-1.67,0,0,4.28,5.17,21.88,7.69,10.58,1.52,19.14.52,19.14.52,0,0-7.74,4.24-33.54,2.11,14.8,4.48,20.43,5.19,20.43,5.19,0,0,4.41,7.72-.42,10.31-4.71,2.53-11.22,3.12-15.55,2.95,7.02,1.75,11.67,1.7,13.9,3.4,2.31,1.76,4,4.64,2.69,8.01-2.29,5.91-6-.07-4.47,8.85.7,4.13-1.28,9.66-6.64,10.62-6.11,1.1-13.27-.27-13.27-.27,0,0,5.28,2.3,14.89,3.4,1.72.2,9.56,1.33,18.27-3.1-7.29,7.32-14.7,5.94-14.64,6.96.2,3.28-.53,8.24-.91,10.62-.75,4.6-1.12,10.12-3.82,12.64-2.91,2.72-7.51,1.83-14.8.67,4.19,3.15,8.21,4.17,10.6,4.59,5.61.97,11.07.7,17.12-2.21-2.55,2.81-7,6.18-15.91,5.46-.27,3.03-1.33,8.15-1.62,9.35-1.08,4.8-4.31,12.37-.6,13.03-4.74,2.65-11.57,1.38-17.71.9,5.09,1.47,11.9,3.44,16.67,3.26-1.28,1.4.97,6.37-8.85,6.71,9.16,1.16,8.12,2.67,7.8,6-.79,8.16-7.51,9.16-14.24,8.15,3.77.94,5.82,1.94,13.19,2.17,3.75,1.06-.26,8.36-3.33,8.04,6.71.99,11.23,4.26,13.57,6.06,5.45-7.02,1.59-15,2.65-18.45,1.05-3.44,1.28-11.38,1.28-11.38,0,0,2.38-4.87,5.08-11.02,2.7-6.15,3.29-14,3.84-16.2.14-.55.33-1.21.54-1.94l-.57-.06c.65-2.25,1.56-5.26,1.69-7.75,3.46-3.23,4.55-7.64,5.2-11.61.95-5.85.03-10.36-.18-14.22,1.37-5.51,4.65-8.15,7.41-16.76,3.72-11.59-.46-20.33,2.29-27.44s-1.25-12.2,2.1-18.58c3.34-6.38,2.47-13.03,1.82-16.7s.07-4.55-.76-9.05c.79-2.97,5.01-3.34,4.64-9.67-.2-3.47-1.09-10.48-1.09-10.48,3.8-4.9,1.31-9.15,1.31-9.15.73-.82,4.4-4.2,4.26-7.88-.12-3.29-2.15-5.82-1.29-8.73,2.4-8.12,10.15-11.04,10.15-11.04,0,0,1.2.39,2.66.55-1.69.34-2.88.65-3.01.85,11.29-.71,14.64,5.92,15.1,14.22.16,2.86.82,11.09-8.93,17.44,4.94.3,11.57-.95,15.24-2.32,10.37-3.88,14.6-9.42,17.73-13.31,12.17-15.12,2.92-24.61,2.92-24.61Zm-19.24,12.04c-2.15-2.48-6.54-6.13-15.7-5.05.35-.26.64-.6.85-1.03,1.54-3.22,7.17-9.15-1.86-11.77-3.63-1.05-2.13-7.1-.03-10,1.66-2.27,5.12-5.42,9.6-5.4-3.02-.66-8.27-.48-13.17,2.79-2.78,1.85,1.64-4.12,4.31-8,1.73-2.52-8.94-2.83-7.29-3.64,2.57-1.27,7.09-2.95,12.98-1.41,1.35.35-1.81,5.6-.86,6.25,1.89,1.29,11.85,1.72,10.86,4.52-.51,1.44-10.97,2.6-13.95,8.99,7.12-5.35,15.65-3.58,19.29.59-4.95-1.15-10.81.61-13.07,3.39,6.84-3.53,12.16,2.84,12.6,6.69.84,7.37-3.46,14.35-4.56,13.08Z"/>
  <path class="cls-3" d="m112.65,286.34s.04.08.12.22c.08.13.2.38.34.59.15.2.27.44.53.73.22.3.52.61.85.94.18.16.36.33.55.5.2.16.41.33.63.5.45.33.94.66,1.48.97.54.31,1.11.61,1.72.89.6.28,1.23.53,1.87.77,2.57.93,5.3,1.5,7.37,1.8,2.07.31,3.47.37,3.47.37,0,0-1.4.12-3.5.08-2.11-.04-4.93-.25-7.73-.88-.7-.16-1.4-.34-2.07-.56-.68-.21-1.34-.46-1.98-.72-.64-.27-1.24-.57-1.8-.88-.28-.16-.55-.33-.81-.49-.26-.17-.5-.35-.73-.51-.46-.35-.87-.69-1.21-1.03-.35-.31-.64-.68-.88-.96-.23-.27-.34-.45-.45-.58-.1-.13-.15-.2-.15-.2l2.38-1.54Z"/>
  <path class="cls-3" d="m111.33,294.6s.08.11.23.31c.07.1.16.22.26.35.09.11.19.23.29.37.1.14.25.29.4.44.15.16.31.32.49.49.35.33.77.66,1.2.98.86.63,1.82,1.17,2.57,1.52.75.36,1.27.55,1.27.55,0,0-.56,0-1.4-.12-.84-.11-1.96-.32-3.07-.68-.55-.18-1.11-.38-1.62-.62-.26-.11-.5-.23-.73-.36-.23-.13-.45-.23-.66-.37-.21-.13-.4-.26-.56-.37-.14-.1-.26-.19-.36-.26l-.31-.22,2.01-2.01Z"/>
  <path class="cls-3" d="m103.67,372.24s.2.23.55.64c.09.1.19.23.28.33.1.09.2.18.32.29.23.21.46.45.83.71.34.26.7.56,1.13.82.42.28.86.58,1.35.84.48.28.98.57,1.51.83.52.28,1.07.54,1.61.8,1.09.52,2.21.99,3.27,1.42,1.06.42,2.06.8,2.93,1.1,1.73.61,2.91.96,2.91.96,0,0-1.21-.18-3.02-.53-.91-.18-1.96-.41-3.08-.67-1.12-.28-2.32-.59-3.51-.95-.59-.18-1.19-.37-1.77-.58-.58-.19-1.15-.41-1.7-.64-.55-.21-1.08-.46-1.57-.69-.5-.22-.96-.49-1.39-.73-.42-.22-.83-.51-1.19-.77-.18-.13-.35-.25-.5-.36-.15-.11-.24-.21-.35-.3-.4-.36-.63-.56-.63-.56l2.04-1.98Z"/>
  <polygon class="cls-3" points="103.33 389.9 113.61 393.52 102.75 392.67 103.33 389.9"/>
  <path class="cls-3" d="m108.57,310.69s.01.05.03.15c0,.05.02.11.04.19.01.08.03.16.05.2.03.11.05.25.14.45.07.2.17.42.31.66.13.24.3.5.5.77.2.27.43.55.69.82.52.55,1.15,1.11,1.82,1.62,1.35,1.03,2.86,1.91,4.02,2.5,1.16.6,1.98.93,1.98.93,0,0-3.46-.64-6.74-2.23-1.63-.78-3.21-1.85-4.21-3.02-.25-.29-.47-.58-.64-.85-.18-.26-.32-.55-.44-.8-.06-.13-.1-.21-.12-.28-.03-.07-.05-.13-.07-.18-.04-.1-.06-.15-.06-.15l2.72-.82Z"/>
  <path class="cls-3" d="m105.08,335.18s.08.14.23.39c.04.06.08.13.12.21.04.06.08.12.13.19.1.14.17.28.32.46.27.36.62.78,1.03,1.22.41.43.86.89,1.34,1.33,1.91,1.78,4.08,3.33,4.08,3.33,0,0-2.5-.91-4.9-2.16-.6-.31-1.2-.65-1.75-.99-.55-.34-1.06-.69-1.49-1.02-.21-.15-.43-.36-.61-.51-.09-.08-.17-.16-.25-.23-.06-.06-.12-.12-.17-.17-.21-.2-.33-.32-.33-.32l2.25-1.74Z"/>
  <path class="cls-3" d="m60.96,212.34s0-.03,0-.1c-.02.03-.04.07-.06.1h.06Z"/>
  <g>
    <polygon class="cls-3" points="153.43 119.22 156.22 124.95 130.75 122.89 112.18 115.89 116.31 112.61 153.43 119.22"/>
    <path class="cls-3" d="m130.41,124.27c-.05-.01-.11-.03-.16-.05l-18.57-7c-.48-.18-.82-.6-.9-1.11-.08-.5.12-1.01.52-1.33l4.13-3.28c.32-.25.73-.36,1.13-.29l37.12,6.61c.45.08.83.37,1.03.78l2.79,5.73c.22.46.18,1-.1,1.42-.29.42-.78.66-1.29.61l-25.47-2.06c-.08,0-.15-.02-.23-.04Zm-15.39-8.82l16.05,6.05,22.79,1.84-1.39-2.85-35.78-6.37-1.67,1.33Z"/>
  </g>
  <g>
    <path class="cls-1" d="m113.77,118.79h34.32c3.37,0,6.11,2.74,6.11,6.11v22.73c0,3.37-2.74,6.11-6.11,6.11h-34.32c-3.37,0-6.11-2.74-6.11-6.11v-22.73c0-3.37,2.74-6.11,6.11-6.11Z" transform="translate(29.18 -22.97) rotate(11.28)"/>
    <path class="cls-3" d="m107.62,150.86c-2.55-.64-4.15-3.15-3.63-5.73l5.46-27.4c.26-1.29,1-2.4,2.09-3.13,1.09-.73,2.4-.99,3.69-.73l38.77,7.73c2.68.53,4.39,3.13,3.86,5.79l-5.47,27.4c-.53,2.66-3.13,4.39-5.78,3.86l-38.77-7.73c-.08-.02-.15-.03-.23-.05Zm45.94-26.46l-.1-.02-38.77-7.73c-.55-.11-1.1,0-1.56.31-.46.31-.78.78-.89,1.32l-5.47,27.4c-.22,1.09.46,2.16,1.53,2.43l.1.02,38.77,7.73c1.12.22,2.22-.51,2.45-1.63l5.47-27.4c.22-1.09-.46-2.16-1.54-2.43Z"/>
  </g>
  <path class="cls-3" d="m62.15,88.12c4.82-.73,11.07,3.05,14.71,6.93-7.53-3.34-11.85-3.58-14.57-1.92,7.17.07,12.82,5.45,14.27,10.62-6.41-6.41-13.47-9.06-19.3-5.27-4.73,3.07-4.36-1.09-4.36-1.09l4.73-6.39,4.53-2.89Z"/>
  <path class="cls-3" d="m83.82,169.35c6.31,3.28,23.5,6.9,29.5,7.06-19.64-8.95-26.49-10.8-28.88-19.71-2.39-8.91-.77-14.69-.77-14.69,0,0,7.17-2.9,10.57-7.93-3.02.4-6.33,3.26-9.76,2.3,5.63-7.53,13.83-27.85,11.18-33.04-1.74,6.78-4.92,9.12-8.18,11.09.09-2.81-.26-6.34-2.22-8.41,1.78,4.58-1.62,9.09-3.57,11.56-.59.58-2.69,2.49-6.02,2.79-2.94.27-6.26.26-7.12-1.68.94-3.76.49-7.97-1.56-11.01.11,4.26.24,5.91-2.4,10.02-2.35-6.21-4.7-12.47-4.7-12.47l-3.09-10.8-.42-1.84c-.13.23-.19.38-.19.38.03-.29.06-.6.07-.92l-4.72-20.68c1.23,8.44-5.77,16.26-20.01,17.47,6.14,2.72,12.88.89,15.76-.41-3.11,3.98-9.15,7.09-19.24,8.87,4.8.67,11.75-.04,14.11-.77,2.5-.78,2.28,3.06,2.61,4.74.26,1.31,3.03.05,5.68-1.56-.12.93-1.34,2.84-6.24,4.91-3.82,1.61-9.75,3.32-17.06,1.82,7.49,2.84,15.85,1.62,15.85,1.62,0,0,4.3,7.08,1.37,10.83-1.24,1.59-7.71,3.33-15.64.72,6.51,3.52,21.08,5.82,24.65,1.4-4.89,6.06-13,5.32-13,5.32,0,0,5.33,2.4,5.26,6.5-.07,4.1.61,10.58-8.51,10.84-10.47.29-14.23-6.75-16.83-12.35-.45-.97-.68-.68-.76.46,2.05,5.73,4.47,9.9,5.97,12.08,3.91,5.68,14.42,11.61,19,11.36,4.59-.25,8.45-1.69,13.94-5.1,2.75-1.71,8.46-4.98,12.31-6.36,1.45,1.51-.97,12.33-2.8,17.5-2.92,8.24.65,11.47.65,11.47,0,0-3.44.51-4.63,3.72-1.19,3.21-1.02,12.52-1.02,12.52,0,0-2.36.07-3,2.64-.64,2.57,1.52,5.08,1.52,5.08,0,0-3.86,2.63-3.73,6.28.06,3.39,2.02,6.36,3.57,9.37,3.1,6.03,6.01,7.73,8.35,8.9-2.04-2.36-5.19-5.29-6.05-10.23-.66-3.74-.09-7.39,1.34-9.44,3.7-3.89,11.21,2.18,11.21,2.18l4-10.61s-7.68-3.67-5.02-11.34c1.8-5.2,2.34-15.74,8.65-12.46Z"/>
  <path class="cls-3" d="m84.77,61.57s.13.1.36.28c.24.19.52.41.91.69.78.57,1.87,1.3,2.98,2.02,2.21,1.43,4.51,2.77,4.51,2.77,0,0-2.62-.54-5.24-1.2-1.31-.33-2.62-.69-3.62-1.01-.25-.07-.49-.16-.7-.23-.2-.07-.38-.13-.52-.18-.28-.1-.43-.15-.43-.15l1.76-2.98Z"/>
  <path class="cls-3" d="m86.07,42.08s.1.12.26.32c.08.09.17.2.28.32.1.12.24.26.39.42.59.62,1.45,1.43,2.34,2.21.89.78,1.83,1.52,2.56,2.03.36.26.68.45.91.58.23.12.37.18.37.18,0,0-.15-.02-.41-.07-.26-.06-.63-.15-1.06-.3-.87-.28-2-.73-3.12-1.22-1.12-.49-2.22-1.04-3.04-1.5-.21-.12-.39-.22-.57-.33-.17-.11-.32-.2-.44-.28-.22-.14-.35-.23-.35-.23l1.89-2.12Z"/>
  <path class="cls-3" d="m93.36,17.44s.23,0,.64,0c.42,0,1.03.02,1.73.05,1.41.06,3.26.17,5.12.28,3.71.26,7.42.51,7.42.51,0,0-3.69.45-7.37.91-1.84.24-3.68.49-5.04.69-.69.1-1.23.19-1.62.26-.4.07-.63.11-.63.11l-.24-2.83Z"/>
  <path class="cls-3" d="m97.21,180.21s.55.1,1.5.31c.47.1,1.05.21,1.7.36.66.13,1.4.3,2.2.47,1.61.34,3.48.75,5.48,1.21,2,.46,4.13.95,6.26,1.44,2.13.5,4.25,1.01,6.25,1.48,1.99.48,3.86.93,5.45,1.34,1.6.41,2.94.74,3.87.98.94.24,1.47.4,1.47.4,0,0-.56.03-1.53.04-.49,0-1.08,0-1.75-.02-.68-.02-1.44-.04-2.27-.12-.83-.06-1.73-.13-2.67-.25-.95-.1-1.94-.24-2.96-.4-1.03-.15-2.08-.35-3.15-.55-1.07-.22-2.15-.44-3.23-.69-1.08-.26-2.15-.52-3.2-.81-1.05-.28-2.08-.59-3.07-.9-.99-.32-1.94-.63-2.84-.95-.9-.31-1.74-.65-2.51-.96-.77-.3-1.47-.62-2.09-.89-.62-.28-1.15-.55-1.58-.76-.86-.45-1.34-.74-1.34-.74Z"/>
  <path class="cls-3" d="m75.59,226.95s.53.33,1.42.94c.45.29.99.65,1.62,1.06.63.4,1.34.85,2.11,1.34.38.25.79.49,1.22.73.43.24.84.53,1.3.78.45.26.92.52,1.39.79.48.26.97.52,1.47.79,1,.52,2.04,1.07,3.11,1.57.54.26,1.08.51,1.62.77.55.25,1.1.5,1.65.74,1.1.5,2.22.96,3.32,1.42,1.11.43,2.19.91,3.26,1.3,1.06.41,2.08.83,3.07,1.18.98.36,1.91.73,2.77,1.03,1.73.64,3.17,1.17,4.17,1.55,1.01.38,1.58.63,1.58.63,0,0-.62-.05-1.69-.19-.54-.07-1.19-.15-1.93-.27-.74-.13-1.58-.28-2.49-.46-.91-.17-1.89-.4-2.92-.67-1.04-.25-2.12-.55-3.23-.9-1.12-.32-2.25-.74-3.4-1.15-1.15-.43-2.3-.9-3.44-1.4-.56-.26-1.13-.52-1.69-.79-.56-.26-1.1-.57-1.65-.84-.55-.27-1.08-.58-1.6-.88-.52-.31-1.04-.59-1.53-.91-.49-.32-.98-.62-1.44-.94-.46-.33-.9-.65-1.34-.96-.86-.63-1.66-1.26-2.36-1.87-.35-.31-.7-.59-1.01-.88-.31-.29-.6-.57-.87-.83-.55-.52-1-1.01-1.37-1.4-.37-.39-.64-.72-.84-.94-.19-.22-.29-.34-.29-.34Z"/>
  <path class="cls-3" d="m109.84,262.24c3.27-.79,9.16-4.19,10.05-5.7-1.5,5.42-8.82,9.38-8.82,9.38l-2.09-2.03.86-1.65Z"/>
  <path class="cls-3" d="m97.7,16.86c.49-1.96,7.95-3.31,9.05-3.44-2.03,1.54-1.62,3.72-1.62,3.72l-7.42-.28Z"/>
  <path class="cls-3" d="m97.92,20.82c-1.55.18-4.91.79-5.64.93-.73.15-2.11.68-3.17,3.78-1.06,3.1-2.52,8.62-2.93,10.98-.34,1.92-.07,2.82.2,3.8.27.98,3.93,4.33,4.49,4.7-1.15-3.16-2.18-3.36-1.45-7.16.73-3.8,3.18-12.18,4-13.44.81-1.26,1.82-2.22,4.5-3.59Z"/>
  <path class="cls-3" d="m80.32,78.64c.14-3.97.86-7.63,1.14-8.75.34-1.38.71-3.49,5.33-2.64l4.61.86s-4.96,1.18-5.62,2.03c-.66.86-1.9,4.83-1.68,7.44l-3.77,1.05Z"/>
  <path class="cls-3" d="m12.73,79.54c1.44,3.89,6.45,6.98,10.94,7.75-2.14.95-6.44.93-6.96,6.66-.29,3.16-.2,10.56,2.9,13.38-4.42-2.72-5.87-3.95-6.81-7.11-.69-2.35-1.18-13.53-.06-20.68Z"/>
  <path class="cls-3" d="m15.99,111.06c-1.14,2.83.8,7.17,5.29,11.46-1.03-2.13-3.03-5.56-1.62-7.4s4.6-2.58,4.6-2.58c0,0-6.4-.43-8.26-1.47Z"/>
  <path class="cls-3" d="m26.88,130.73c-2.18-.84-5.48-2.63-5.48-2.63,0,0,2.19,9.03,5.54,11.23-1.62-4.08-3.42-7.77-.05-8.59Z"/>
  <path class="cls-3" d="m66.84,87.59s5.99-3.31,10.39-4.35c-1.58.96-4.35,2.7-4.38,4.19-.02,1.24.42,2.15,2.03,4.26-3.81-2.87-8.05-4.11-8.05-4.11Z"/>
  <path class="cls-3" d="m86.33,80.92c4.26-1.81,11.07-2.16,11.07-2.16,0,0,2.82,6.67,5.93,10.64-4.71-3.68-6.71-6.19-8.73-7.2-1.11-.55-5.74-1.43-8.26-1.27Z"/>
  <path class="cls-3" d="m104.95,70.92l-2.52,5.23s2.15,6.83,6.02,11.45c-1.03-1.92-1.75-5.07-1.66-6.51.14-2.04.92-2.28,2.49-2.11-3.18-4.06-4.33-8.07-4.33-8.07Z"/>
  <path class="cls-1" d="m201.58,181.92s.06.05.18.15c.12.1.28.22.55.47.13.11.26.24.42.38.13.14.28.29.43.45.31.32.62.7.96,1.12.16.22.32.44.5.67.16.24.32.49.48.75.17.25.32.53.46.81.15.28.31.56.44.87.13.3.27.61.4.92.11.32.22.64.33.97.12.32.2.66.28.99.08.34.18.67.24,1.01.11.68.25,1.35.28,2.03.03.33.05.67.07.99,0,.33,0,.65,0,.97.02.63-.04,1.24-.1,1.82-.03.29-.05.57-.08.84-.04.27-.09.53-.13.77-.09.49-.15.95-.24,1.34-.1.39-.18.74-.25,1.02-.14.56-.22.88-.22.88,0,0,.04-.33.1-.91.03-.29.07-.64.11-1.03.04-.4.04-.85.06-1.35,0-.25.02-.5.03-.77-.01-.26-.02-.54-.03-.82-.02-.56-.04-1.15-.14-1.75-.04-.3-.08-.61-.12-.92-.06-.3-.13-.61-.2-.92-.11-.62-.33-1.23-.51-1.84-.09-.3-.23-.59-.34-.89-.12-.29-.23-.58-.38-.86-.14-.28-.28-.55-.41-.82-.16-.26-.31-.51-.46-.76-.14-.25-.32-.48-.48-.71-.16-.23-.32-.45-.49-.65-.17-.2-.33-.4-.5-.58-.17-.18-.34-.35-.5-.51-.33-.31-.63-.6-.92-.82-.14-.11-.28-.22-.4-.32-.12-.08-.23-.16-.33-.23-.18-.13-.4-.26-.53-.34-.13-.08-.2-.12-.2-.12l1.64-2.32Z"/>
  <path class="cls-3" d="m151.82,132.63l-4.17,18.83c-.26,1.19-1.43,1.95-2.62,1.72l-33.25-6.04,31.58,2.21c.87.02,1.68-.47,2.07-1.25l6.39-15.47Z"/>
  <path class="cls-3" d="m122.23,123.3c-3.25-.81-6.55,1.18-7.36,4.42-.81,3.25,1.18,6.55,4.42,7.36,3.25.81,6.55-1.18,7.36-4.42s-1.17-6.55-4.42-7.36Z"/>
  <g>
    <path class="cls-1" d="m124.73,128.73c-.65,2.6-3.29,4.19-5.89,3.54-2.6-.65-4.19-3.29-3.54-5.89.65-2.6,3.29-4.19,5.89-3.54,2.6.65,4.19,3.29,3.54,5.89Z"/>
    <path class="cls-3" d="m118.5,133.65c-3.36-.84-5.41-4.25-4.57-7.61.84-3.36,4.25-5.41,7.61-4.57,3.36.84,5.41,4.25,4.57,7.61-.84,3.36-4.25,5.41-7.61,4.57Zm2.35-9.43c-1.84-.46-3.71.67-4.17,2.51s.67,3.71,2.51,4.17,3.71-.67,4.17-2.51-.67-3.71-2.51-4.17Z"/>
  </g>
  <g>
    <path class="cls-1" d="m137.87,129.88c-.37,1.5-1.89,2.41-3.38,2.03-1.5-.37-2.41-1.89-2.03-3.38.37-1.5,1.89-2.41,3.38-2.03,1.5.37,2.41,1.89,2.03,3.38Z"/>
    <path class="cls-3" d="m134.14,133.29c-2.25-.56-3.63-2.85-3.07-5.1.56-2.25,2.85-3.63,5.1-3.07,2.25.56,3.63,2.85,3.07,5.1-.56,2.25-2.85,3.63-5.1,3.07Zm1.35-5.42c-.73-.18-1.48.27-1.66,1-.18.73.27,1.48,1,1.66.73.18,1.48-.27,1.66-1,.18-.73-.27-1.48-1-1.66Z"/>
  </g>
  <path class="cls-1" d="m117.19,38.29c-.98,3.95,1.96,6.27,3.2,6.58,1.79.45,4.87-.27,5.91-2.95,1.04-2.67,1.5-9.1,6.34-13,4.73-3.81,10.87-6.3,20.16-5.46-8.71-3.18-16.57-2.53-23.87.57-7.34,3.11-10.53,9.39-11.74,14.25Z"/>
  <path class="cls-1" d="m123.3,52.65c-.41,1.63-2.51,2.51-4.71,1.96-2.19-.55-3.64-2.31-3.24-3.94s2.51-2.51,4.71-1.96c2.19.55,3.64,2.31,3.24,3.94Z"/>
  <path class="cls-1" d="m176.03,54.14s-.16.78-.49,2.13c-.17.67-.36,1.5-.65,2.43-.29.93-.62,1.99-1.13,3.11-.51,1.11-1.15,2.32-2.05,3.46-.89,1.15-2.01,2.22-3.28,3.15-1.27.93-2.69,1.72-4.16,2.39-.74.34-1.49.63-2.25.92l-1.18.42-1.13.35c-1.61.47-3.21.78-4.81,1-1.6.22-3.18.29-4.7.3-1.53,0-3-.11-4.38-.28-.69-.07-1.36-.2-2-.3-.64-.11-1.26-.26-1.85-.39-.59-.14-1.15-.29-1.68-.43-.53-.14-1.02-.32-1.49-.46-.93-.28-1.72-.62-2.37-.87-.65-.26-1.14-.51-1.48-.66-.34-.16-.52-.25-.52-.25,0,0,.8.11,2.16.33.34.05.72.1,1.13.15.41.06.85.13,1.33.18.95.12,2.02.22,3.18.32,1.16.07,2.42.14,3.74.16.66,0,1.34.02,2.03-.01.69,0,1.4-.05,2.11-.09,1.43-.1,2.9-.23,4.38-.48,1.47-.23,2.97-.55,4.4-.94l1.13-.34,1.06-.34c.72-.25,1.43-.51,2.11-.79,1.38-.55,2.69-1.19,3.86-1.92,2.37-1.44,4.13-3.37,5.33-5.32.6-.97,1.12-1.91,1.55-2.76.43-.86.8-1.61,1.1-2.23.61-1.25.98-1.95.98-1.95Z"/>
  <path class="cls-1" d="m175.84,85.66c.13,1.35.2,2.69.25,4.04.03.67.03,1.34.05,2.02.02.67,0,1.34,0,2.02,0,.1-.03.19-.08.27h0c-.19.3-.37.54-.58.78-.2.24-.41.47-.62.7-.43.45-.86.89-1.33,1.29-.46.41-.94.79-1.44,1.16-.25.18-.49.37-.75.53l-.77.5c-.53.31-1.05.63-1.61.89l-.82.41-.84.35c-.28.12-.56.24-.85.33l-.86.29c-.29.1-.59.16-.88.25l-.88.22.81-.42c.27-.14.54-.26.8-.41.52-.29,1.06-.55,1.57-.86.52-.3,1.03-.6,1.53-.92.25-.15.5-.31.74-.49l.74-.49.71-.52c.24-.17.46-.36.7-.54.47-.36.92-.74,1.35-1.13.44-.39.87-.79,1.27-1.21.2-.21.4-.42.59-.64.19-.22.38-.45.54-.65l-.09.28c.04-.67.07-1.34.12-2.01.05-.67.09-1.34.16-2.01.12-1.34.26-2.68.47-4.02Z"/>
  <path class="cls-1" d="m224.14,196.39c.94-1.25,1.86-2.51,2.68-3.83.82-1.32,1.58-2.68,2.22-4.09.63-1.41,1.15-2.87,1.52-4.37.37-1.49.55-3.02.57-4.54.01-1.52-.19-3.04-.61-4.48-.21-.72-.48-1.43-.8-2.1-.17-.34-.34-.66-.53-.98-.1-.14-.25-.48-.29-.73-.05-.27-.04-.55.02-.82.05-.27.21-.55.28-.69.1-.18.16-.33.23-.49.14-.33.25-.67.34-1.01.17-.69.22-1.4.15-2.11-.07-.71-.25-1.41-.51-2.09-.13-.34-.29-.67-.46-.99-.09-.16-.18-.32-.27-.48-.1-.18-.18-.27-.32-.58-.11-.26-.18-.53-.19-.82-.03-.27.07-.66.08-.74.06-.35.1-.72.12-1.09.05-.74.04-1.49-.01-2.24-.09-1.5-.37-3-.76-4.46-.09-.37-.21-.73-.32-1.09l-.08-.27-.04-.12-.05-.14-.19-.55c-.26-.69-.56-1.38-.89-2.05-.67-1.35-1.48-2.62-2.4-3.83-.23-.3-.47-.6-.71-.89-.24-.3-.49-.58-.77-.94-.14-.18-.28-.4-.4-.68-.12-.28-.17-.62-.16-.91,0-.07,0-.14.01-.22l.03-.18.04-.29c0-.14.01-.25,0-.43-.07-1.35-.57-2.85-1.05-4.29-.49-1.47-1.07-2.89-1.48-4.54-.08-.36-.18-.8-.23-1.22-.06-.42-.09-.85-.09-1.3,0-.44.06-.91.19-1.38.13-.47.37-.95.76-1.36l-.1.13c.43-.65.32-1.67-.15-2.57-.23-.45-.53-.89-.88-1.28l-.27-.28-.32-.31c-.2-.2-.43-.43-.65-.67-.44-.47-.84-1.08-1.1-1.69-.26-.61-.43-1.22-.58-1.82-.14-.6-.25-1.19-.36-1.78l-.15-.89c-.05-.25-.1-.58-.16-.85-.23-1.06-.6-2.15-1.14-3.1-.53-.96-1.23-1.83-2.06-2.56-.82-.74-1.79-1.34-2.81-1.83-1.03-.5-2.12-.91-3.22-1.29l-1.67-.56-.42-.14c-.18-.05-.39-.16-.55-.28-.17-.12-.33-.29-.43-.42l-.27-.35c-.69-.87-1.54-1.68-2.43-2.42-1.79-1.48-3.77-2.75-5.81-3.92-2.04-1.16-4.16-2.2-6.34-3.11-1.09-.45-2.19-.86-3.32-1.2-1.13-.34-2.28-.63-3.46-.71,1.19,0,2.36.23,3.52.5,1.16.27,2.29.65,3.41,1.05,2.23.81,4.42,1.76,6.54,2.84,2.12,1.08,4.18,2.31,6.09,3.78.95.75,1.86,1.55,2.67,2.5l.28.34c.08.1.13.14.2.19.08.05.14.08.24.11l.43.13,1.71.52c1.14.36,2.28.76,3.39,1.27,1.12.51,2.2,1.15,3.16,1.96.96.81,1.8,1.79,2.42,2.9.64,1.1,1.06,2.28,1.35,3.52.07.31.12.57.18.89l.16.86c.11.57.23,1.14.36,1.69.14.55.3,1.08.51,1.55.22.47.48.86.85,1.25.18.2.37.38.59.6l.32.31.34.35c.44.49.83,1.04,1.13,1.64.31.6.53,1.26.59,1.99.08.72-.09,1.54-.51,2.21l-.04.07-.06.06c-.31.32-.47.94-.47,1.61,0,.34.02.69.08,1.04.05.35.12.68.21,1.08.35,1.39.95,2.87,1.45,4.36.49,1.51,1.02,3.01,1.12,4.79.01.21,0,.49-.03.74-.02.19-.07.41-.07.48,0,.09,0,.15.04.23.03.08.1.19.19.32.19.26.46.57.71.87.25.31.5.62.74.94.97,1.28,1.84,2.65,2.55,4.11.36.73.66,1.47.95,2.25l.19.56.05.14.05.16.08.29c.11.38.23.77.32,1.16.39,1.56.66,3.15.74,4.77.04.81.04,1.62-.02,2.44-.03.41-.08.82-.15,1.24-.06.3-.07.3-.07.42,0,.1.03.22.07.31.01.05.15.28.24.44.1.18.19.36.29.55.18.37.35.75.49,1.15.29.78.48,1.61.54,2.46.06.85-.01,1.71-.24,2.54-.11.41-.26.81-.43,1.2-.17.4-.44.78-.47.94-.03.11-.04.23-.02.34.03.13.03.16.14.35.2.35.39.72.55,1.09.33.75.59,1.52.79,2.3.4,1.57.55,3.19.49,4.79-.12,3.21-1.13,6.3-2.55,9.1-.72,1.4-1.54,2.74-2.43,4.03-.89,1.29-1.9,2.49-2.91,3.68Z"/>
  <path class="cls-1" d="m203.71,104.46s-.64-.21-1.61-.53c-.97-.31-2.27-.72-3.57-1.11-2.61-.79-5.23-1.54-5.23-1.54,0,0,2.68.47,5.36.98,1.34.26,2.68.52,3.68.73,1,.22,1.67.37,1.67.37l-.31,1.09Z"/>
  <path class="cls-1" d="m217.05,120.65s-.12-.13-.33-.35c-.11-.11-.23-.25-.37-.37-.15-.13-.29-.28-.48-.44-.38-.32-.85-.69-1.38-1.06-.53-.37-1.11-.75-1.7-1.11-2.37-1.45-4.95-2.61-4.95-2.61,0,0,2.71.75,5.33,1.85.66.27,1.3.57,1.91.87.6.3,1.16.61,1.63.9.24.14.46.3.65.43.2.13.35.25.47.35.24.19.38.3.38.3l-1.15,1.25Z"/>
  <path class="cls-1" d="m222.33,143.04s-.03-.03-.08-.09c-.05-.05-.14-.16-.22-.23-.09-.07-.15-.16-.31-.27-.15-.11-.31-.24-.51-.37-.78-.54-1.96-1.14-3.19-1.63-.62-.24-1.25-.46-1.85-.62-.6-.18-1.17-.29-1.67-.38-.25-.05-.48-.07-.68-.09-.2-.03-.38-.04-.53-.05-.29-.01-.46-.02-.46-.02,0,0,.17-.02.46-.05.15-.02.33-.03.53-.04.21,0,.44-.02.7-.01.51,0,1.11.03,1.75.11.64.07,1.32.19,1.99.34,1.35.3,2.67.73,3.65,1.19.25.11.47.23.67.34.19.09.4.25.55.35.15.11.22.17.29.22.06.05.09.08.09.08l-1.18,1.23Z"/>
  <path class="cls-1" d="m228.84,162.81s-.09-.15-.25-.4c-.08-.13-.18-.28-.29-.46-.12-.16-.25-.35-.39-.55-.14-.2-.31-.42-.49-.64-.18-.23-.37-.46-.59-.7-.42-.48-.9-.97-1.4-1.43-.99-.94-2.09-1.78-2.95-2.37-.85-.59-1.46-.92-1.46-.92,0,0,.65.26,1.57.74.93.48,2.14,1.19,3.27,2.02.57.41,1.13.85,1.62,1.3.25.22.49.44.71.65.22.21.43.41.61.62.18.2.35.39.5.55.13.16.25.31.34.43.19.24.3.37.3.37l-1.11.79Z"/>
  <path class="cls-1" d="m185.69,152.13s0,.1,0,.27c0,.18,0,.44.02.75.01.32.05.7.13,1.11.07.41.21.85.4,1.3.2.45.48.91.81,1.45.32.53.69,1.17.94,1.92.25.75.34,1.6.26,2.4-.01.2-.05.4-.08.6-.04.18-.09.42-.12.56-.07.38-.12.7-.15,1.03-.07.68-.07,1.36.04,2.02.11.66.31,1.29.56,1.91.25.62.55,1.22.8,1.82.24.6.44,1.2.56,1.76.24,1.13.17,2.09.09,2.73-.05.32-.09.57-.13.74-.04.17-.06.26-.06.26,0,0,0-.09,0-.27,0-.17,0-.43,0-.75-.02-.32-.04-.71-.12-1.14-.07-.43-.19-.91-.36-1.42-.35-1.02-1.04-2.04-1.72-3.3-.34-.63-.65-1.34-.82-2.11-.19-.76-.25-1.57-.23-2.36,0-.4.05-.81.1-1.16.04-.39.05-.68.05-1.02,0-.64-.09-1.24-.28-1.8-.18-.57-.45-1.11-.72-1.7-.28-.58-.52-1.2-.65-1.81-.13-.61-.13-1.18-.07-1.67.06-.49.18-.89.3-1.21.13-.32.23-.56.33-.71.09-.16.14-.24.14-.24Z"/>
  <path class="cls-3" d="m75.39,180.92c.03,7.51,3.85,11.18,8.22,13.86,4.37,2.68,14.19,8.93,29.03,12.63,14.83,3.7,29.72,4.94,42.53,3.65,12.81-1.29-2.53,8.56-11.77,8.96-10.69.46-19.88-.92-32.79-4.14-12.91-3.22-34.93-11.18-41.54-16.09-6.62-4.91,2.7-19.76,2.7-19.76l3.62.9Z"/>
  <path class="cls-3" d="m67.52,205.96s.08.14.23.39c.08.13.16.29.28.47.12.17.26.37.41.59.32.43.74.93,1.25,1.48.25.27.55.54.84.84.32.27.62.58.98.88.35.29.71.6,1.11.9.39.3.8.61,1.22.92.85.61,1.78,1.22,2.75,1.83.97.62,2,1.21,3.05,1.82,1.06.59,2.13,1.19,3.23,1.75,2.18,1.15,4.41,2.23,6.51,3.23,1.05.49,2.07.97,3.04,1.42.97.44,1.89.86,2.74,1.25,1.71.77,3.14,1.41,4.14,1.86,1,.46,1.58.72,1.58.72,0,0-.63-.08-1.71-.29-1.08-.21-2.63-.54-4.45-1.07-.91-.26-1.9-.54-2.92-.9-1.03-.34-2.11-.72-3.21-1.15-1.1-.44-2.24-.9-3.37-1.42-1.14-.51-2.27-1.07-3.4-1.65-1.12-.59-2.23-1.21-3.3-1.87-1.06-.66-2.1-1.34-3.06-2.05-.97-.7-1.86-1.45-2.69-2.18-.83-.73-1.55-1.48-2.19-2.21-.32-.36-.61-.73-.88-1.07-.25-.37-.5-.7-.71-1.03-.43-.66-.73-1.28-.95-1.79-.22-.53-.35-.94-.42-1.22-.07-.29-.11-.44-.11-.44Z"/>
  <path class="cls-1" d="m78,193.34s.09.08.27.24c.18.15.43.39.77.66.34.28.75.61,1.24.97.48.37,1.04.76,1.65,1.19.62.41,1.28.88,2.01,1.33.72.47,1.49.92,2.29,1.4.81.46,1.64.95,2.5,1.41.86.47,1.74.92,2.63,1.36.88.45,1.79.86,2.67,1.28.89.39,1.77.8,2.62,1.15.86.35,1.68.71,2.48,1.01.8.3,1.54.6,2.24.85.7.25,1.34.47,1.91.67.57.19,1.07.35,1.48.48.82.26,1.29.42,1.29.42l-.54,1.61s-.47-.18-1.29-.49c-.41-.16-.91-.35-1.48-.57-.57-.23-1.2-.5-1.9-.79-.7-.28-1.44-.63-2.23-.98-.79-.34-1.6-.75-2.45-1.15-.85-.4-1.71-.86-2.59-1.3-.86-.48-1.76-.93-2.62-1.44-.87-.49-1.74-1-2.57-1.52-.85-.5-1.65-1.04-2.44-1.55-.78-.52-1.53-1.03-2.23-1.53-.71-.49-1.35-.99-1.95-1.44-.59-.47-1.13-.89-1.59-1.28-.47-.39-.86-.74-1.19-1.04-.33-.29-.57-.54-.74-.7-.17-.16-.26-.25-.26-.25Z"/>
  <path class="cls-1" d="m158.97,212.98s-.12.04-.36.1c-.23.06-.57.17-1.01.27-.44.11-.97.23-1.59.34-.62.13-1.32.23-2.08.36-1.53.22-3.33.44-5.26.6-.97.07-1.96.16-2.98.2-1.02.06-2.05.1-3.08.13-2.07.06-4.13.07-6.07.04-.97-.03-1.91-.03-2.8-.07-.89-.04-1.73-.06-2.5-.11-1.55-.09-2.84-.17-3.74-.25-.9-.07-1.42-.11-1.42-.11l.2-1.69s.51.07,1.4.18c.89.13,2.16.28,3.69.44.76.09,1.59.15,2.47.24.88.09,1.8.14,2.76.22,1.92.13,3.97.23,6.02.27,1.03.02,2.05.04,3.06.03,1.01,0,2.01-.03,2.97-.05,1.92-.07,3.72-.18,5.25-.33.77-.09,1.47-.15,2.09-.25.62-.08,1.16-.17,1.6-.26.44-.07.79-.16,1.02-.21.24-.05.36-.08.36-.08Z"/>
  <path class="cls-3" d="m107.75,201.97h16.38c1.72,0,3.11,1.39,3.11,3.11v11.85c0,1.8-1.46,3.26-3.26,3.26h-16.07c-1.8,0-3.26-1.46-3.26-3.26v-11.85c0-1.72,1.39-3.11,3.11-3.11Z" transform="translate(54.48 -21.77) rotate(13.99)"/>
  <path class="cls-1" d="m106.9,213.26c.08-.86.22-1.71.37-2.55.07-.42.16-.84.24-1.26.08-.42.17-.83.27-1.25l.29-1.24.15-.62.08-.31.04-.15c.02-.06.05-.15.08-.23.12-.29.27-.54.47-.77.19-.23.43-.43.7-.57.53-.3,1.21-.41,1.83-.26h-.06c1.96.31,3.91.69,5.85,1.16.97.23,1.93.48,2.89.76.96.29,1.92.58,2.86.95-1.01.03-2.01-.02-3.01-.08-1-.06-1.99-.15-2.98-.26-1.98-.21-3.94-.52-5.9-.88h-.03s-.03-.01-.03-.01c-.21-.05-.43-.04-.64.07-.1.05-.2.12-.29.21-.09.08-.17.2-.22.29-.01.02-.02.03-.04.07l-.05.15-.11.3-.22.6-.46,1.19c-.15.4-.31.79-.47,1.19-.17.39-.32.79-.5,1.18-.35.78-.7,1.56-1.11,2.32Z"/>
  <path class="cls-1" d="m161.46,27.05c-.18.71-.9,1.14-1.61.96s-1.14-.9-.96-1.61c.18-.71.9-1.14,1.61-.96.71.18,1.14.9.96,1.61Z"/>
  <path class="cls-1" d="m73.58,139.59s-.19.03-.55.08c-.36.05-.87.17-1.51.36-.64.19-1.4.48-2.25.87-.85.38-1.78.87-2.77,1.44-1,.57-2.05,1.23-3.17,1.93-1.11.71-2.27,1.49-3.48,2.29-1.21.79-2.44,1.64-3.74,2.46-1.29.82-2.62,1.64-4,2.4-1.39.74-2.81,1.44-4.32,1.96-.38.12-.76.25-1.15.34-.2.05-.39.1-.59.13l-.3.05-.15.03h-.07s-.04.02-.04.02h-.08s-.02.01-.02.01c-.37.02-.74.04-1.11.06-.36.02-.8-.04-1.19-.06-1.57-.16-2.96-.57-4.23-1.1-.64-.23-1.23-.54-1.81-.81-.56-.3-1.11-.59-1.61-.89-1.01-.6-1.91-1.19-2.67-1.76-.77-.55-1.41-1.08-1.94-1.51-1.04-.88-1.58-1.43-1.58-1.43,0,0,.16.11.46.31.3.2.75.48,1.32.85.57.36,1.28.78,2.09,1.24.41.23.84.47,1.31.71.46.25.96.49,1.47.74,1.04.48,2.17.97,3.4,1.37,1.21.42,2.57.7,3.88.8l.48.02c.16,0,.32.03.51,0,.37-.03.74-.07,1.11-.1h.02c-.11.01-.02,0-.04,0h.03s.06-.02.06-.02l.13-.03.25-.05c.17-.03.34-.08.51-.13.34-.08.68-.2,1.02-.32,1.36-.49,2.72-1.17,4.04-1.9,1.34-.72,2.65-1.51,3.94-2.3,1.3-.79,2.57-1.57,3.81-2.33,2.48-1.51,4.86-2.85,7-3.82,1.06-.5,2.07-.89,2.98-1.18.91-.3,1.73-.49,2.4-.59.34-.05.64-.1.91-.1.27-.02.49-.03.67-.02.36,0,.56.01.56.01Z"/>
  <path class="cls-1" d="m52.86,81.9s.07.21.2.6c.14.39.29.98.45,1.73.14.76.3,1.69.39,2.76.1,1.07.2,2.28.29,3.58.1,1.31.22,2.71.42,4.18.2,1.47.51,2.99.94,4.53.12.38.24.76.36,1.15.13.38.28.76.43,1.14.29.77.64,1.56.96,2.37.64,1.61,1.26,3.25,1.85,4.92.59,1.67,1.09,3.37,1.52,5.07.44,1.7.75,3.4.97,5.05.22,1.66.33,3.26.32,4.8-.01,1.57-.22,3.02-.52,4.33-.29,1.31-.68,2.48-1.08,3.48-.39,1.01-.81,1.85-1.17,2.54-.36.68-.67,1.2-.89,1.55-.22.35-.33.54-.33.54,0,0,.36-.8.9-2.23.53-1.43,1.21-3.51,1.58-6.06.18-1.28.27-2.66.21-4.11-.03-.36-.04-.78-.08-1.12-.04-.38-.08-.76-.12-1.15-.05-.39-.1-.78-.15-1.17-.06-.39-.12-.79-.18-1.19-.27-1.59-.63-3.22-1.06-4.86-.43-1.64-.97-3.29-1.52-4.93-.55-1.64-1.16-3.28-1.77-4.88-.29-.81-.6-1.59-.88-2.41-.14-.41-.29-.82-.41-1.23-.11-.41-.23-.82-.34-1.23-.4-1.64-.61-3.25-.75-4.78-.14-1.52-.13-2.96-.14-4.28,0-1.31.02-2.52.02-3.58,0-1.06-.03-1.99-.09-2.75-.07-.76-.13-1.35-.22-1.76-.08-.4-.12-.62-.12-.62Z"/>
  <path class="cls-1" d="m58.35,106.69s.01.24.04.67c.01.21,0,.52,0,.85,0,.33-.06.68-.1,1.07-.08.38-.13.8-.26,1.23-.11.43-.27.87-.44,1.32-.08.23-.2.44-.3.67-.1.23-.21.45-.34.66-.23.44-.53.86-.82,1.27-.32.39-.62.8-.98,1.14-.18.17-.34.35-.52.51-.18.16-.36.31-.54.46-.35.31-.74.54-1.08.79-.36.22-.71.42-1.03.61-.33.16-.64.3-.91.43-.27.13-.52.2-.71.29-.4.15-.63.24-.63.24,0,0,.22-.11.6-.3.19-.1.43-.2.67-.36.25-.15.53-.33.84-.52.29-.22.6-.45.93-.7.3-.28.65-.54.95-.87.15-.16.31-.33.46-.49.15-.17.29-.36.43-.54.3-.35.54-.77.79-1.16.22-.41.45-.82.62-1.24.1-.21.18-.42.25-.63.07-.21.15-.42.2-.63.11-.42.21-.82.26-1.21.08-.38.08-.76.11-1.09,0-.34.01-.66-.01-.91-.03-.27-.03-.47-.07-.68l-.11-.66,1.69-.2Z"/>
  <path class="cls-1" d="m138.58,412.81s.09-.19.26-.57c.16-.38.4-.93.62-1.68.21-.75.41-1.69.5-2.81.1-1.12.07-2.41-.05-3.85-.13-1.45-.4-3.04-.56-4.86-.07-.91-.1-1.9.14-2.96.13-.5.26-.96.34-1.41.09-.46.18-.95.24-1.45.28-2,.44-4.17.55-6.46.02-.57.04-1.15.07-1.74,0-.05,0-.17.02-.29.01-.11.03-.22.07-.33.03-.11.07-.21.12-.32l.1-.21c.13-.27.26-.54.39-.81.51-1.1,1.03-2.22,1.56-3.36,1.05-2.29,2.13-4.71,3.19-7.19,1-2.44,1.67-5.16,2.21-7.97.27-1.41.5-2.85.72-4.32.11-.74.22-1.48.36-2.24.04-.19.07-.39.12-.59l.04-.15.04-.15.08-.27c.1-.36.2-.73.3-1.1.41-1.51.89-2.95,1.24-4.42.17-.73.32-1.46.39-2.19.02-.19.03-.34.04-.57.03-.34.13-.63.28-.91.14-.28.41-.53.52-.63l.42-.42c.47-.52.92-1.11,1.32-1.74.39-.64.73-1.32,1.02-2.02.58-1.42.99-2.93,1.3-4.49.31-1.57.57-3.16.67-4.75.11-1.6.09-3.22-.02-4.85-.05-.82-.13-1.64-.2-2.46-.07-.84-.14-1.67-.21-2.51l-.05-.63c0-.23-.05-.35-.03-.75,0-.15.05-.36.08-.46l.08-.3c.05-.2.12-.42.18-.63.25-.84.56-1.66.91-2.46.7-1.6,1.55-3.08,2.35-4.55.81-1.47,1.57-2.94,2.24-4.45,1.32-3.04,2.36-6.2,2.81-9.44.48-3.24.41-6.54.22-9.84-.17-3.29-.47-6.68.18-10.06.16-.84.38-1.68.69-2.48.29-.77.5-1.44.65-2.19.31-1.47.33-2.98.23-4.52-.09-1.54-.28-3.12-.31-4.73-.03-1.61.13-3.26.59-4.83.22-.78.52-1.54.87-2.26.17-.34.33-.68.5-1.01l.24-.5.2-.48c.53-1.28.92-2.66,1.15-4.02.48-2.74.36-5.5.02-8.14-.09-.67-.2-1.3-.31-1.99-.11-.7-.18-1.38-.21-2.07-.07-1.39.01-2.66-.08-3.86-.04-.61-.11-1.2-.2-1.8-.05-.3-.1-.6-.15-.9-.04-.23-.04-.48,0-.72,0-.06.02-.12.03-.18l.04-.15.07-.22c.46-1.4,1.41-2.39,2.24-3.19.84-.81,1.52-1.53,1.88-2.4.37-.86.45-1.84.43-2.8-.07-2-.29-3.93-.42-5.69-.16-1.77-.3-3.4-.43-4.86-.07-.44.05-.99.32-1.35.25-.32.44-.55.62-.8.37-.51.65-1.03.87-1.53.45-1,.6-1.96.6-2.73,0-.77-.13-1.37-.23-1.76-.11-.39-.2-.58-.2-.58,0,0,.12.17.29.55.17.38.39.96.48,1.77.09.8.07,1.84-.3,2.99-.19.57-.45,1.16-.79,1.76-.17.3-.39.62-.55.86-.12.21-.16.42-.1.71.24,1.46.48,3.08.71,4.85.24,1.77.46,3.67.61,5.78.05,1.08-.03,2.28-.51,3.44-.47,1.18-1.38,2.13-2.18,2.92-.81.8-1.51,1.61-1.8,2.55l-.06.21-.02.07v.05c-.02.07-.02.13,0,.2.05.31.11.61.16.92.1.63.18,1.27.23,1.93.11,1.33.04,2.64.12,3.88.04.63.12,1.26.22,1.89.11.64.23,1.34.34,2.02.41,2.75.51,5.7.01,8.69-.25,1.49-.66,2.97-1.26,4.44l-.23.55-.24.5c-.16.34-.33.67-.49,1.01-.3.64-.57,1.29-.75,1.98-.39,1.36-.53,2.81-.5,4.3.02,1.49.2,3.04.29,4.65.1,1.61.08,3.32-.28,5-.17.83-.45,1.7-.73,2.44-.27.71-.47,1.44-.62,2.2-.6,3.04-.34,6.31-.17,9.63.18,3.32.25,6.77-.27,10.18-.49,3.42-1.59,6.73-2.97,9.87-.69,1.58-1.49,3.1-2.3,4.59-.82,1.48-1.64,2.93-2.29,4.41-.32.74-.61,1.5-.84,2.26-.05.19-.11.37-.16.58l-.08.3c-.03.11-.02.1-.03.16-.01.01.02.31.03.5l.05.63c.07.83.13,1.68.21,2.48.08.83.15,1.67.21,2.51.11,1.68.13,3.38.02,5.07-.05.83-.15,1.7-.27,2.52-.12.83-.26,1.64-.43,2.45-.66,3.24-1.71,6.56-4.1,9.12-.25.26-.65.63-.66.69-.04.06-.06.16-.07.21-.01.16-.03.41-.05.61-.08.83-.24,1.64-.43,2.42-.37,1.56-.87,3.03-1.27,4.46-.1.37-.21.73-.31,1.1l-.08.27-.03.12-.03.12-.11.52c-.13.71-.24,1.45-.36,2.19-.23,1.47-.47,2.94-.75,4.38-.57,2.88-1.27,5.66-2.35,8.27-1.09,2.54-2.21,4.91-3.29,7.21-.55,1.14-1.09,2.26-1.61,3.36-.13.27-.27.54-.4.81l-.09.19s-.03.07-.04.1-.02.07-.02.11c0,.03,0,.06,0,.16-.03.6-.06,1.18-.09,1.76-.14,2.32-.33,4.51-.64,6.58-.08.52-.17,1.02-.28,1.54-.11.53-.25,1-.37,1.43-.2.82-.19,1.71-.15,2.57.04.86.14,1.71.21,2.52.07.82.12,1.6.15,2.35.12,3.01-.46,5.41-1.14,6.86-.34.73-.64,1.27-.88,1.6-.23.34-.36.51-.36.51Z"/>
  <path class="cls-1" d="m72.33,152.4c-.28,1.62-.6,3.24-.94,4.85-.33,1.61-.67,3.22-.93,4.82l-.17,1.2-.11,1.2c-.02.4-.06.8-.05,1.19,0,.4,0,.79.03,1.19.01.39.06.79.11,1.18.03.39.14.78.2,1.16.07.39.18.77.27,1.15l.35,1.13v.04s.03.06.03.06c.11.53.04,1.22-.26,1.73-.28.51-.66.86-.99,1.16-.68.59-1.32,1.05-1.83,1.6-.26.27-.49.56-.68.86-.19.29-.37.66-.48.94l-.2.59-.14.54c-.09.36-.16.77-.24,1.16-.13.8-.26,1.61-.34,2.43-.09.82-.16,1.64-.22,2.47-.11,1.65-.2,3.32-.24,4.97l-.02.69-.65.07c-.07,0-.24.04-.36.08-.13.04-.26.08-.38.14-.25.11-.47.25-.66.41-.38.33-.62.77-.72,1.3-.09.53-.05,1.13.1,1.73.14.6.36,1.2.62,1.78l.06.14v.11c-.01.69-.32,1.26-.62,1.71-.32.45-.66.84-.98,1.23-.65.76-1.25,1.52-1.61,2.4-.18.44-.29.9-.34,1.38-.02.24-.03.48-.02.72,0,.24.03.49.06.73.05.24.08.49.15.73.06.24.13.48.21.72.15.48.35.94.56,1.41-.27-.43-.54-.86-.76-1.33-.11-.23-.22-.46-.31-.71-.1-.24-.17-.49-.24-.74-.06-.25-.12-.51-.16-.77-.04-.26-.06-.53-.06-.79,0-.53.08-1.07.23-1.59.3-1.04.91-1.95,1.52-2.77.3-.41.6-.81.83-1.21.23-.4.37-.79.35-1.12l.06.25c-.32-.62-.6-1.27-.81-1.97-.2-.7-.32-1.46-.23-2.26.05-.4.16-.81.35-1.19.19-.38.45-.73.76-1.01.31-.28.66-.51,1.02-.68.18-.09.37-.16.56-.22.2-.06.36-.11.62-.15l-.67.76c-.01-1.7.03-3.38.13-5.07.06-.84.11-1.69.2-2.54.08-.85.19-1.7.34-2.55.09-.43.16-.84.28-1.3l.18-.67.21-.59c.2-.5.4-.88.67-1.29.26-.4.56-.76.89-1.09.64-.67,1.38-1.19,1.98-1.67.3-.24.54-.49.67-.7.13-.22.16-.41.12-.7l.03.1-.34-1.23c-.08-.42-.19-.83-.26-1.26-.06-.43-.14-.85-.15-1.28-.03-.43-.06-.86-.05-1.28-.01-.43.01-.85.04-1.28.01-.43.08-.84.12-1.27.11-.84.28-1.66.47-2.47.19-.81.4-1.61.63-2.41l.72-2.37c.49-1.57,1-3.14,1.52-4.7Z"/>
  <path class="cls-3" d="m50.71,250.09s.06.26.18.71c.06.23.12.5.2.81.08.3.19.6.3.96.06.18.11.36.17.55.07.19.15.39.23.59.16.41.32.84.53,1.27.2.44.4.89.65,1.33.23.45.48.91.75,1.35.26.45.54.88.83,1.31.27.44.59.83.87,1.24.59.78,1.17,1.5,1.7,2.09,1.05,1.19,1.85,1.89,1.85,1.89,0,0-.91-.55-2.16-1.56-.63-.5-1.33-1.12-2.07-1.81-.35-.36-.74-.71-1.1-1.11-.36-.39-.73-.79-1.08-1.21-.36-.41-.7-.84-1.02-1.27-.34-.42-.63-.86-.92-1.29-.3-.42-.55-.85-.8-1.26-.12-.2-.24-.4-.36-.6-.11-.2-.21-.4-.31-.59-.19-.38-.38-.74-.53-1.04-.13-.3-.24-.56-.33-.77-.19-.43-.29-.67-.29-.67l2.69-.91Z"/>
  <path class="cls-3" d="m56.12,230.18s0,.2-.02.55c0,.17-.01.39-.02.63,0,.22,0,.47.01.74,0,.27.03.58.05.91.02.33.06.67.11,1.03.09.72.24,1.48.41,2.25.17.77.39,1.53.61,2.24.23.71.46,1.37.68,1.92.43,1.12.79,1.84.79,1.84,0,0-.51-.62-1.19-1.63-.34-.5-.72-1.11-1.11-1.77-.38-.66-.77-1.38-1.13-2.13-.35-.74-.69-1.51-.95-2.25-.14-.37-.27-.73-.37-1.08-.1-.35-.22-.67-.29-1-.08-.33-.15-.62-.21-.89-.04-.24-.08-.45-.12-.63-.06-.35-.1-.54-.1-.54l2.83-.19Z"/>
  <path class="cls-3" d="m42.08,282.49s.04.24.11.67c.02.11.04.22.06.35.03.11.05.23.08.35.07.26.1.53.22.87.11.33.2.7.34,1.08.14.38.28.79.45,1.2.17.41.34.85.54,1.28.19.43.39.88.61,1.31.84,1.75,1.79,3.46,2.54,4.73.75,1.27,1.28,2.09,1.28,2.09,0,0-2.7-2.86-5.04-6.09-.3-.4-.58-.81-.86-1.22-.29-.4-.54-.82-.8-1.22-.26-.4-.48-.8-.71-1.18-.22-.38-.4-.76-.59-1.1-.18-.33-.33-.72-.46-1.02-.07-.16-.13-.3-.18-.44-.04-.12-.08-.23-.12-.34-.14-.41-.22-.64-.22-.64l2.75-.69Z"/>
  <path class="cls-3" d="m35.31,311.68s.06.2.17.56c.05.16.12.34.19.56.07.21.19.47.29.75.47,1.11,1.24,2.58,2.15,3.97.9,1.41,1.95,2.74,2.78,3.7.42.48.78.87,1.04,1.14.26.27.41.42.41.42,0,0-.18-.12-.49-.33-.31-.21-.75-.52-1.26-.91-1.03-.78-2.35-1.89-3.58-3.13-1.24-1.23-2.36-2.59-3.14-3.7-.19-.29-.36-.53-.52-.79-.15-.25-.29-.48-.38-.65-.18-.33-.28-.51-.28-.51l2.62-1.09Z"/>
  <path class="cls-3" d="m26.28,335.62s.05.14.13.39c.08.23.21.57.4.98.37.81,1.01,1.86,1.79,2.86.77,1,1.66,1.93,2.36,2.6.35.33.66.6.87.78.05.04.1.08.15.12h0s.01,0-.01,0c-.06.03,0,.08-.02.06h0s0,0,0,0h-.01s-.03-.04-.03-.04c-.02-.01-.03-.03-.05-.04-.06-.05-.09-.07-.09-.07,0,0,.04.02.11.04.02,0,.04.02.06.03h.03s.02.02.02.02h.01s0,0,0,0c-.01-.02.04.03-.02.06-.02,0-.01,0-.02,0h0c-.05-.03-.11-.05-.18-.08-.26-.12-.63-.29-1.07-.52-.87-.46-2.01-1.13-3.09-1.94-1.08-.8-2.1-1.74-2.79-2.55-.35-.4-.62-.76-.81-1.03-.17-.25-.27-.4-.27-.4l2.54-1.27Z"/>
  <path class="cls-3" d="m24.21,344.98s.13.14.36.4c.23.26.56.6.94,1,.19.2.42.42.65.65.23.23.48.47.75.72.52.5,1.1,1.01,1.68,1.52,1.16,1.02,2.37,2,3.3,2.72.92.72,1.56,1.17,1.56,1.17,0,0-.72-.3-1.79-.8-1.07-.49-2.48-1.18-3.87-1.93-.7-.37-1.39-.76-2.03-1.14-.32-.19-.63-.37-.92-.55-.29-.18-.57-.34-.83-.52-.52-.34-.94-.62-1.21-.81-.28-.19-.44-.3-.44-.3l1.86-2.14Z"/>
  <path class="cls-3" d="m60.12,218.07s.03.14.07.4c.01.06.02.13.04.21.01.06.03.13.04.2.04.15.05.29.12.49.21.78.6,1.85,1.06,2.9.91,2.12,2.07,4.16,2.07,4.16,0,0-1.71-1.6-3.27-3.4-.78-.9-1.53-1.86-2.04-2.66-.13-.19-.25-.42-.35-.59-.05-.09-.1-.18-.14-.26-.04-.07-.07-.13-.1-.19-.12-.23-.19-.36-.19-.36l2.69-.9Z"/>
  <path class="cls-3" d="m61.78,215.95c-.37.66-.79,2.7,1.57,6.73-.21-2.81,1.22-3.28,1.78-2.73-2.26-2.03-3.35-4-3.35-4Z"/>
  <path class="cls-3" d="m58.92,223.7c-.51,2.13-1.95,7.38-.94,13.29.23-6.69,3.12-7.42,12.24-2.12-7.31-6.03-11.3-11.17-11.3-11.17Z"/>
  <path class="cls-3" d="m65.1,251.3c-5.16-3.91-9.86-9.9-10.66-12.79-1.42,3.09-3.77,8.15-.74,15.94,1.85-9.53,11.4-3.15,11.4-3.15Z"/>
  <path class="cls-3" d="m48.6,255.98c-4.07,4.02-5.49,13.98-5.64,20.3.5-2.16,2.68-9.89,5.17-11.19,2.53-1.32,8.58,1.69,11.31,2.72-7.9-5.48-10.84-11.84-10.84-11.84Z"/>
  <g>
    <path class="cls-3" d="m37.74,375.56s-.09-.1-.14-.15c.03.05.08.1.14.15Z"/>
    <path class="cls-3" d="m109.84,262.24c-3.03,1-13.08.23-20.42-10.65.5,7.16,3.54,11.12,3.54,11.12,0,0,.21,8.39-3.84,9.28-4.05.88-12.32-1.45-17.14-3.63,1.65,3.43,11.01,6.78,14.82,7.73,4.11,1.02,6.11,1.33,12.4,1.71-4.66,1.76-11.16.7-11.25,1.15-.29,1.37-1.42,2.62-3.66,2.24-4.32-.73-7.63-2.62-7.63-2.62,0,0,1.75,2.71,6.38,4.64,2.25.94.25,3.16-.74,5.92-.81,2.26-1.74,5.32-6.38,4.77-9.28-1.1-21.61-8.73-21.61-8.73,0,0,5.8,8.05,19.38,12.88,4.07,1.45,7.92,2.08,12.45,2.13-4.17,2.85-10.72.9-11.2,3.38-.72,3.71-2.67,7.53-3.79,9.87-3.96,8.25-13.13,8.6-24,4.45,3.21,3.27,12.03,6.9,15.93,7.69,4,.81,6.75,1.5,13.17.99-5.46,2.97-11.49,2.22-11.46,2.82.18,3.55-.9,8.6-1.97,10.92-3.16,6.89-4.31,15.78-10.16,14.65-4.64-.9-9.69-3.28-13.16-5.16,3.09,4.03,9.15,7.47,14.43,8.96,5.29,1.49,7.34,1.23,10.7,1.42-1.58,1.54-8.23,1.72-8.26,2-.25,3.07-3.67,6.94-8.67,6.47-7.62-.73-12.52-2.74-15.92-5.92,1.33,2.73,6.34,7.4,13.17,9.35,6.83,1.94,5.66,5.32,3.83,6.53-1.75,1.16-9.72-1.8-11.06-3.04,3.3,3.54,5.08,6.79,9.02,7.07,3.99.28-.17,13.85-5.11,12.14-.21-.07-.37-.11-.48-.12,6.05,3.3,13.71,6.65,16.47-.27,1.73-4.34,3.2-18.31,3.43-17.67s2.8-2.62,2.75-6.33c-.05-3.72,6.56-5.97,7.75-9.18,1.19-3.21.04-5.64,1.6-8.76,1.56-3.12,5.73-9.69,6.18-13.86.46-4.18,1.44-9.58,3.91-11.69,2.48-2.11,4.53-5.56,6.75-11.5,1.41-3.77,3.46-9.98,2.85-12.34,3.87-3.42,3.06-11.42,3.06-11.42,0,0,4.82-2.11,5.87-4,1.05-1.88-.51-5.78-.51-5.78,0,0,2.52-2.3,4.31-4.77,1.79-2.48-.97-4.73-.33-6.52.64-1.79,2.84-6.7,4.26-6.93,1.42-.23.32-1.38.32-1.38Z"/>
  </g>
  <path class="cls-3" d="m40.84,290.23c-3,2.47-7.51,12.46-3.7,20.87-.32-4.76,1.27-10.83,3.19-12.8,1.92-1.97,6.15-1.25,6.15-1.25-2.95-2.26-5.64-6.82-5.64-6.82Z"/>
  <path class="cls-3" d="m33.78,318.56s-8.32,7.32-6.38,14.53c1.99-4.77,4.11-12.14,11.87-10.35-2.59-1.66-5.49-4.18-5.49-4.18Z"/>
  <path class="cls-3" d="m24.75,350.51c-.34,1.96-3.48,7.71-2.23,11.87.74-2.8,1.57-7.26,3.74-7.99,1.58-.53,5.09-1.07,5.09-1.07,0,0-4.86-1.6-6.61-2.82Z"/>
  <path class="cls-1" d="m12.91,391.71c-2.64.02-6.07,3.61-6,6.08.17,5.59,5.75,7.81,9.18,8.14,3.43.33-2.12-2.85-2.77-6.47-.44-2.44,6.16-7.8-.41-7.76Z"/>
  <path class="cls-1" d="m56.49,388.58l.78-7.13.19-1.77.17-1.79c.07-.6.11-1.19.24-1.84.03-.16.08-.34.15-.53.07-.2.22-.45.41-.62.09-.09.17-.15.24-.2.05-.04.15-.11.25-.17.2-.11.41-.2.63-.25h0s-.46.28-.46.28c.52-.71.95-1.65,1.19-2.56.12-.46.2-.93.23-1.4.01-.12,0-.23.01-.35v-.42c.01-.23.07-.61.13-.91.27-1.2.93-2.24,1.67-3.07.75-.85,1.58-1.55,2.41-2.22.83-.67,1.66-1.29,2.41-1.96.36-.33.72-.68.97-1.02.12-.17.23-.35.27-.48.1-.26.15-.44.21-.69.24-.91.27-1.9.3-2.96.04-1.06.11-2.19.4-3.29.14-.55.32-1.09.55-1.61l.18-.39c.08-.16.13-.24.19-.37l.37-.69,1.5-2.78c1-1.83,1.97-3.68,2.76-5.56.39-.94.75-1.9.97-2.84.21-.89.26-1.99.43-3.04.3-2.11.71-4.23,1.43-6.3.36-1.03.82-2.06,1.44-3.03.3-.49.68-.94,1.09-1.38l.61-.57c.21-.18.36-.34.52-.51,1.34-1.4,2.37-3.17,3.27-5,.9-1.84,1.66-3.76,2.37-5.72.7-1.95,1.39-3.91,1.92-5.89.26-.99.5-1.99.61-2.95.06-.48.08-.95.01-1.28-.09-.36-.08-.84.06-1.22.07-.2.16-.39.28-.56.06-.09.12-.17.19-.25.04-.04.07-.08.11-.11l.06-.05.03-.03c-.08.07-.01.01-.02.02.17-.18.41-.38.53-.54.12-.17.26-.3.38-.51.25-.39.47-.81.65-1.26.38-.89.63-1.87.81-2.86.17-1,.28-2.02.32-3.04,0-.25.01-.51,0-.76,0-.13,0-.25,0-.38,0-.12-.01-.24,0-.44.04-.73.51-1.36,1.14-1.62.97-.38,1.92-.79,2.85-1.27.46-.24.92-.49,1.36-.77.43-.28.88-.57,1.2-.99-.25.47-.65.85-1.05,1.19-.41.34-.84.66-1.27.96-.87.6-1.79,1.16-2.73,1.63-.33.17-.52.55-.5.88,0,.06.02.21.04.35.02.14.03.27.04.41.03.27.04.54.06.81.05,1.08.03,2.16-.09,3.24-.12,1.08-.33,2.17-.71,3.23-.19.53-.43,1.06-.73,1.56-.13.25-.35.52-.53.77-.19.25-.36.4-.55.6l-.08.08s-.02.02-.03.03c-.02.02-.03.04-.04.06-.03.05-.05.09-.06.14-.02.11-.03.18.01.33.15.7.09,1.29.05,1.85-.11,1.12-.35,2.17-.6,3.22-.52,2.08-1.16,4.11-1.89,6.1-.73,1.98-1.51,3.97-2.47,5.9-.96,1.92-2.08,3.82-3.66,5.45-.21.21-.42.42-.61.58l-.54.5c-.31.33-.61.68-.87,1.08-.52.79-.94,1.69-1.28,2.63-.68,1.89-1.1,3.91-1.41,5.94-.18,1.01-.21,2.03-.47,3.18-.26,1.1-.65,2.11-1.07,3.11-.85,1.98-1.85,3.85-2.86,5.7l-1.5,2.75-.37.69c-.06.11-.14.25-.17.33l-.15.33c-.2.44-.35.89-.47,1.36-.25.93-.32,1.91-.36,2.95-.04,1.03-.07,2.16-.37,3.29-.07.27-.17.59-.26.82-.14.36-.31.63-.49.89-.37.5-.78.89-1.19,1.26-.82.73-1.68,1.36-2.48,2-.81.64-1.58,1.3-2.23,2.02-.65.72-1.14,1.53-1.33,2.38-.03.21-.08.35-.08.65v.2s-.01.17-.01.17c0,.15,0,.29-.02.44-.04.58-.14,1.15-.29,1.7-.31,1.11-.75,2.12-1.47,3.1l-.19.25-.27.03h0c-.07,0-.14.02-.21.05-.03,0-.22.12-.24.14-.04.02-.05.03-.1.1-.04.08-.08.19-.12.32-.16.51-.28,1.11-.4,1.69l-.36,1.75-.38,1.76-1.52,7Z"/>
  <path class="cls-3" d="m106.93,334.64c-2.57-5.33-.41-13.4,1.31-16.59,2.61,1.22,10.7,3.64,13.54,4.1-2.13,1.06-8.44-1.23-11.43,2.22-2.99,3.45-2.96,8.19-3.42,10.27Z"/>
  <path class="cls-3" d="m109.92,383.39c-1.14-.02-5.99,2.29-6.53,3.29,1.22-1.61,2.57-4.81,3.31-6.69,3.78,1.47,7.75,2.46,11.78,2.92-1.31.1-7.02.51-8.56.48Z"/>
  <path class="cls-3" d="m123.58,347.84c-1.4.12-4.64.59-5.95,1.09-3.91,1.47-7.3,4.04-10.6,6.6.81-1.76,1.54-3.57,1.87-5.48s.52-5.03-.25-6.8c4.07,2.22,10.34,3.98,14.93,4.6Z"/>
  <path class="cls-3" d="m115.98,301.56c3.61.46,7.3.91,10.88.23-1.79,1.16-3.97,1.55-6.09,1.83-2.12.28-4.29.47-6.25,1.32-1.96.85-3.73,2.49-4.08,4.6.13-2.89.78-5.76,1.89-8.43,1.22.15,2.43.31,3.65.46Z"/>
  <path class="cls-3" d="m114.45,266.52c-.22.39-.82,4.13-1.21,5.57-.37,1.4-.13,2.88.12,4.31.39,2.23.77,4.47,1.16,6.7.28-2.3.69-4.58,1.21-6.84.94-4.06,1.12-5.31,4.89-7.1,2.65-.52,7.47-.6,10.59,0-3.87-1.55-5.72-2.25-7.94-4.32-.89-.82-2.41-3.16-2.43-5.43-.94,2.03-2.69,4.74-5.62,6.54-.28.17-.62.27-.78.55Z"/>
  <path class="cls-1" d="m24.43,406.36c-.27,1.1-1.39,1.77-2.49,1.5s-1.77-1.39-1.5-2.49c.27-1.1,1.39-1.77,2.49-1.5,1.1.27,1.77,1.39,1.5,2.49Z"/>
  <path class="cls-1" d="m3.48,407.96s.69.49,1.95,1.24c1.26.76,3.09,1.78,5.38,2.78,1.14.5,2.41.97,3.76,1.43,1.35.45,2.8.82,4.31,1.14,1.51.32,3.09.52,4.7.62,1.61.12,3.25.1,4.88-.05l.31-.03.29-.04.63-.08,1.25-.15c.8-.15,1.59-.24,2.38-.43.79-.17,1.58-.35,2.34-.57.77-.19,1.52-.43,2.26-.67,1.47-.49,2.86-1.04,4.16-1.62.65-.29,1.28-.58,1.87-.9.61-.29,1.17-.6,1.72-.9,1.09-.61,2.06-1.21,2.92-1.76.85-.57,1.58-1.07,2.17-1.51.58-.45,1.05-.79,1.36-1.04.31-.25.47-.38.47-.38,0,0-.14.16-.41.45-.26.3-.66.72-1.19,1.24-.27.25-.57.53-.9.84-.33.3-.71.61-1.1.95-.41.32-.83.67-1.3,1.02-.48.33-.96.71-1.5,1.06-1.06.72-2.24,1.44-3.55,2.12-.64.36-1.34.66-2.03,1-.72.29-1.44.62-2.2.89-.76.28-1.52.56-2.32.79-.79.26-1.61.44-2.43.64-.82.21-1.68.32-2.53.49-.85.11-1.63.23-2.54.3-1.72.13-3.46.13-5.15-.01-1.69-.15-3.34-.44-4.91-.82-1.57-.38-3.05-.88-4.41-1.41-1.37-.53-2.62-1.15-3.75-1.75-2.25-1.21-3.98-2.46-5.14-3.38-.58-.46-1.01-.85-1.31-1.11-.29-.27-.45-.41-.45-.41Z"/>
  <path class="cls-1" d="m138.63,419.02s.07.11.21.31c.13.21.34.49.56.89.23.39.5.88.77,1.46.26.58.55,1.25.78,2,.25.75.46,1.59.61,2.49.14.9.27,1.86.27,2.85.01.99,0,2.02-.12,3.05-.11,1.04-.25,2.06-.48,3.12-.06.25-.11.49-.18.76l-.24.8c-.07.27-.18.51-.28.77-.1.25-.19.51-.31.75-.12.24-.24.49-.36.73-.15.23-.29.46-.44.69-.13.23-.32.43-.49.65-.17.21-.33.42-.53.6-.2.18-.37.38-.58.54-.21.16-.42.31-.63.46-.21.14-.45.25-.67.37-.11.06-.22.12-.33.17l-.35.13c-.9.38-1.82.44-2.63.48-.41,0-.79-.04-1.16-.06-.36-.05-.7-.13-1.02-.18-.63-.12-1.16-.33-1.59-.45-.85-.35-1.32-.56-1.32-.56,0,0,.52.07,1.4.22.45.03.98.11,1.6.13.31,0,.63.02.97,0,.34-.04.69-.04,1.05-.09.71-.14,1.48-.3,2.19-.67.71-.35,1.39-.85,1.94-1.52.56-.66,1.03-1.43,1.4-2.3.11-.21.18-.44.26-.66.08-.22.17-.45.23-.68l.19-.68c.06-.23.11-.5.16-.74.22-.95.38-1.96.51-2.93.12-.98.22-1.94.26-2.87.04-.93.02-1.83-.03-2.69-.07-.85-.16-1.66-.29-2.4-.13-.74-.29-1.42-.44-2.02-.17-.59-.31-1.12-.46-1.54-.27-.86-.45-1.35-.45-1.35Z"/>
  <path class="cls-3" d="m103.9,400.47c.27-2.04.58-4.11,1.54-5.93.93.1,6.75.45,8.81.34-2.95.92-5.59,1.64-7.5,3.83-1.63,1.87-2.48,5.37-2.98,7.8-.37-1.99-.14-4.04.12-6.04Z"/>
  <path class="cls-1" d="m127.06,422.46c-.51,2.05-2.59,3.3-4.64,2.79-2.05-.51-3.3-2.59-2.79-4.64.51-2.05,2.59-3.3,4.64-2.79,2.05.51,3.3,2.59,2.79,4.64Z"/>
  <path class="cls-1" d="m118.36,425.7c-.19.76-.96,1.22-1.72,1.03-.76-.19-1.22-.96-1.03-1.72.19-.76.96-1.22,1.72-1.03.76.19,1.22.96,1.03,1.72Z"/>
  <path class="cls-3" d="m218.5,111.08l-5.88-7.39c5.26-6.52,7.17-12.88,5.7-18.88-1.67-6.79-7.57-12.07-12.68-14.29l1.09-9.6c.36.16,3.26,1.6,3.63,1.78,6.46,3.16,14.34,10.04,16.77,19.94,1.47,5.97,1.44,15.26-6.82,25.95-.21.27-1.6,2.22-1.82,2.49Z"/>
  <path class="cls-3" d="m92.56,155s.61.3,1.64.88c.52.27,1.17.57,1.88.94.73.35,1.56.74,2.46,1.16.92.4,1.88.86,2.94,1.31.52.23,1.05.47,1.6.71.55.23,1.11.47,1.68.72,1.13.5,2.33.97,3.53,1.49,1.21.48,2.42,1.01,3.66,1.48,1.22.51,2.46.98,3.67,1.47,1.22.48,2.41.94,3.57,1.4,1.17.43,2.28.89,3.35,1.28,1.07.4,2.07.8,3.01,1.14.94.35,1.8.66,2.56.95.77.27,1.43.54,1.99.73,1.11.39,1.74.65,1.74.65,0,0-.68-.01-1.86-.09-.59-.03-1.31-.11-2.13-.22-.41-.05-.85-.11-1.31-.17-.46-.07-.93-.17-1.43-.26-1-.17-2.08-.4-3.21-.67-1.14-.26-2.31-.6-3.53-.94-.61-.18-1.22-.38-1.84-.57-.62-.19-1.25-.4-1.88-.63-1.26-.43-2.52-.91-3.78-1.42-1.26-.5-2.49-1.05-3.7-1.6-.6-.28-1.2-.57-1.78-.86-.59-.28-1.16-.57-1.72-.88-.56-.3-1.11-.6-1.64-.89-.53-.31-1.04-.62-1.54-.91-1.01-.58-1.91-1.23-2.76-1.79-.84-.58-1.58-1.15-2.23-1.66-.65-.53-1.2-1.01-1.63-1.41-.84-.83-1.3-1.33-1.3-1.33Z"/>
  <path class="cls-1" d="m208.76,64.49s.18.07.52.2c.34.12.84.33,1.46.64.61.31,1.35.71,2.14,1.24.81.52,1.67,1.17,2.58,1.93.89.77,1.84,1.65,2.75,2.66.9,1.02,1.83,2.12,2.65,3.37.82,1.25,1.63,2.56,2.27,4,.64,1.43,1.23,2.93,1.62,4.48.38,1.55.67,3.14.76,4.72.09.79.04,1.57.05,2.34-.06.77-.08,1.53-.19,2.28-.1.74-.18,1.47-.37,2.17-.08.35-.16.7-.23,1.04-.1.34-.2.67-.29,1-.1.33-.18.65-.29.96-.12.31-.23.62-.34.92-.12.3-.23.59-.34.88-.13.28-.26.55-.38.82-.46,1.09-1.03,2.02-1.49,2.85-.51.81-.96,1.51-1.36,2.07-.82,1.1-1.3,1.71-1.3,1.71,0,0,.36-.69,1.01-1.88.31-.6.65-1.35,1.07-2.19.35-.87.8-1.83,1.16-2.92.1-.27.19-.55.29-.83.08-.29.17-.58.25-.87.09-.3.18-.6.26-.9.09-.31.15-.62.22-.94.07-.32.14-.64.22-.97.05-.33.1-.66.16-1,.12-.67.19-1.36.25-2.07.08-.7.06-1.42.09-2.15-.01-.36-.03-.73-.04-1.09,0-.37-.03-.73-.07-1.1-.1-1.48-.39-2.96-.76-4.41-.35-1.46-.89-2.88-1.47-4.24-.59-1.36-1.29-2.65-2.03-3.87-.74-1.21-1.55-2.33-2.36-3.36-.82-1.02-1.65-1.94-2.45-2.77-.82-.8-1.58-1.53-2.31-2.12-.72-.6-1.38-1.09-1.93-1.47-.56-.37-1-.67-1.32-.85-.32-.18-.49-.28-.49-.28Z"/>
  <path class="cls-3" d="m60.9,194.05c-4.24-1.06-7.64-3.11-9.79-6.05-4.24-5.79-4.1-11.06-3.23-14.47,1.97-7.79,9.44-13.36,14.83-16.47,1.43-.83,6.38-2.95,7.38-3.42,0,0-2.01,12.08-3.24,12.84-4.88,2.98-8.29,6.52-9.06,9.56-.31,1.21-.47,3.13,1.57,5.93,1.39,1.9,6.14,3.43,13.27,2.32,12.71-1.98,30.28-12.42,37.97-35.35l9.69,3.25c-4.09,12.19-11.08,22.63-20.21,30.17-7.7,6.36-16.89,10.63-25.87,12.03-4.92.76-9.45.63-13.29-.33Z"/>
  <path class="cls-1" d="m64.83,188.53s.98-.09,2.68-.26c.86-.04,1.88-.26,3.05-.41,1.17-.13,2.47-.47,3.9-.74.18-.04.36-.07.54-.11.18-.05.36-.1.54-.15.36-.1.73-.21,1.11-.31.75-.22,1.54-.38,2.32-.69.78-.28,1.58-.56,2.4-.85.8-.34,1.61-.69,2.44-1.05.84-.33,1.64-.79,2.46-1.22.41-.22.82-.43,1.24-.65.42-.21.8-.49,1.21-.73.4-.25.8-.5,1.21-.75.4-.26.82-.49,1.2-.79.77-.57,1.54-1.14,2.31-1.71.76-.58,1.47-1.24,2.21-1.85.36-.32.74-.61,1.08-.94.34-.34.67-.67,1.01-1.01.34-.33.67-.67,1-1,.34-.33.68-.65.98-1.01.61-.7,1.22-1.39,1.82-2.07.62-.66,1.12-1.4,1.67-2.08.53-.69,1.06-1.37,1.57-2.03.93-1.38,1.82-2.69,2.63-3.9.74-1.26,1.44-2.4,2.06-3.41.32-.5.57-1,.82-1.45.25-.45.47-.87.67-1.24.83-1.5,1.3-2.36,1.3-2.36,0,0-.35.91-1,2.51-.16.4-.34.84-.54,1.32-.19.48-.41,1-.68,1.53-.53,1.08-1.12,2.29-1.79,3.61-.72,1.29-1.55,2.66-2.43,4.12-.48.7-.98,1.42-1.49,2.15-.52.73-1.02,1.49-1.63,2.19-.59.72-1.19,1.45-1.8,2.18-.6.74-1.32,1.4-2,2.11-.34.35-.69.7-1.03,1.05-.35.35-.74.66-1.11.99-.75.64-1.48,1.33-2.27,1.94-.81.58-1.61,1.17-2.42,1.75-.39.31-.83.54-1.25.8-.42.26-.84.51-1.26.77-.42.25-.83.53-1.26.74-.44.21-.87.43-1.3.64-.87.42-1.7.87-2.58,1.18-.87.34-1.72.69-2.56.99-.86.25-1.7.5-2.52.75-.81.27-1.63.4-2.41.58-.39.08-.78.16-1.16.24-.19.04-.38.08-.56.12-.19.03-.37.05-.56.07-1.47.18-2.81.41-4.02.43-1.2.05-2.25.15-3.1.1-1.72-.05-2.7-.08-2.7-.08Z"/>
  <path class="cls-1" d="m67.04,158.31s-.45.31-1.23.84c-.78.53-1.89,1.31-3.18,2.27-.64.48-1.33,1.02-2.04,1.6-.71.58-1.43,1.22-2.17,1.88-.74.66-1.44,1.41-2.15,2.15-.7.76-1.36,1.57-1.97,2.41-1.22,1.68-2.16,3.53-2.64,5.38-.25.92-.34,1.84-.39,2.72,0,.44,0,.87.05,1.28.02.21.03.41.05.61.04.2.07.39.1.59.05.39.16.75.25,1.1.08.35.19.68.3.98.19.62.44,1.13.61,1.57.4.85.64,1.34.64,1.34,0,0-.09-.1-.25-.3-.16-.2-.42-.48-.69-.87-.26-.4-.62-.87-.92-1.48-.16-.3-.33-.61-.48-.97-.15-.35-.31-.72-.42-1.13-.06-.2-.13-.41-.19-.62-.05-.22-.09-.44-.14-.66-.11-.45-.14-.92-.19-1.41-.05-.97-.04-2.03.19-3.08.22-1.05.52-2.13,1.02-3.13.48-1.01,1.05-1.99,1.7-2.91.67-.9,1.39-1.76,2.15-2.55.76-.79,1.56-1.5,2.37-2.16.79-.66,1.61-1.24,2.39-1.77.78-.54,1.54-.99,2.26-1.39,1.43-.81,2.67-1.38,3.55-1.75.44-.19.79-.32,1.03-.41.24-.09.37-.14.37-.14Z"/>
  <path class="cls-3" d="m115.8,328.39s.34.03.93.12c.29.05.65.1,1.05.19.4.07.86.13,1.34.22.48.1,1,.18,1.56.28.55.1,1.13.21,1.73.31.6.1,1.22.22,1.85.33.63.11,1.27.23,1.91.33,1.28.22,2.56.44,3.76.64,1.21.2,2.34.41,3.31.58.97.19,1.79.35,2.37.47.58.12.91.2.91.2,0,0-.33.12-.91.25-.58.13-1.42.29-2.43.39-1.01.11-2.19.14-3.46.1-.63-.04-1.29-.05-1.95-.14-.66-.07-1.33-.16-2-.27-.67-.11-1.33-.25-1.98-.41-.65-.14-1.28-.34-1.88-.53-.61-.18-1.18-.4-1.72-.62-.54-.21-1.05-.43-1.51-.67-.46-.23-.87-.45-1.23-.65-.35-.21-.65-.41-.9-.57-.49-.33-.77-.54-.77-.54Z"/>
  <path class="cls-3" d="m32.22,347.76c-.5.65-2.56-.08-4.61-1.64-2.04-1.56-3.3-3.36-2.8-4.01.5-.65,2.56.08,4.61,1.64,2.04,1.56,3.3,3.36,2.8,4.01Z"/>
  <path class="cls-3" d="m50.13,54.89c-.1-.22-.21-.42-.34-.61.1-.14.16-.31.17-.47.05-.75-.42-1.24-1.08-1.51,0,.09,0,.17,0,.26-.29-.51-.68-.88-1.24-1.04-.1-.03-.24.06-.22.18.42,3-.77,5.84-1.61,8.73-.51,1.76-1.34,3.35-2.26,4.9-1.17,1.19-2.57,2.1-4.47,2.46-1.83.34-5.32.66-7.52-.32-.58-.44-1.12-.92-1.64-1.46-.04-.07-.08-.13-.11-.21-.02-.04-.08-.06-.11-.03-.21-.23-.43-.47-.63-.72-.01-.01-.03,0-.04.01-.39,1.59.91,2.98,1.84,4.17.39.5.78,1,1.17,1.48-5.69,3.05-10.66-1.68-14.91-5.16-2.35-1.93-4.72-3.76-6.73-6.06-2.4-2.75-3.65-5.95-5.32-9.13.03-.11.04-.22.06-.34,2.52-.32,4.87,4.33,7.46,6.57.9,1.04,2.04,1.91,3.21,2.51,2.04,1.05,3.73-1.93,1.75-3.11-1.11-.66-2.35-1.31-3.48-2.05-1.93-2.15-3.38-4.85-5.93-6.29-.8-.46-1.92-.8-2.73-.13-.45.37-.57.83-.6,1.32-.48.44-.89,1.06-1.21,1.83-.03.07.05.13.11.08.37-.34.73-.55,1.1-.66-.02.29-.07.57-.2.84-.01.02.01.05.04.04.15-.1.25-.21.31-.32,1.09,3.88,2.09,7.45,4.36,10.87,2.17,3.28,4.15,7.01,6.85,9.89.06.06.12.12.18.18.66,2.5,4.57,4.72,6.61,5.8,4.83,2.56,12.14,2.74,15.76-1.96,1.58.37,3.25.39,4.78-.08,1.95-.6,2.65-1.63,2.89-3.25,1.34-2.09,2.12-4.93,2.73-7,.82-2.8,2.25-7.32.99-10.18Z"/>
  <path class="cls-3" d="m25.26,50.45c-.09-.16-.22-.29-.38-.39-.15-.34-.41-.67-.82-.95-1.02-.69-1.74-1.84-2.68-2.65-.63-.55-1.26-1.11-1.84-1.71-.97-1.02-2.04-2.2-2.51-3.55-.1-.28-.44-.3-.6-.07-.75,1.09.59,3.49,1,4.52.86,2.16,2.05,4.66,3.83,6.24-.55.44-.78,1.27-.13,1.82.99.84,2.23.79,3.19-.07.83-.75,1.54-2.14.93-3.19Z"/>
  <path class="cls-3" d="m32.82,47.81c-1.45-1.3-2.64-3.52-3.41-5.28-.81-1.87-.91-4.21-1.89-5.94-.02-.03-.08-.04-.1,0-.79,1.86-.14,4.66.24,6.59.37,1.87,1.05,3.81,1.92,5.56-.28.24-.43.63-.33,1.05.21.83.96,1.43,1.83,1.37.72-.05,1.57-.49,1.87-1.18.51-.61.65-1.47-.13-2.18Z"/>
  <path class="cls-3" d="m39.88,52.56c-5.19-.91-11.84,1.92-14.09,6.91-.04.09.06.17.14.11,3.65-3.23,8.2-4.21,12.86-2.64,2.75.92,3.96-3.86,1.09-4.37Z"/>
</svg>