<?xml version="1.0" encoding="UTF-8"?>
<svg id="Capa_1" data-name="Capa 1" xmlns="http://www.w3.org/2000/svg" viewBox="0 0 212.17 447.61">
  <defs>
    <style>
      .cls-1 {
        fill: #fff;
      }

      .cls-2 {
        fill: none;
      }

      .cls-3 {
        fill: #231f20;
      }
    </style>
  </defs>
  <path class="cls-3" d="m184.85,440.15l-5.05-18.12-1.5-299.61c0-.36-.06-.71-.17-1.05l-12.47-37.35c-.89-2.66-3.27-4.37-6.08-4.36-2.8.01-5.17,1.75-6.03,4.42l-11.4,35.31-.2-39.92c-.18-35.08-22.65-65.51-32.31-76.96C108.28.91,106.3-.01,104.19,0c-2.11.01-4.09.95-5.43,2.59-9.54,11.66-31.72,42.52-31.55,77.26l.2,39.92-11.75-35.2c-.89-2.66-3.28-4.37-6.08-4.35-2.8.01-5.17,1.75-6.03,4.42l-12.1,37.49c-.11.34-.16.69-.16,1.04l1.5,299.61-4.87,18.17c-.23.87-.1,1.81.35,2.58.46.78,1.22,1.34,2.09,1.56,6.89,1.71,13.97,2.56,21.06,2.52h.6c6.89-.09,13.77-1.01,20.43-2.73.87-.22,1.63-.8,2.08-1.58.45-.78.57-1.72.33-2.59l-5.05-18.12-.17-34.34,72.98-.37.17,34.34-4.87,18.17c-.23.87-.1,1.81.35,2.58.46.78,1.22,1.34,2.09,1.56,6.89,1.71,13.97,2.56,21.06,2.52h.6c6.89-.09,13.76-1.01,20.43-2.73.87-.22,1.62-.8,2.08-1.58.45-.78.57-1.72.33-2.59Z"/>
  <g>
    <g>
      <path class="cls-3" d="m69.2,79.84c.22,43.13,1.54,306.41,1.54,306.41l70.74-.35s-1.31-260.53-1.54-306.41c-.17-34.57-22.57-64.7-31.84-75.69-2.05-2.43-5.8-2.4-7.81.06-9.14,11.16-31.27,41.75-31.1,75.98Z"/>
      <path class="cls-1" d="m100.95,6.61s-.83,1.26-2.37,3.63c-1.55,2.37-3.79,5.85-6.42,10.42-2.64,4.56-5.68,10.19-8.59,16.91-2.91,6.71-5.73,14.51-7.58,23.29-.92,4.39-1.59,9.02-1.86,13.84-.07,1.2-.1,2.42-.12,3.65,0,1.22,0,2.47.02,3.73.02,2.52.04,5.07.06,7.67.07,10.37.14,21.3.22,32.61.02,5.65.05,11.4.07,17.22.02,5.82.03,11.71.05,17.65.03,11.87.07,23.94.1,36,.04,24.13.08,48.25.12,70.87.01,22.62.03,43.73.04,61.82-.03,36.19-.05,60.32-.05,60.32,0,0-.26-24.12-.66-60.31-.17-18.09-.37-39.2-.58-61.82-.19-22.62-.39-46.74-.59-70.87-.09-12.06-.17-24.13-.26-36-.04-5.94-.08-11.83-.13-17.65-.03-5.82-.07-11.57-.1-17.22-.04-11.31-.08-22.24-.11-32.61,0-2.59,0-5.15-.01-7.67,0-1.26,0-2.51,0-3.76.03-1.25.07-2.5.15-3.73.15-2.46.41-4.87.75-7.22.34-2.35.78-4.64,1.27-6.87.99-4.45,2.23-8.65,3.62-12.55,1.39-3.91,2.89-7.55,4.45-10.89,3.12-6.69,6.32-12.28,9.11-16.77,2.81-4.48,5.2-7.88,6.84-10.18,1.66-2.29,2.55-3.51,2.55-3.51Z"/>
      <path class="cls-1" d="m107.41,5.5s.9,1.22,2.59,3.49c1.66,2.3,4.09,5.68,6.95,10.15,2.83,4.48,6.09,10.05,9.28,16.74,1.59,3.34,3.13,6.98,4.56,10.88,1.43,3.9,2.71,8.1,3.75,12.55.52,2.23.97,4.52,1.34,6.87.36,2.35.64,4.77.82,7.23.09,1.23.15,2.48.18,3.73.03,1.26.04,2.51.05,3.77.02,2.52.04,5.09.06,7.69.07,10.39.14,21.36.22,32.7.02,5.67.05,11.43.07,17.27.02,5.84.03,11.74.05,17.69.03,11.91.07,24,.1,36.1.04,24.19.08,48.38.12,71.06.01,22.68.03,43.85.04,61.99-.03,36.29-.05,60.48-.05,60.48,0,0-.26-24.19-.66-60.48-.17-18.14-.37-39.31-.58-61.99-.19-22.68-.39-46.87-.59-71.06-.09-12.1-.17-24.19-.26-36.1-.04-5.95-.08-11.86-.13-17.69-.03-5.84-.07-11.6-.1-17.27-.04-11.34-.08-22.3-.11-32.7,0-2.6,0-5.16-.01-7.69,0-1.26,0-2.52-.02-3.74-.03-1.23-.08-2.45-.16-3.65-.32-4.83-1.03-9.47-1.99-13.86-1.94-8.79-4.84-16.59-7.81-23.29-2.97-6.71-6.07-12.34-8.76-16.88-2.67-4.56-4.96-8.03-6.53-10.39-1.57-2.36-2.41-3.62-2.41-3.62Z"/>
      <path class="cls-1" d="m103.07,4.49s.08.37.23,1.07c.15.71.37,1.76.66,3.13.27,1.37.61,3.07.97,5.07.18,1,.37,2.07.57,3.22.2,1.15.41,2.37.61,3.66.41,2.58.85,5.45,1.29,8.57.43,3.12.86,6.51,1.27,10.13.2,1.81.41,3.68.59,5.61.19,1.93.39,3.91.55,5.95.08,1.02.17,2.05.26,3.1.07,1.05.14,2.11.22,3.18.07,1.07.14,2.16.22,3.25.06,1.1.12,2.21.18,3.33.14,2.24.21,4.53.29,6.87.02.58.04,1.17.06,1.76.01.59.02,1.18.04,1.78.02,1.19.05,2.39.07,3.6.05,4.83.11,9.82.16,14.95.03,2.56.05,5.16.08,7.79.02,2.63.03,5.29.05,7.99.03,5.38.07,10.89.1,16.48.03,11.19.07,22.75.1,34.5,0,11.75.02,23.68.03,35.62,0,23.87-.01,47.74-.02,70.12-.05,22.38-.09,43.27-.12,61.17-.07,17.9-.13,32.82-.17,43.27-.06,10.44-.09,16.41-.09,16.41,0,0-.09-5.97-.26-16.41-.15-10.44-.35-25.36-.6-43.26-.22-17.9-.47-38.79-.74-61.17-.23-22.38-.48-46.25-.72-70.12-.11-11.93-.22-23.87-.33-35.62-.08-11.75-.17-23.31-.25-34.5-.02-5.59-.04-11.1-.06-16.48-.01-2.69-.02-5.36-.03-7.99,0-2.63,0-5.23,0-7.79,0-5.13,0-10.11,0-14.94-.02-4.81-.11-9.45-.26-13.91-.04-1.11-.07-2.22-.11-3.31-.05-1.09-.1-2.17-.15-3.24-.05-1.07-.1-2.12-.15-3.16-.06-1.04-.12-2.07-.17-3.09-.1-2.03-.23-4.01-.36-5.93-.12-1.92-.27-3.79-.4-5.6-.26-3.62-.55-7.01-.84-10.14-.28-3.13-.56-6-.83-8.6-.26-2.6-.51-4.91-.75-6.93-.22-2.02-.43-3.73-.6-5.12-.17-1.39-.3-2.45-.39-3.17-.09-.72-.14-1.09-.14-1.09Z"/>
      <path class="cls-1" d="m118.13,78.72c.22,43.25,1.54,307.28,1.54,307.28l10.39-.05s-1.31-261.27-1.54-307.28c-.19-37.69-23.83-75.03-23.41-73.86,4.53,12.51,12.83,36.6,13.02,73.91Z"/>
    </g>
    <g>
      <g>
        <path class="cls-1" d="m66.44,423.05l-1.5-300.07-12.47-37.35c-.92-2.75-4.82-2.73-5.71.03l-12.1,37.48,1.5,300.07-4.98,18.61c5.25,1.3,12.36,2.52,20.8,2.42,7.91-.09,14.6-1.32,19.63-2.62-1.72-6.19-3.45-12.37-5.17-18.56Z"/>
        <path class="cls-3" d="m51.41,445.61c-6.92.03-13.84-.79-20.57-2.46-.36-.09-.67-.32-.85-.64-.19-.32-.24-.7-.14-1.06l4.93-18.43-1.5-299.88c0-.15.02-.29.07-.43l12.1-37.48c.59-1.83,2.22-3.03,4.15-3.04s3.57,1.17,4.18,2.99l12.47,37.35c.05.14.07.28.07.43l1.5,299.88,5.12,18.38c.1.36.05.74-.13,1.06-.18.32-.49.55-.85.65-6.52,1.69-13.23,2.59-19.96,2.67-.2,0-.39,0-.59,0Zm-18.54-4.81c6.07,1.4,12.3,2.09,18.53,2.06.19,0,.38,0,.57,0,6.04-.07,12.07-.82,17.94-2.24l-4.79-17.19c-.03-.12-.05-.24-.05-.36l-1.5-299.85-12.4-37.14c-.35-1.04-1.28-1.11-1.55-1.11-.28,0-1.21.09-1.54,1.13l-12.03,37.27,1.5,299.85c0,.12-.02.24-.05.36l-4.62,17.24Z"/>
      </g>
      <path class="cls-3" d="m43.26,123.1l6.1-39.5c-1.12.09-2.19.77-2.61,2.06l-12.1,37.48,1.5,300.07-4.98,18.61,11.65,2.02,1.94-20.67-1.5-300.07Z"/>
      <path class="cls-1" d="m48.32,85.66c-.42,1.58-.83,3.15-1.26,4.73l-1.28,4.72-1.29,4.72-1.31,4.71-2.65,9.41-2.7,9.4.03-.22c.08,6.25.17,12.5.21,18.75l.15,18.75.08,9.38.05,9.38.09,18.75.14,37.51.07,18.75.03,9.38.06,9.38.46,75.02c.04,6.25.04,12.5.05,18.75l.04,18.75c-.01,6.25,0,12.5-.05,18.75-.03,6.25-.09,12.5-.17,18.76v.02s0,.07-.02.1l-1.33,4.63-1.36,4.62-1.36,4.62-1.38,4.62,1.11-4.69,1.14-4.68,1.14-4.68,1.16-4.67-.02.12c-.14-6.25-.26-12.5-.36-18.75-.11-6.25-.16-12.5-.24-18.75l-.15-18.75c-.04-6.25-.12-12.5-.13-18.75l-.29-75.02-.03-9.38-.06-9.38-.12-18.75-.24-37.51-.1-18.75-.05-9.38-.02-9.38-.04-18.75c-.02-6.25,0-12.5.02-18.75h0c0-.09.01-.16.03-.22l2.91-9.34,2.96-9.32,1.5-4.66,1.52-4.65,1.52-4.65c.5-1.55,1.03-3.09,1.55-4.64Z"/>
      <path class="cls-3" d="m49.95,85.65c.51,1.53,1.03,3.07,1.52,4.61.5,1.54,1,3.07,1.49,4.62.49,1.54.99,3.08,1.46,4.62l1.44,4.63c.48,1.54.94,3.09,1.42,4.64l1.41,4.64,2.75,9.29c.03.09.04.18.04.28v.04s.16,9.38.16,9.38c.06,3.13.09,6.25.12,9.38l.19,18.75.08,9.38.04,9.38.08,18.75.09,37.51.06,18.75.03,9.38.06,9.38.27,37.51.14,18.75.11,18.75c.05,6.25.03,12.5.05,18.75l-.02,18.75c-.04,6.25-.05,12.5-.14,18.76-.04,3.13-.07,6.25-.13,9.38-.06,3.13-.11,6.25-.19,9.38l-.04-.25,1.4,4.23,1.37,4.24,1.36,4.24c.45,1.41.88,2.84,1.32,4.26-.58-1.37-1.17-2.73-1.74-4.1l-1.71-4.11-1.69-4.12-1.67-4.13c-.03-.06-.04-.13-.04-.2v-.05c-.12-3.13-.2-6.25-.29-9.38-.1-3.13-.16-6.25-.23-9.38-.16-6.25-.22-12.5-.33-18.75l-.21-18.75c-.04-6.25-.12-12.5-.14-18.75l-.08-18.75-.05-18.75-.11-37.51-.03-9.38-.06-9.38-.12-18.75-.29-37.51-.11-18.75-.05-9.38-.02-9.38v-18.75c0-3.13.01-6.25.04-9.38l.07-9.38.04.32-2.4-9.39-1.17-4.7c-.39-1.57-.79-3.13-1.16-4.71l-1.14-4.71c-.38-1.57-.74-3.15-1.12-4.72-.37-1.57-.73-3.15-1.09-4.72-.36-1.57-.7-3.16-1.05-4.74Z"/>
      <path class="cls-1" d="m35.25,150.41c3.48-1.79,7.44-2.7,11.32-3.07,4.43-.42,8.96-.15,13.28.94,1.86.47,3.75,1.07,5.45,1.98-3.78.38-7.61.3-11.4.32-4.23.02-8.46.07-12.7.04-1.98-.01-3.98-.03-5.96-.2Z"/>
      <path class="cls-1" d="m35.42,184.41c3.48-1.79,7.44-2.7,11.32-3.07,4.43-.42,8.96-.15,13.28.94,1.86.47,3.75,1.07,5.45,1.98-3.78.38-7.61.3-11.4.32-4.23.02-8.46.07-12.7.04-1.98-.01-3.98-.03-5.96-.2Z"/>
      <path class="cls-1" d="m35.75,250.85c3.48-1.79,7.44-2.7,11.32-3.07,4.43-.42,8.96-.15,13.28.94,1.86.47,3.75,1.07,5.45,1.98-3.78.38-7.61.3-11.4.32-4.23.02-8.46.07-12.7.04-1.98-.01-3.98-.03-5.96-.2Z"/>
      <path class="cls-1" d="m36.6,420.45c3.78-.37,7.61-.29,11.4-.31,4.23-.02,8.46-.08,12.7-.04,1.98.02,3.98.03,5.96.21-1.45.79-3.05,1.35-4.63,1.81-2.11.61-4.28,1.01-6.47,1.24-4.4.46-8.93.19-13.23-.86-1.97-.48-3.9-1.13-5.72-2.04Z"/>
      <path class="cls-1" d="m36.56,412.67c3.78-.37,7.61-.29,11.4-.31,4.23-.02,8.46-.08,12.7-.04,1.98.02,3.98.03,5.96.21-1.45.79-3.05,1.35-4.63,1.81-2.11.61-4.28,1.01-6.47,1.24-4.4.46-8.93.19-13.23-.86-1.97-.48-3.9-1.13-5.72-2.04Z"/>
      <path class="cls-1" d="m36.52,404.89c3.78-.37,7.61-.29,11.4-.31,4.23-.02,8.46-.08,12.7-.04,1.98.02,3.98.03,5.96.21-1.45.79-3.05,1.35-4.63,1.81-2.11.61-4.28,1.01-6.47,1.24-4.4.46-8.93.19-13.23-.86-1.97-.48-3.9-1.13-5.72-2.04Z"/>
      <path class="cls-3" d="m65.05,152.98c-4.78-.91-9.67-1.37-14.54-1.36-5.03,0-10.06.52-14.98,1.51l-.54-2.7c5.1-1.03,10.32-1.55,15.52-1.56,5.04-.01,10.11.46,15.07,1.41l-.52,2.7Z"/>
      <path class="cls-3" d="m65.22,186.98c-4.78-.91-9.67-1.37-14.54-1.36-5.03.02-10.06.52-14.98,1.51l-.54-2.7c5.1-1.03,10.32-1.55,15.52-1.56,5.04-.01,10.11.46,15.07,1.41l-.52,2.7Z"/>
      <path class="cls-3" d="m65.55,253.43c-4.78-.91-9.67-1.37-14.54-1.36-5.01,0-10.06.52-14.98,1.51l-.54-2.7c5.02-1.01,10.16-1.54,15.29-1.56.08,0,.15,0,.23,0,5.04-.01,10.11.46,15.07,1.41l-.52,2.7Z"/>
      <path class="cls-3" d="m51.65,424.54c-5.23.03-10.48-.45-15.62-1.41l.51-2.71c5.04.94,10.2,1.4,15.33,1.36,4.98-.04,9.98-.55,14.86-1.51l.53,2.7c-5.05,1-10.22,1.52-15.37,1.56-.08,0-.16,0-.24,0Z"/>
      <path class="cls-3" d="m51.61,416.76c-5.23.03-10.48-.45-15.62-1.41l.51-2.71c4.97.93,10.05,1.39,15.1,1.36.08,0,.15,0,.23,0,4.98-.04,9.97-.55,14.86-1.51l.53,2.7c-5.05,1-10.22,1.52-15.37,1.56-.08,0-.16,0-.24,0Z"/>
      <path class="cls-3" d="m51.57,408.99c-5.23.03-10.49-.45-15.62-1.41l.51-2.71c4.97.93,10.05,1.39,15.1,1.36.08,0,.15,0,.23,0,4.98-.04,9.97-.55,14.86-1.51l.53,2.7c-5.05,1-10.22,1.52-15.37,1.56-.08,0-.16,0-.24,0Z"/>
      <path class="cls-3" d="m35.86,388.8v11.97s5.73,1.88,16.01,1.83c7.76-.04,14.2-2.42,14.2-2.42l-.03-6.15-30.17-5.23Z"/>
    </g>
    <g>
      <g>
        <path class="cls-1" d="m176.43,422.5l-1.5-300.07-12.47-37.35c-.92-2.75-4.82-2.73-5.71.03l-12.1,37.48,1.5,300.07-4.98,18.61c5.25,1.3,12.36,2.52,20.8,2.42,7.91-.09,14.6-1.32,19.63-2.62-1.72-6.19-3.45-12.37-5.17-18.56Z"/>
        <path class="cls-3" d="m161.4,445.06c-6.92.03-13.84-.79-20.57-2.46-.36-.09-.67-.32-.85-.64-.19-.32-.24-.7-.14-1.06l4.93-18.43-1.5-299.88c0-.15.02-.29.07-.43l12.1-37.48c.59-1.83,2.22-3.03,4.15-3.04,1.93,0,3.57,1.17,4.18,2.99l12.47,37.35c.05.14.07.28.07.43l1.5,299.88,5.12,18.38c.1.36.05.74-.13,1.06-.18.32-.49.55-.85.65-6.52,1.69-13.23,2.59-19.96,2.67-.2,0-.39,0-.59,0Zm-18.54-4.81c6.07,1.4,12.3,2.09,18.53,2.06.19,0,.38,0,.57,0,6.04-.07,12.07-.82,17.94-2.24l-4.79-17.19c-.03-.12-.05-.24-.05-.36l-1.5-299.85-12.4-37.14c-.35-1.04-1.28-1.11-1.55-1.11-.28,0-1.21.09-1.54,1.13l-12.03,37.27,1.5,299.85c0,.12-.02.24-.05.36l-4.62,17.24Z"/>
      </g>
      <path class="cls-3" d="m153.25,122.54l6.1-39.5c-1.12.09-2.19.77-2.61,2.06l-12.1,37.48,1.5,300.07-4.98,18.61,11.65,2.02,1.94-20.67-1.5-300.07Z"/>
      <path class="cls-1" d="m158.31,85.1c-.42,1.58-.83,3.16-1.26,4.73l-1.28,4.72-1.29,4.72-1.31,4.71-2.65,9.41-2.7,9.4.03-.22c.08,6.25.17,12.5.21,18.75l.15,18.75.08,9.38.05,9.38.09,18.75.14,37.51.07,18.75.03,9.38.06,9.38.46,75.02c.04,6.25.04,12.5.05,18.75l.04,18.75c-.01,6.25,0,12.5-.05,18.75-.03,6.25-.09,12.5-.17,18.76v.02s0,.07-.02.1l-1.33,4.63-1.36,4.62-1.36,4.62-1.38,4.62,1.11-4.69,1.14-4.68,1.14-4.68,1.16-4.67-.02.12c-.14-6.25-.26-12.5-.36-18.75-.11-6.25-.16-12.5-.24-18.75l-.15-18.75c-.04-6.25-.12-12.5-.13-18.75l-.29-75.02-.03-9.38-.06-9.38-.12-18.75-.24-37.51-.1-18.75-.05-9.38-.02-9.38-.04-18.75c-.02-6.25,0-12.5.02-18.75h0c0-.09.01-.16.03-.22l2.91-9.34,2.96-9.32,1.5-4.66,1.52-4.65,1.52-4.65c.5-1.55,1.03-3.09,1.55-4.64Z"/>
      <path class="cls-3" d="m159.94,85.1c.51,1.53,1.03,3.07,1.52,4.61.5,1.54,1,3.07,1.49,4.62.49,1.54.99,3.08,1.46,4.62l1.44,4.63c.48,1.54.94,3.09,1.42,4.64l1.41,4.64,2.75,9.29c.03.09.04.18.04.28v.04s.16,9.38.16,9.38c.06,3.13.09,6.25.13,9.38l.19,18.75.08,9.38.04,9.38.08,18.75.09,37.51.06,18.75.03,9.38.06,9.38.27,37.51.14,18.75.11,18.75c.05,6.25.03,12.5.05,18.75l-.02,18.75c-.04,6.25-.05,12.5-.14,18.76-.04,3.13-.07,6.25-.14,9.38-.06,3.13-.11,6.25-.19,9.38l-.04-.25,1.4,4.23,1.37,4.24,1.36,4.24c.45,1.41.88,2.84,1.32,4.26-.58-1.37-1.17-2.73-1.74-4.1l-1.71-4.11-1.69-4.12-1.67-4.13c-.03-.06-.04-.13-.04-.2v-.05c-.12-3.13-.2-6.25-.29-9.38-.1-3.13-.16-6.25-.23-9.38-.16-6.25-.23-12.5-.33-18.75l-.21-18.75c-.04-6.25-.12-12.5-.14-18.75l-.08-18.75-.05-18.75-.11-37.51-.03-9.38-.06-9.38-.12-18.75-.29-37.51-.11-18.75-.05-9.38-.02-9.38v-18.75c0-3.13.01-6.25.04-9.38l.07-9.38.04.32-2.4-9.39-1.17-4.7c-.39-1.57-.79-3.13-1.16-4.71l-1.14-4.71c-.39-1.57-.74-3.15-1.12-4.72-.37-1.57-.73-3.15-1.09-4.72-.36-1.57-.7-3.16-1.05-4.74Z"/>
      <path class="cls-1" d="m145.24,149.85c3.48-1.79,7.44-2.7,11.32-3.07,4.43-.42,8.96-.15,13.28.94,1.86.47,3.75,1.07,5.45,1.98-3.78.38-7.61.3-11.4.32-4.23.02-8.46.07-12.7.04-1.98-.01-3.98-.03-5.96-.2Z"/>
      <path class="cls-1" d="m145.41,183.85c3.48-1.79,7.44-2.7,11.32-3.07,4.43-.42,8.96-.15,13.28.94,1.86.47,3.75,1.07,5.45,1.98-3.78.38-7.61.3-11.4.32-4.23.02-8.46.07-12.7.04-1.98-.01-3.98-.03-5.96-.2Z"/>
      <path class="cls-1" d="m145.75,250.3c3.48-1.79,7.44-2.7,11.32-3.07,4.43-.42,8.96-.15,13.28.94,1.86.47,3.75,1.07,5.45,1.98-3.78.38-7.61.3-11.4.32-4.23.02-8.46.07-12.7.04-1.98-.01-3.98-.03-5.96-.2Z"/>
      <path class="cls-1" d="m146.6,419.89c3.78-.37,7.61-.29,11.4-.31,4.23-.02,8.46-.08,12.7-.04,1.98.02,3.98.03,5.96.21-1.45.79-3.05,1.35-4.63,1.81-2.11.61-4.28,1.01-6.47,1.24-4.4.46-8.93.19-13.23-.86-1.97-.48-3.9-1.13-5.72-2.04Z"/>
      <path class="cls-1" d="m146.56,412.12c3.78-.37,7.61-.29,11.4-.31,4.23-.02,8.46-.08,12.7-.04,1.98.02,3.98.03,5.96.21-1.45.79-3.05,1.35-4.63,1.81-2.11.61-4.28,1.01-6.47,1.24-4.4.46-8.93.19-13.23-.86-1.97-.48-3.9-1.13-5.72-2.04Z"/>
      <path class="cls-1" d="m146.52,404.34c3.78-.37,7.61-.29,11.4-.31,4.23-.02,8.46-.08,12.7-.04,1.98.02,3.98.03,5.96.21-1.45.79-3.05,1.35-4.63,1.81-2.11.61-4.28,1.01-6.47,1.24-4.4.46-8.93.19-13.23-.86-1.97-.48-3.9-1.13-5.72-2.04Z"/>
      <path class="cls-3" d="m175.04,152.43c-4.78-.91-9.67-1.37-14.54-1.36-5.02.02-10.06.52-14.98,1.51l-.54-2.7c5.1-1.03,10.31-1.55,15.52-1.56,5.04-.01,10.11.46,15.07,1.41l-.52,2.7Z"/>
      <path class="cls-3" d="m175.21,186.43c-4.78-.91-9.67-1.37-14.54-1.36-5.02.02-10.06.52-14.98,1.51l-.54-2.7c5.1-1.03,10.31-1.55,15.52-1.56,5.04-.01,10.11.46,15.07,1.41l-.52,2.7Z"/>
      <path class="cls-3" d="m175.55,252.88c-4.78-.91-9.67-1.37-14.54-1.36-.07,0-.15,0-.22,0-4.95.02-9.91.53-14.76,1.51l-.54-2.7c5.1-1.03,10.31-1.57,15.52-1.56,5.04-.01,10.11.46,15.07,1.41l-.52,2.7Z"/>
      <path class="cls-3" d="m161.65,423.99c-5.23.03-10.48-.45-15.62-1.41l.51-2.71c5.04.94,10.19,1.4,15.33,1.36,4.98-.04,9.98-.55,14.85-1.51l.53,2.7c-5.05,1-10.22,1.52-15.37,1.56-.08,0-.16,0-.24,0Z"/>
      <path class="cls-3" d="m161.61,416.21c-5.23.03-10.48-.45-15.62-1.41l.51-2.71c4.97.93,10.05,1.39,15.1,1.36.08,0,.15,0,.23,0,4.98-.04,9.97-.55,14.86-1.51l.53,2.7c-5.05,1-10.22,1.52-15.37,1.56-.08,0-.16,0-.24,0Z"/>
      <path class="cls-3" d="m161.57,408.43c-5.23.03-10.49-.45-15.62-1.41l.51-2.71c4.97.93,10.05,1.39,15.1,1.36.08,0,.15,0,.23,0,4.98-.04,9.98-.55,14.85-1.51l.53,2.7c-5.05,1-10.22,1.52-15.37,1.56-.08,0-.16,0-.24,0Z"/>
      <path class="cls-3" d="m176.15,386.14l.13,11.96s-5.73,1.94-16,1.99c-7.76.04-14.22-2.28-14.22-2.28l-.03-6.15,30.12-5.53Z"/>
    </g>
  </g>
  <path class="cls-1" d="m212.12,377.44c-.02-.34-.04-.7-.04-1.05-.02-3.42-.77-9.36-2.24-17.67-2.13-12.06-7.97-17.52-11.86-21.17-.6-.57-1.18-1.1-1.66-1.61-1.59-1.65-4.06-3.91-7.83-7.38-5.32-4.88-13.36-12.27-24.29-22.88-14.19-13.78-15.76-25.3-16.79-32.93-.21-1.52-.4-2.95-.66-4.31-1.6-8.29-11.62-66.68-12.91-74.45v-1.61c-.11-20.73-13.57-53.48-15.02-56.34-.18-.35-.37-.75-.58-1.2-2.17-4.53-5.8-12.1-13.44-12.06-7.64.04-11.19,7.65-13.32,12.2l-.06.12c-.18.39-.35.76-.52,1.08-1.42,2.87-14.55,35.75-14.44,56.49v1.71c-1.35,8.77-10.67,66.44-12.14,74.47-.25,1.37-.43,2.81-.62,4.33-.96,7.63-2.41,19.16-16.46,33.08-10.86,10.76-18.82,18.22-24.09,23.16-3.71,3.47-6.16,5.76-7.72,7.42-.49.52-1.06,1.06-1.69,1.66-3.82,3.65-9.6,9.17-11.61,21.25-1.38,8.32-2.08,14.27-2.06,17.69,0,.36-.02.72-.03,1.13-.11,2.39-.4,8.74,7.1,10.84,3.11.87,41.93,8.24,61.02,11.84l.04,7.57c0,1.91,1.05,3.69,2.72,4.63l5.57,3.13,1.77,7.81c.36,1.63,1.49,3.01,3.01,3.7,4.22,1.91,8.89,2.92,13.52,2.91h.14c1.24,0,2.49-.09,3.73-.24,1.15,12.51,2.2,15.11,5.78,16.36.64.22,1.3.34,1.98.33.68,0,1.34-.12,1.96-.35,3.56-1.28,4.58-3.83,5.59-15.92,1.64.22,3.29.28,4.98.2,4.48-.21,8.92-1.52,12.84-3.77,1.3-.75,2.24-2.03,2.56-3.5l1.7-7.84,5.53-3.19c1.66-.95,2.69-2.74,2.68-4.66l-.04-7.57c22.53-4.49,57.91-11.58,60.92-12.46,7.48-2.18,7.12-8.53,6.98-10.98Z"/>
  <g>
    <path class="cls-3" d="m209.14,377.66c-.02-.41-.05-.84-.05-1.27-.02-3.25-.75-9.02-2.19-17.16-1.96-11.08-7.14-15.93-10.93-19.48-.66-.61-1.28-1.2-1.81-1.74-1.52-1.58-3.96-3.82-7.67-7.22-5.34-4.9-13.4-12.3-24.38-22.97-14.93-14.5-16.58-26.63-17.67-34.67-.2-1.47-.39-2.87-.64-4.15-1.63-8.46-11.81-67.77-12.96-74.76v-1.84c-.11-20.19-13.28-52.21-14.7-55.01-.18-.37-.38-.78-.61-1.26-1.98-4.14-4.98-10.4-10.73-10.37-5.75.03-8.68,6.31-10.63,10.47l-.06.12c-.19.41-.37.8-.54,1.14-1.39,2.81-14.24,34.95-14.14,55.15v1.95c-1.11,7.27-10.64,66.34-12.18,74.78-.23,1.28-.41,2.68-.6,4.17-1.01,8.04-2.54,20.18-17.32,34.83-10.87,10.78-18.86,18.26-24.15,23.21-3.67,3.44-6.09,5.7-7.59,7.3-.52.55-1.14,1.14-1.79,1.77-3.75,3.58-8.88,8.49-10.72,19.58-1.36,8.15-2.04,13.94-2.02,17.19,0,.43-.02.85-.04,1.28-.11,2.38-.29,6.36,4.92,7.82,3.19.89,47.96,9.37,63.19,12.24l.05,10.03c0,.84.46,1.63,1.2,2.04l6.73,3.78,2.07,9.11c.16.72.66,1.33,1.33,1.63,3.83,1.74,8.08,2.65,12.28,2.65h.12c2.15-.01,4.31-.26,6.44-.75,1.29,15.42,2.21,16.39,4.09,17.05.31.11.64.16.97.16.33,0,.66-.06.96-.17,1.86-.67,2.77-1.64,3.89-16.69,2.47.64,4.94.92,7.56.79,4.01-.19,7.98-1.36,11.49-3.38.58-.33.99-.89,1.13-1.54l1.98-9.14,6.68-3.85c.73-.42,1.19-1.21,1.18-2.05l-.05-10.03c15.2-3.03,59.89-11.95,63.08-12.88,5.19-1.51,4.97-5.49,4.84-7.88Z"/>
    <g>
      <g>
        <path class="cls-1" d="m128,194.59c1.12,6.88,11.4,66.7,12.99,74.95,1.59,8.25.8,22.54,19.13,40.34,18.33,17.8,28.35,26.36,31.98,30.12,3.63,3.77,9.84,7.66,11.97,19.73,1.46,8.27,2.13,13.75,2.15,16.68.01,2.92.89,5.33-2.72,6.38-3.61,1.05-66.69,13.58-66.69,13.58l-7.8.04-1.01-201.82Z"/>
        <path class="cls-3" d="m136.81,397.75l-7.8.04c-.76,0-1.38-.61-1.38-1.37l-1.01-201.82c0-.72.55-1.32,1.26-1.38.71-.06,1.36.44,1.47,1.15,1.05,6.44,11.35,66.43,12.99,74.92.24,1.25.43,2.62.63,4.08,1.12,8.23,2.81,20.67,18.11,35.53,10.99,10.67,19.07,18.09,24.41,23,3.68,3.38,6.12,5.62,7.6,7.15.56.58,1.19,1.17,1.86,1.8,3.63,3.4,8.6,8.06,10.47,18.64,1.42,8.06,2.15,13.75,2.17,16.91,0,.46.03.91.05,1.35.13,2.31.29,5.18-3.77,6.36-3.62,1.06-64.23,13.1-66.81,13.61-.09.02-.17.03-.26.03Zm-6.44-2.72l6.29-.03c21.83-4.34,63.64-12.71,66.45-13.53,1.88-.55,1.92-1.19,1.79-3.56-.03-.48-.05-.97-.06-1.49-.01-2.07-.39-6.6-2.13-16.45-1.71-9.68-6.11-13.8-9.64-17.11-.7-.65-1.36-1.27-1.96-1.9-1.42-1.48-3.83-3.69-7.48-7.04-5.36-4.92-13.45-12.35-24.47-23.05-15.98-15.53-17.75-28.53-18.92-37.13-.19-1.42-.38-2.76-.6-3.93-1.16-6.03-6.69-38.03-10.18-58.4l.92,183.62Z"/>
      </g>
      <path class="cls-3" d="m204.21,369.2c-2.13-12.06-12.61-21.33-16.25-25.1-3.63-3.77-13.65-12.32-31.98-30.12-18.33-17.8-17.54-32.09-19.13-40.34-.93-4.82-4.91-43.19-8.28-75.61,2.47,14.63,10.98,64.07,12.42,71.52,1.59,8.25.8,22.54,19.13,40.34,18.33,17.8,28.35,26.36,31.98,30.12,3.63,3.77,9.84,7.66,11.97,19.73,1.46,8.27,2.13,13.75,2.15,16.68,0,1.78.33,3.36-.22,4.57-.34-2.99-.93-6.89-1.79-11.78Z"/>
      <path class="cls-3" d="m171.15,372.5l2.24-.09,32.5-1.24c.13,1.34.22,2.52.27,3.54l-32.45,2.63-2.36.19-42.41,3.44-.03-6.87,42.25-1.62Z"/>
      <path class="cls-3" d="m172.1,389.14s-.03-.47-.09-1.3c-.05-.83-.13-2-.2-3.42-.03-.71-.07-1.48-.11-2.29-.04-.81-.08-1.67-.12-2.55-.07-1.77-.14-3.66-.19-5.56-.02-.95-.05-1.89-.07-2.82-.02-.93-.04-1.85-.05-2.74-.04-1.77-.03-3.43-.04-4.85-.02-1.42.01-2.61.01-3.44.01-.83.02-1.3.02-1.3,0,0,.08.47.21,1.29.12.82.32,1.99.52,3.4.19,1.41.45,3.05.67,4.81.11.88.23,1.79.35,2.71.11.92.23,1.86.34,2.8.22,1.88.44,3.76.62,5.52.09.88.18,1.73.26,2.54.08.81.16,1.57.23,2.28.14,1.41.23,2.59.3,3.41.06.82.1,1.3.1,1.3l-2.75.2Z"/>
      <g>
        <path class="cls-3" d="m73.47,396.69l.06,12.1,7.64,4.3,2.3,10.13c2.15.98,6.13,2.44,11.31,2.44,5.3,0,9.36-1.55,11.52-2.55,1.87,1.05,6.37,3.23,12.4,2.95,4.93-.23,8.59-2.01,10.42-3.06.73-3.39,1.47-6.77,2.2-10.16l7.59-4.37-.06-12.1-65.38.33Z"/>
        <path class="cls-3" d="m117.74,426.95c-4.96.02-8.92-1.5-11.48-2.87-3.56,1.59-7.47,2.43-11.36,2.45h-.12c-3.99,0-8.03-.87-11.67-2.51-.25-.11-.42-.33-.48-.59l-2.22-9.76-7.3-4.11c-.27-.15-.44-.44-.44-.75l-.06-12.1c0-.48.38-.86.86-.86l65.38-.33c.48,0,.86.38.86.86l.06,12.1c0,.31-.16.6-.43.75l-7.26,4.18-2.12,9.79c-.05.24-.2.44-.41.56-3.3,1.9-7.04,3-10.81,3.18-.34.02-.67.02-1,.03Zm-11.45-4.69c.15,0,.29.04.43.11,2.5,1.4,6.65,3.09,11.94,2.84,3.37-.16,6.72-1.11,9.7-2.76l2.12-9.78c.05-.24.2-.44.41-.56l7.16-4.12-.05-10.74-63.66.32.05,10.74,7.2,4.05c.21.12.36.32.42.56l2.21,9.71c3.31,1.44,6.96,2.19,10.57,2.19h.11c3.79-.02,7.61-.87,11.04-2.47.11-.05.24-.08.36-.08Z"/>
      </g>
      <g>
        <path class="cls-1" d="m128.97,392.83c-.3-59.08-.93-185.62-1-200.42-.1-19.39-12.76-50.52-14.38-53.73-1.62-3.2-4.29-10.07-8.77-10.05-4.47.02-7.08,6.92-8.67,10.14s-13.94,34.48-13.84,53.87c.07,13.31,1,200.32,1,200.32l-9.85,3.74,65.38-.33-9.88-3.54Z"/>
        <path class="cls-3" d="m138.86,397.74l-65.38.33c-.67,0-1.24-.47-1.36-1.12-.12-.65.24-1.3.87-1.54l8.95-3.4-1-199.36c-.1-19.92,12.61-51.7,13.98-54.48.19-.38.39-.82.61-1.29,1.78-3.82,4.48-9.59,9.28-9.61s7.55,5.72,9.38,9.52c.22.47.43.9.63,1.29,1.4,2.77,14.43,34.42,14.53,54.34l1,199.45,8.97,3.21c.63.22,1.01.87.89,1.53-.11.66-.68,1.14-1.35,1.14Zm-57.78-2.46l49.95-.25-2.52-.9c-.54-.2-.91-.71-.91-1.29l-1-200.42c-.1-19.42-12.86-50.4-14.23-53.11-.2-.4-.42-.85-.65-1.34-1.43-2.98-3.82-7.97-6.88-7.96s-5.4,5.03-6.8,8.03c-.23.49-.44.95-.64,1.35-1.35,2.73-13.79,33.83-13.7,53.25l1,200.32c0,.57-.35,1.09-.89,1.29l-2.73,1.03Z"/>
      </g>
      <g>
        <path class="cls-3" d="m101.62,193.18h-.07c-1.5,0-2.73-1.2-2.73-2.71v-.47c0-1.5,1.2-2.73,2.7-2.73h.07c1.5,0,2.73,1.2,2.73,2.71v.47c0,1.5-1.2,2.73-2.7,2.73Z"/>
        <path class="cls-3" d="m108.92,193.14h-.07c-1.5,0-2.73-1.2-2.73-2.71v-.47c0-1.5,1.2-2.73,2.7-2.73h.07c1.5,0,2.73,1.2,2.73,2.71v.47c0,1.5-1.2,2.73-2.7,2.73Z"/>
      </g>
      <path class="cls-3" d="m116.44,145.53c-1.38-3.57-2.45-6.05-2.85-6.84-1.62-3.2-4.29-10.07-8.77-10.05-4.47.02-7.08,6.92-8.67,10.14-.39.79-1.43,3.28-2.78,6.87,0,0,2.19-.42,5.12-.75v.54c0,.58.48,1.05,1.06,1.05l10.7-.05c.58,0,1.05-.48,1.05-1.06v-.54c2.94.31,5.13.7,5.13.7Z"/>
      <path class="cls-3" d="m89.86,158.17l-.9-2.24c5.22-2.09,10.71-3.14,16.33-3.13,5.37.02,10.64,1.01,15.65,2.97l-.87,2.24c-4.74-1.84-9.71-2.79-14.78-2.8-5.3-.02-10.49.98-15.42,2.95Z"/>
      <path class="cls-3" d="m110.07,154.3l-.02-4.74c0-.58-.48-1.05-1.06-1.05l-7.96.04c-.58,0-1.05.48-1.05,1.06l.02,4.72c1.64-.2,3.41-.32,5.28-.32,1.69,0,3.28.11,4.78.29Z"/>
      <path class="cls-1" d="m106,151.17c0,.59-.47,1.07-1.06,1.07-.59,0-1.07-.47-1.07-1.06,0-.59.47-1.07,1.06-1.07.59,0,1.07.47,1.07,1.06Z"/>
      <path class="cls-1" d="m108.86,151.15c0,.59-.47,1.07-1.06,1.07-.59,0-1.07-.47-1.07-1.06,0-.59.47-1.07,1.06-1.07.59,0,1.07.47,1.07,1.06Z"/>
      <path class="cls-1" d="m103.1,151.18c0,.59-.47,1.07-1.06,1.07-.59,0-1.07-.47-1.07-1.06,0-.59.47-1.07,1.06-1.07.59,0,1.07.47,1.07,1.06Z"/>
      <rect class="cls-3" x="104.36" y="195.72" width="2.41" height="156.08" transform="translate(-1.37 .53) rotate(-.29)"/>
      <polygon class="cls-2" points="117.5 414.37 95 414.48 98.46 396.57 113.87 396.49 117.5 414.37"/>
      <path class="cls-3" d="m90.21,411.26c-.12,0-.24-.02-.35-.07l-13.58-6.07c-.23-.1-.41-.3-.48-.55-.07-.24-.03-.51.11-.72l5.03-7.51c.16-.24.44-.39.72-.38l12,.13c.26,0,.51.13.67.34.16.21.22.48.15.74l-3.44,13.44c-.06.25-.23.45-.46.56-.12.06-.24.09-.37.09Zm-12.31-7.3l11.72,5.23,2.91-11.39-10.43-.12-4.2,6.28Z"/>
      <g>
        <path class="cls-1" d="m112.31,355.87c.81-2.07,2.8-3.43,5.02-3.44l8.05-.04c2.41-.01,6.03,2.03,8.29,6.15,2.26,4.12,5.06,14.18,5.12,25.78.06,11.61.06,12.04.06,12.04l-28.05.14s-.14-28.73-.17-33.38c-.01-2.39.84-5.14,1.67-7.26Z"/>
        <path class="cls-3" d="m138.86,397.74l-28.05.14c-.76,0-1.38-.61-1.38-1.37l-.17-33.38c-.01-2.15.58-4.76,1.76-7.77,1.02-2.61,3.49-4.3,6.3-4.32l8.05-.04c2.76-.01,6.91,2.13,9.5,6.87,2.59,4.72,5.23,15.31,5.29,26.44l.06,12.04c0,.76-.61,1.38-1.37,1.38Zm-26.68-2.62l25.29-.13-.05-10.67c-.06-11.92-2.99-21.56-4.95-25.13-1.94-3.55-5.1-5.45-7.08-5.44l-8.05.04c-1.67,0-3.14,1.02-3.75,2.57-1.04,2.65-1.58,4.98-1.57,6.75l.16,32Z"/>
      </g>
      <g>
        <path class="cls-1" d="m98.93,398.97c2.38-.47,4.82-.54,7.24-.55,2.42-.01,4.86.03,7.25.48-2.38.47-4.82.54-7.24.55-2.42.01-4.86-.04-7.25-.48,2.36-.46,2.37.44,0,0Z"/>
        <path class="cls-1" d="m98.22,403.16c2.61-.47,5.32-.54,7.98-.56,2.65-.02,5.37.04,7.98.48-2.59.47-5.27.54-7.9.56-2.67.02-5.42-.04-8.06-.48,1.94-.35.98.16,0,0Z"/>
        <path class="cls-1" d="m97.5,407.34c2.23-.37,4.5-.45,6.76-.53,2.26-.07,4.53-.05,6.78.08,1.3.07,2.6.16,3.89.36-2.21.37-4.46.45-6.69.53-2.29.08-4.59.05-6.88-.08-1.29-.08-2.58-.16-3.85-.36,2.12-.35,1.07.16,0,0Z"/>
        <path class="cls-1" d="m96.79,411.52c2.41-.37,4.86-.46,7.29-.53,2.49-.08,4.99-.05,7.49.08,1.38.07,2.76.16,4.13.35-2.41.37-4.86.46-7.29.53-2.49.08-4.98.05-7.47-.08-1.38-.08-2.77-.16-4.15-.35,2.32-.35,1.15.16,0,0Z"/>
        <path class="cls-1" d="m96.07,415.7c2.61-.36,5.26-.46,7.9-.53,2.65-.08,5.3-.05,7.95.08,1.51.07,3.03.16,4.53.36-2.61.36-5.26.46-7.9.54-2.65.08-5.3.05-7.94-.08-1.51-.07-3.03-.16-4.53-.35,2.43-.34,1.08.14,0,0Z"/>
      </g>
      <g>
        <path class="cls-1" d="m83.42,397.35c1.77.1,3.49.61,5.16,1.17,1.56.52,3.12,1.12,4.49,2.04-1.77-.1-3.49-.61-5.16-1.17-1.56-.52-3.11-1.13-4.49-2.04,1.69.09,1.41.93,0,0Z"/>
        <path class="cls-1" d="m82.1,399.69c1.94.15,3.82.72,5.65,1.33,1.72.58,3.44,1.22,4.98,2.2-1.94-.15-3.82-.72-5.65-1.33-1.72-.58-3.44-1.23-4.98-2.2,1.86.15,1.57.99,0,0Z"/>
        <path class="cls-1" d="m80.78,402.03c2.09.2,4.11.82,6.09,1.48,1.9.63,3.8,1.34,5.53,2.38-2.09-.2-4.11-.82-6.09-1.48-1.9-.64-3.8-1.34-5.53-2.38,2.02.2,1.74,1.05,0,0Z"/>
        <path class="cls-1" d="m79.45,404.37c2.25.26,4.44.93,6.58,1.64,2.07.69,4.13,1.44,6.02,2.54-2.25-.26-4.44-.93-6.58-1.64-2.07-.69-4.13-1.44-6.02-2.54,2.19.25,1.91,1.11,0,0Z"/>
        <path class="cls-1" d="m78.13,406.7c2.44.32,4.8,1.05,7.13,1.82,2.21.74,4.42,1.54,6.45,2.69-2.44-.31-4.8-1.05-7.13-1.82-2.21-.74-4.41-1.54-6.45-2.69,2.36.31,2.07,1.16,0,0Z"/>
      </g>
      <g>
        <path class="cls-1" d="m128.36,397.13c-1.37.93-2.92,1.54-4.47,2.08-1.66.58-3.38,1.11-5.15,1.22,1.37-.93,2.92-1.54,4.47-2.08,1.67-.58,3.38-1.1,5.15-1.22-1.4.95-1.69.11,0,0Z"/>
        <path class="cls-1" d="m129.71,399.45c-1.53.99-3.25,1.65-4.96,2.25-1.83.63-3.7,1.22-5.64,1.39,1.53-.99,3.24-1.66,4.96-2.25,1.83-.63,3.7-1.22,5.64-1.39-1.57,1.01-1.85.16,0,0Z"/>
        <path class="cls-1" d="m131.05,401.78c-1.71,1.06-3.61,1.78-5.5,2.43-1.97.68-3.99,1.31-6.07,1.54,1.71-1.06,3.61-1.78,5.5-2.43,1.97-.68,3.99-1.31,6.07-1.54-1.73,1.07-2.02.22,0,0Z"/>
        <path class="cls-1" d="m132.4,404.1c-1.88,1.12-3.93,1.89-5.99,2.6-2.14.74-4.31,1.43-6.56,1.71,1.88-1.12,3.93-1.89,5.99-2.6,2.14-.74,4.31-1.42,6.56-1.71-1.9,1.13-2.19.28,0,0Z"/>
        <path class="cls-1" d="m133.74,406.43c-2.02,1.16-4.22,1.99-6.42,2.75-2.32.8-4.67,1.56-7.11,1.9,2.02-1.17,4.22-1.99,6.42-2.75,2.32-.8,4.68-1.55,7.11-1.9-2.06,1.19-2.36.33,0,0Z"/>
      </g>
      <path class="cls-1" d="m84.03,422.02c2.79.64,5.59,1.13,8.46,1.28,2.86.15,5.72-.05,8.54-.52,1.39-.23,2.75-.54,4.12-.87-5.18,2.63-11.41,3.12-17,1.65-1.42-.38-2.79-.89-4.11-1.54Z"/>
      <path class="cls-1" d="m107.4,421.9c2.79.64,5.59,1.13,8.46,1.28,2.86.15,5.72-.05,8.54-.52,1.39-.23,2.75-.54,4.12-.87-5.18,2.63-11.41,3.12-17,1.65-1.42-.38-2.79-.89-4.11-1.54Z"/>
      <g>
        <path class="cls-1" d="m105.94,351.79c-1.36,0-4.27,6.39-4.17,27.21.08,15.31,2.68,61.93,4.62,62.61,1.93-.7,4.06-47.34,3.99-62.65-.1-20.82-3.08-27.17-4.44-27.16Z"/>
        <path class="cls-3" d="m106.4,442.98c-.16,0-.31-.03-.46-.08-1.13-.39-2.19-.77-3.92-27.02-.9-13.55-1.57-29.06-1.61-36.88-.09-17.88,1.98-28.57,5.53-28.59.62,0,2.52-.01,4.04,6.85,1.12,5.06,1.73,12.56,1.78,21.68.04,7.82-.48,23.33-1.24,36.89-1.47,26.27-2.53,26.66-3.65,27.06-.15.05-.3.08-.46.08Zm-.45-89.33c-1.05,2.03-2.88,8.95-2.8,25.34.06,12.94,1.71,42.83,3.2,55.77,1.36-12.95,2.71-42.86,2.65-55.8-.08-16.38-1.98-23.29-3.05-25.31Z"/>
      </g>
      <g>
        <path class="cls-1" d="m82.33,194.82c-1.06,6.89-10.73,66.81-12.24,75.08-1.51,8.27-.58,22.54-18.72,40.53-18.15,17.99-28.08,26.64-31.68,30.44-3.59,3.8-9.76,7.76-11.77,19.85-1.38,8.29-2,13.77-1.98,16.7.01,2.92-.83,5.34,2.78,6.35s66.82,12.91,66.82,12.91l7.8-.04-1.01-201.82Z"/>
        <path class="cls-3" d="m83.34,398.02l-7.8.04c-.09,0-.18,0-.26-.02-2.58-.49-63.31-11.92-66.94-12.94-4.07-1.14-3.93-4.01-3.83-6.32.02-.44.04-.9.04-1.35-.02-3.16.66-8.86,2-16.93,1.76-10.6,6.69-15.31,10.28-18.74.67-.64,1.3-1.24,1.85-1.82,1.47-1.55,3.88-3.81,7.53-7.23,5.3-4.96,13.3-12.46,24.18-23.24,15.15-15.02,16.72-27.47,17.75-35.71.18-1.46.36-2.84.58-4.09,1.55-8.52,11.25-68.6,12.23-75.04.11-.71.75-1.22,1.46-1.16.72.05,1.27.65,1.28,1.37l1.01,201.82c0,.76-.61,1.38-1.37,1.38Zm-7.68-2.71l6.29-.03-.92-183.62c-3.28,20.4-8.49,52.44-9.59,58.5-.21,1.17-.38,2.52-.56,3.94-1.08,8.62-2.72,21.64-18.55,37.32-10.91,10.81-18.93,18.32-24.24,23.3-3.61,3.39-6,5.62-7.41,7.11-.6.63-1.25,1.26-1.94,1.92-3.5,3.35-7.86,7.51-9.47,17.21-1.64,9.86-1.97,14.4-1.96,16.47,0,.53-.02,1.02-.04,1.49-.11,2.37-.06,3.01,1.82,3.54,2.81.79,44.7,8.74,66.58,12.86Z"/>
      </g>
      <path class="cls-3" d="m8.3,370.78c3.21-12.49,11.98-19.31,15.57-23.11,3.59-3.8,13.53-11.77,31.68-29.75,18.15-17.99,18.58-35.71,20.08-43.98.88-4.83,3.1-43.24,6.15-75.68-2.33,14.66-10.64,64.13-11.7,71.64-1.19,8.46-.58,22.54-18.72,40.53-18.15,17.99-28.08,26.64-31.68,30.44-3.59,3.8-9.76,7.76-11.77,19.85-1.38,8.29-2,13.77-1.98,16.7,0,1.78-.3,3.36.27,4.56.31-2.99.87-6.39,2.11-11.2Z"/>
      <path class="cls-3" d="m42.19,387.61c16.69,3.19,33.34,6.32,33.34,6.32l7.8-.04-.06-11.37-40.98-2.91-.1,8Z"/>
      <path class="cls-3" d="m37.43,389.62s.03-.47.09-1.3c.07-.82.14-2,.27-3.42.06-.71.13-1.47.2-2.28.07-.81.15-1.66.23-2.55.17-1.77.36-3.65.57-5.53.1-.94.21-1.88.31-2.81.11-.93.22-1.84.32-2.72.2-1.76.44-3.41.62-4.82.18-1.41.37-2.58.48-3.4.13-.82.2-1.29.2-1.29,0,0,.01.47.03,1.3,0,.83.05,2.02.05,3.44,0,1.42.03,3.08,0,4.86,0,.89-.02,1.8-.03,2.74-.02.93-.03,1.88-.05,2.82-.04,1.89-.08,3.78-.14,5.56-.03.89-.06,1.74-.09,2.55-.03.81-.06,1.58-.09,2.29-.05,1.42-.13,2.6-.17,3.42-.05.83-.08,1.3-.08,1.3l-2.75-.17Z"/>
      <path class="cls-3" d="m23.63,378.11l-1.4,1.54c-.85,1.17-1.49,2.42-1.86,3.75,4.51.88,9.95,1.93,15.62,3.02l.74-7.38-13.1-.93Z"/>
      <path class="cls-3" d="m37.49,371.48l.22-2.16c-1.59.7-3.19,1.44-4.74,2.23l4.52-.07Z"/>
      <path class="cls-3" d="m68.32,329.21c-1.08,13.08-3.42,27.43-18.06,34.73-2.1,1.05-4.84,2.15-7.82,3.37l-.05,4.35,40.84,1.06-.89-177.91c-.93,10-12.98,121.95-14.01,134.39Z"/>
      <path class="cls-3" d="m40.96,373.15l-2.24-.06-32.51-.92c-.11,1.34-.19,2.52-.24,3.54l32.47,2.31,2.37.17,42.44,3.02-.03-6.87-42.27-1.19Z"/>
      <path class="cls-3" d="m93.9,182.28l-3.61,1.34c-.19.07-.39.11-.59.11-.35,0-.69-.1-.99-.31-.46-.32-.74-.84-.74-1.41l-.03-6.48c0-1,1.07-2.08,1.38-2.3l6.85-4.83c.09-.06.18-.11.28-.16.87-4.76,1.88-9.66,2.91-14.38.09-.39.73-.38.82-.77.17-.77-.22-1.94-.04-2.7,1.99-8.76,4.03-16.66,5.45-21.69-.25-.04-.5-.07-.77-.07-4.47.02-7.08,6.92-8.67,10.14s-13.94,34.48-13.84,53.87c.07,13.31,1,200.32,1,200.32l-9.85,3.74,11.25-.06,9.85-3.74s-.94-187.01-1-200.32c-.01-2.95.26-6.53.73-10.49-.13.07-.26.13-.39.18Z"/>
      <path class="cls-1" d="m93.92,198.96c-2.3-.36-4.6-.65-6.92-.85,2.32-.37,4.64-.65,6.98-.87-.02.57-.04,1.15-.06,1.72Z"/>
      <path class="cls-1" d="m94.12,239.37c-2.3-.36-4.6-.65-6.92-.85,2.32-.37,4.64-.65,6.98-.87-.02.57-.04,1.15-.06,1.72Z"/>
      <path class="cls-1" d="m94.32,279.66c-2.3-.36-4.6-.65-6.92-.85,2.32-.37,4.64-.65,6.98-.87-.02.57-.04,1.15-.06,1.72Z"/>
      <path class="cls-1" d="m94.52,319.95c-2.3-.36-4.6-.65-6.92-.85,2.32-.37,4.64-.65,6.98-.87-.02.57-.04,1.15-.06,1.72Z"/>
      <g>
        <path class="cls-3" d="m82.36,198.97c1.05-.62,2.22-1.07,3.36-1.48,1.47-.53,2.98-.96,4.5-1.32,3.09-.73,6.22-1.16,9.38-1.43,6.44-.54,13.03-.22,19.37,1.03,1.71.34,3.41.77,5.06,1.32,1.35.45,2.75.93,3.99,1.65-2.62-.59-5.3-.93-7.97-1.19-3.13-.31-6.27-.48-9.42-.57-6.38-.17-12.77,0-19.12.59-3.07.28-6.15.69-9.15,1.4Z"/>
        <path class="cls-3" d="m82.57,239.29c1.05-.62,2.22-1.07,3.36-1.48,1.47-.53,2.98-.96,4.5-1.32,3.09-.73,6.22-1.16,9.38-1.43,6.44-.54,13.03-.22,19.37,1.03,1.71.34,3.41.77,5.06,1.32,1.35.45,2.75.93,3.99,1.65-2.62-.59-5.3-.93-7.97-1.19-3.13-.31-6.27-.48-9.41-.57-6.38-.17-12.77,0-19.12.59-3.07.28-6.15.69-9.15,1.4Z"/>
        <path class="cls-3" d="m82.77,279.61c1.05-.62,2.22-1.07,3.36-1.48,1.47-.53,2.98-.96,4.5-1.32,3.09-.73,6.22-1.16,9.38-1.43,6.44-.54,13.03-.22,19.37,1.03,1.71.34,3.41.77,5.06,1.32,1.35.45,2.75.93,3.99,1.65-2.62-.59-5.3-.93-7.97-1.19-3.13-.31-6.27-.48-9.41-.57-6.38-.17-12.77,0-19.12.59-3.07.28-6.15.69-9.15,1.4Z"/>
        <path class="cls-3" d="m82.97,319.93c1.05-.62,2.22-1.07,3.36-1.48,1.47-.53,2.98-.96,4.5-1.32,3.09-.73,6.22-1.16,9.38-1.43,6.44-.54,13.03-.22,19.37,1.03,1.71.34,3.41.77,5.06,1.32,1.35.45,2.76.93,3.99,1.65-2.62-.59-5.3-.93-7.97-1.19-3.13-.31-6.27-.48-9.41-.57-6.38-.17-12.77,0-19.12.59-3.07.28-6.15.69-9.15,1.4Z"/>
      </g>
      <path class="cls-1" d="m83.31,353.62c-.02-2.26-.03-4.52-.05-6.78-.04-6.07-.09-12.14-.13-18.21-.06-7.75-.1-15.51-.14-23.26-.04-8.31-.09-16.63-.12-24.94-.04-8.61-.07-17.22-.09-25.83-.02-8.73-.04-17.46-.06-26.18-.02-8.55-.04-17.11-.06-25.66,0-2.1,0-4.2,0-6.3,0-2.12-.02-4.24.13-6.35.31-4.17,1-8.3,1.82-12.4,1.6-7.97,3.74-15.83,6.23-23.57,1.2-3.72,2.47-7.41,3.9-11.04,1.31-3.32,2.69-6.64,4.44-9.75.68-1.2,1.41-2.37,2.37-3.36-.98,1.09-1.7,2.38-2.36,3.69-.85,1.67-1.6,3.4-2.3,5.14-1.44,3.57-2.68,7.21-3.86,10.88-2.47,7.7-4.55,15.54-6.25,23.44-.9,4.19-1.69,8.41-2.21,12.66-.26,2.16-.46,4.34-.49,6.52-.03,2.16.04,4.32.06,6.48.07,8.64.13,17.29.2,25.93.07,8.87.14,17.73.21,26.6.07,8.76.12,17.52.17,26.28.05,8.52.09,17.03.13,25.55.04,7.89.08,15.77.1,23.66.02,6.42.04,12.84.05,19.27v5.41c.02.49.02.99.02,1.48,0,.1.07.55,0,.63-.06.07-.43.02-.53.02-.4,0-.79,0-1.19,0Z"/>
      <g>
        <path class="cls-1" d="m99.61,355.93c-.83-2.06-2.84-3.4-5.06-3.39l-8.05.04c-2.41.01-6.01,2.09-8.23,6.24-2.22,4.14-4.92,14.23-4.86,25.83.06,11.61.06,12.04.06,12.04l28.05-.14s-.14-28.73-.17-33.38c-.01-2.39-.89-5.14-1.74-7.24Z"/>
        <path class="cls-3" d="m101.52,397.93l-28.05.14c-.76,0-1.38-.61-1.38-1.37l-.06-12.04c-.06-11.12,2.48-21.75,5.02-26.49,2.55-4.76,6.68-6.95,9.43-6.96l8.05-.04c2.8-.01,5.29,1.66,6.34,4.25,1.21,3,1.83,5.61,1.84,7.75l.17,33.38c0,.76-.61,1.38-1.37,1.38Zm-26.68-2.62l25.29-.13-.16-32c0-1.77-.58-4.1-1.64-6.73-.62-1.55-2.11-2.54-3.78-2.53l-8.05.04c-1.98,0-5.11,1.94-7.02,5.51-1.92,3.59-4.76,13.26-4.7,25.18l.05,10.67Z"/>
      </g>
      <path class="cls-1" d="m78.72,222.53c-.46,3.48-.92,6.96-1.37,10.44-.69,5.39-1.37,10.78-2.04,16.18-.7,5.6-1.38,11.19-2.09,16.79-.36,2.9-.77,5.8-1.09,8.71-.33,2.9-.73,5.78-1.42,8.62-1.3,5.37-3.57,10.45-6.5,15.13-2.93,4.67-6.47,8.94-10.31,12.9-4.03,4.15-8.22,8.17-12.38,12.18-4.19,4.03-8.43,8-12.69,11.95-2.1,1.95-4.23,3.87-6.3,5.86-1,.97-1.97,1.96-2.99,2.9-1.06.97-2.13,1.92-3.15,2.94-1.94,1.92-3.63,4.06-4.97,6.44-1.17,2.08-2.09,4.3-2.78,6.58-.27.87-.5,1.75-.72,2.63.77-4.48,2.19-8.77,4.74-12.56,1.57-2.33,3.49-4.32,5.5-6.26,1.92-1.86,3.74-3.82,5.66-5.68,3.99-3.87,8.05-7.67,12.08-11.51,4.17-3.97,8.32-7.96,12.43-11.98,3.92-3.83,7.81-7.67,11.16-12.02,3.25-4.22,6.01-8.87,7.93-13.85,1.01-2.61,1.77-5.3,2.31-8.05.55-2.83.83-5.69,1.22-8.55.77-5.6,1.56-11.2,2.39-16.79.79-5.34,1.59-10.67,2.44-15.99.8-4.97,1.61-9.95,2.54-14.9.13-.7.26-1.41.4-2.11Z"/>
      <path class="cls-1" d="m99.41,157.35c-2.14-.23-4.31-.19-6.47-.06,2.1-.7,4.24-1.32,6.43-1.66.01.57.03,1.15.04,1.72Z"/>
      <path class="cls-3" d="m76.55,393.58l21.85-.11-.03-6.12c-4.82-1.14-13.65-4.36-14.58-12.7-.92-8.28.1-14.11,1.51-18.65-1.25.55-3,1.84-4.3,4.27-1.77,3.3-4.55,12.84-4.49,24.36l.04,8.95Z"/>
      <path class="cls-3" d="m121.17,355.82c.04-.11.09-.22.14-.32l-3.96.02c-.96,0-1.81.58-2.16,1.48-.96,2.45-1.46,4.56-1.45,6.11l.15,30.28,5.76-.03c-.04-7.55-.13-26.58-.15-30.28-.01-2.39.84-5.14,1.67-7.26Z"/>
      <path class="cls-3" d="m89.66,175.52l.03,6.48,3.61-1.34c.46-.17.76-.61.76-1.1v-1.88c-.01-.51-.35-.97-.84-1.11l-3.56-1.06Z"/>
      <path class="cls-3" d="m97.16,169.81l-6.85,4.83,3.61,1.07c.35.1.72.04,1.02-.17l1.93-1.4c.32-.23.5-.61.48-1.01l-.18-3.31Z"/>
      <path class="cls-3" d="m116.08,177.58v1.88c.01.49.32.93.78,1.09l3.63,1.3-.03-6.48-3.55,1.09c-.49.15-.83.61-.82,1.12Z"/>
      <path class="cls-3" d="m119.8,174.49l-6.9-4.76-.15,3.32c-.02.4.17.77.49,1l1.94,1.38c.3.21.67.27,1.02.16l3.6-1.11Z"/>
      <path class="cls-3" d="m99.59,175.03l10.93-.05c.6,0,1.1-.46,1.16-1.06v-.02s.22-4.79.22-4.79c-.9-.38-3.67-1.43-6.87-1.41-3.21.02-5.96,1.09-6.86,1.48l.26,4.81h0c.06.6.56,1.06,1.17,1.05Z"/>
      <path class="cls-3" d="m101.77,379c.08,15.31,2.68,61.93,4.62,62.61l-.45-89.81c-1.36,0-4.27,6.39-4.17,27.21Z"/>
      <g>
        <path class="cls-1" d="m104.97,139.05c-.64,0-1.17,1.11-1.16,2.41s.55,2.41,1.19,2.4c.64,0,1.17-1.11,1.16-2.41s-.55-2.41-1.19-2.4Z"/>
        <path class="cls-1" d="m101.63,139.08s-.05,0-.07,0c-.61,0-1.24,1.01-1.4,2.25-.16,1.3.23,2.46.86,2.54.64.09,1.31-.96,1.47-2.24.16-1.3-.23-2.46-.86-2.54Z"/>
        <path class="cls-1" d="m108.37,139.04s-.05,0-.07,0c-.63.09-1.01,1.25-.84,2.55.17,1.23.81,2.23,1.42,2.23.02,0,.05,0,.07,0,.29-.04.54-.32.7-.77.18-.49.22-1.12.13-1.78-.17-1.23-.81-2.23-1.42-2.23Z"/>
      </g>
    </g>
  </g>
</svg>